{
.appVersion = "1208";
copyright = "Copyright 2018 Google Inc. All Rights Reserved.";
customParameters = (
{
name = glyphOrder;
value = (
.notdef,
NULL,
CR,
space,
u10530,
u10531,
u10532,
u10533,
u10534,
u10535,
u10536,
u10537,
u10538,
u10539,
u1053A,
u1053B,
u1053C,
u1053D,
u1053E,
u1053F,
u10540,
u10541,
u10542,
u10543,
u10544,
u10545,
u10546,
u10547,
u10548,
u10549,
u1054A,
u1054B,
u1054C,
u1054D,
u1054E,
u1054F,
u10550,
u10551,
u10552,
u10553,
u10554,
u10555,
u10556,
u10557,
u10558,
u10559,
u1055A,
u1055B,
u1055C,
u1055D,
u1055E,
u1055F,
u10560,
u10561,
u10562,
u10563,
u1056F,
uni25CC,
nbspace,
uni0304,
uni0331,
uniFE2D,
uniFE26,
uniFE22,
uniFE23,
uniFE27,
uniFE20,
uniFE28,
uniFE21,
uniFE2B,
uniFE24,
uniFE2C,
uniFE25,
uniFE29,
uniFE2A,
uniFE2E,
uniFE2F,
u10530_fe26,
u10531_fe26,
u10532_fe26,
u10533_fe26,
u10534_fe26,
u10535_fe26,
u10536_fe26,
u10537_fe26,
u10538_fe26,
u10539_fe26,
u1053A_fe26,
u1053B_fe26,
u1053C_fe26,
u1053D_fe26,
u1053E_fe26,
u1053F_fe26,
u10540_fe26,
u10541_fe26,
u10542_fe26,
u10543_fe26,
u10544_fe26,
u10545_fe26,
u10546_fe26,
u10547_fe26,
u10548_fe26,
u10549_fe26,
u1054A_fe26,
u1054B_fe26,
u1054C_fe26,
u1054D_fe26,
u1054E_fe26,
u1054F_fe26,
u10550_fe26,
u10551_fe26,
u10552_fe26,
u10553_fe26,
u10554_fe26,
u10555_fe26,
u10556_fe26,
u10557_fe26,
u10558_fe26,
u10559_fe26,
u1055A_fe26,
u1055B_fe26,
u1055C_fe26,
u1055D_fe26,
u1055E_fe26,
u1055F_fe26,
u10560_fe26,
u10561_fe26,
u10562_fe26,
u10563_fe26,
u10530_fe2d,
u10531_fe2d,
u10532_fe2d,
u10533_fe2d,
u10534_fe2d,
u10535_fe2d,
u10536_fe2d,
u10537_fe2d,
u10538_fe2d,
u10539_fe2d,
u1053A_fe2d,
u1053B_fe2d,
u1053C_fe2d,
u1053D_fe2d,
u1053E_fe2d,
u1053F_fe2d,
u10540_fe2d,
u10541_fe2d,
u10542_fe2d,
u10543_fe2d,
u10544_fe2d,
u10545_fe2d,
u10546_fe2d,
u10547_fe2d,
u10548_fe2d,
u10549_fe2d,
u1054A_fe2d,
u1054B_fe2d,
u1054C_fe2d,
u1054D_fe2d,
u1054E_fe2d,
u1054F_fe2d,
u10550_fe2d,
u10551_fe2d,
u10552_fe2d,
u10553_fe2d,
u10554_fe2d,
u10555_fe2d,
u10556_fe2d,
u10557_fe2d,
u10558_fe2d,
u10559_fe2d,

glyphs = (
{
glyphname = .notdef;
lastChange = "2019-02-19 19:00:23 +0000";
layers = (
{
color = -1;
layerId = "013C57DE-4010-4415-A39F-4966D9E8DBC5";
paths = (
{
closed = 1;
nodes = (
"505 0 LINE",
"505 714 LINE",
"94 714 LINE",
"94 0 LINE"
);
},
{
closed = 1;
nodes = (
"145 663 LINE",
"454 663 LINE",
"454 51 LINE",
"145 51 LINE"
);
}
);
width = 600;
}
);
script = "";
category = Separator;
subCategory = Other;
},
{
glyphname = u10530;
lastChange = "2019-02-19 19:00:23 +0000";
layers = (
{
color = -1;
layerId = "013C57DE-4010-4415-A39F-4966D9E8DBC5";
paths = (
{
closed = 1;
nodes = (
"128 40 OFFCURVE",
"208 63 OFFCURVE",
"284 63 CURVE SMOOTH",
"350 63 OFFCURVE",
"414 38 OFFCURVE",
"462 -5 CURVE",
"501 66 LINE",
"451 109 OFFCURVE",
"370 137 OFFCURVE",
"293 137 CURVE SMOOTH",
"222 137 OFFCURVE",
"168 120 OFFCURVE",
"108 72 CURVE",
"74 -5 LINE"
);
},
{
closed = 1;
nodes = (
"337 308 LINE SMOOTH",
"412 398 OFFCURVE",
"466 466 OFFCURVE",
"466 551 CURVE SMOOTH",
"466 651 OFFCURVE",
"391 724 OFFCURVE",
"265 724 CURVE SMOOTH",
"133 724 OFFCURVE",
"49 645 OFFCURVE",
"49 532 CURVE SMOOTH",
"49 411 OFFCURVE",
"145 351 OFFCURVE",
"269 319 CURVE",
"313 376 LINE",
"213 399 OFFCURVE",
"136 449 OFFCURVE",
"136 535 CURVE SMOOTH",
"136 602 OFFCURVE",
"183 653 OFFCURVE",
"262 653 CURVE SMOOTH",
"342 653 OFFCURVE",
"377 599 OFFCURVE",
"377 544 CURVE SMOOTH",
"377 475 OFFCURVE",
"318 404 OFFCURVE",
"268 345 CURVE SMOOTH",
"16 48 LINE",
"74 -5 LINE"
);
}
);
width = 511;
}
);
leftKerningGroup = u10530;
unicode = 10530;
script = "";
category = Letter;
subCategory = Other;
},
{
glyphname = u10531;
lastChange = "2019-02-19 19:00:23 +0000";
layers = (
{
color = -1;
layerId = "013C57DE-4010-4415-A39F-4966D9E8DBC5";
paths = (
{
closed = 1;
nodes = (
"447 529 LINE",
"447 606 LINE",
"91 606 LINE",
"91 529 LINE"
);
},
{
closed = 1;
nodes = (
"434 -10 OFFCURVE",
"506 79 OFFCURVE",
"506 205 CURVE SMOOTH",
"506 317 OFFCURVE",
"443 410 OFFCURVE",
"260 410 CURVE SMOOTH",
"156 410 LINE",
"156 714 LINE",
"70 714 LINE",
"70 216 LINE SMOOTH",
"70 84 OFFCURVE",
"122 -10 OFFCURVE",
"285 -10 CURVE SMOOTH"
);
},
{
closed = 1;
nodes = (
"200 63 OFFCURVE",
"156 109 OFFCURVE",
"156 224 CURVE SMOOTH",
"156 333 LINE",
"249 333 LINE SMOOTH",
"359 333 OFFCURVE",
"417 295 OFFCURVE",
"417 205 CURVE SMOOTH",
"417 115 OFFCURVE",
"370 63 OFFCURVE",
"284 63 CURVE SMOOTH"
);
}
);
width = 536;
}
);
leftKerningGroup = u10549;
leftMetricsKey = "=|u1053E";
rightMetricsKey = u1053D;
unicode = 10531;
script = "";
category = Letter;
subCategory = Other;
},
{
glyphname = u10532;
lastChange = "2019-02-19 19:00:23 +0000";
layers = (
{
color = -1;
layerId = "013C57DE-4010-4415-A39F-4966D9E8DBC5";
paths = (
{
closed = 1;
nodes = (
"453 0 LINE",
"453 241 LINE",
"426 232 OFFCURVE",
"398 229 OFFCURVE",
"367 229 CURVE SMOOTH",
"208 229 OFFCURVE",
"142 307 OFFCURVE",
"142 438 CURVE SMOOTH",
"142 560 OFFCURVE",
"200 650 OFFCURVE",
"313 650 CURVE SMOOTH",
"410 650 OFFCURVE",
"459 588 OFFCURVE",
"459 471 CURVE",
"547 471 LINE",
"547 636 OFFCURVE",
"468 724 OFFCURVE",
"314 724 CURVE SMOOTH",
"144 724 OFFCURVE",
"50 610 OFFCURVE",
"50 437 CURVE SMOOTH",
"50 259 OFFCURVE",
"139 153 OFFCURVE",
"365 153 CURVE",
"365 0 LINE"
);
}
);
width = 577;
}
);
leftKerningGroup = u10552;
leftMetricsKey = u10552;
unicode = 10532;
script = "";
category = Letter;
subCategory = Other;
},
{
glyphname = u10533;
lastChange = "2019-02-19 19:00:23 +0000";
layers = (
{
color = -1;
layerId = "013C57DE-4010-4415-A39F-4966D9E8DBC5";
paths = (
{
closed = 1;
nodes = (
"341 0 LINE",
"341 187 LINE",
"479 197 OFFCURVE",
"562 309 OFFCURVE",
"562 455 CURVE SMOOTH",
"562 605 OFFCURVE",
"474 724 OFFCURVE",
"298 724 CURVE SMOOTH",
"121 724 OFFCURVE",
"30 605 OFFCURVE",
"30 454 CURVE SMOOTH",
"30 308 OFFCURVE",
"114 197 OFFCURVE",
"253 187 CURVE",
"253 0 LINE"
);
},
{
closed = 1;
nodes = (
"184 261 OFFCURVE",
"120 333 OFFCURVE",
"120 455 CURVE SMOOTH",
"120 559 OFFCURVE",
"167 650 OFFCURVE",
"297 650 CURVE SMOOTH",
"423 650 OFFCURVE",
"472 564 OFFCURVE",
"472 455 CURVE SMOOTH",
"472 334 OFFCURVE",
"411 261 OFFCURVE",
"297 261 CURVE SMOOTH"
);
}
);
width = 592;
}
);
leftKerningGroup = u10533;
leftMetricsKey = u10551;
rightMetricsKey = "=|";
unicode = 10533;
script = "";
category = Letter;
subCategory = Other;
},
{
glyphname = u10534;
lastChange = "2019-02-19 19:00:23 +0000";
layers = (
{
color = -1;
layerId = "013C57DE-4010-4415-A39F-4966D9E8DBC5";
paths = (
{
closed = 1;
nodes = (
"614 333 LINE",
"614 410 LINE",
"377 410 LINE",
"377 333 LINE"
);
},
{
closed = 1;
nodes = (
"396 -10 OFFCURVE",
"465 80 OFFCURVE",
"465 248 CURVE SMOOTH",
"465 714 LINE",
"377 714 LINE",
"377 237 LINE SMOOTH",
"377 126 OFFCURVE",
"341 64 OFFCURVE",
"246 64 CURVE SMOOTH",
"163 64 OFFCURVE",
"119 109 OFFCURVE",
"119 224 CURVE SMOOTH",
"119 269 LINE",
"30 269 LINE",
"30 222 LINE SMOOTH",
"30 64 OFFCURVE",
"108 -10 OFFCURVE",
"247 -10 CURVE SMOOTH"
);
}
);
width = 624;
}
);
leftKerningGroup = u10559;
leftMetricsKey = u1053E;
rightKerningGroup = u10534;
rightMetricsKey = u1053F;
unicode = 10534;
script = "";
category = Letter;
subCategory = Other;
},
{
glyphname = u10535;
lastChange = "2019-02-19 19:00:23 +0000";
layers = (
{
color = -1;
layerId = "013C57DE-4010-4415-A39F-4966D9E8DBC5";
paths = (
{
closed = 1;
nodes = (
"405 -10 OFFCURVE",
"492 75 OFFCURVE",
"492 212 CURVE SMOOTH",
"492 363 OFFCURVE",
"387 433 OFFCURVE",
"302 489 CURVE SMOOTH",
"207 552 OFFCURVE",
"185 576 OFFCURVE",
"172 714 CURVE",
"85 714 LINE",
"96 528 OFFCURVE",
"158 486 OFFCURVE",
"259 421 CURVE SMOOTH",
"342 368 OFFCURVE",
"403 325 OFFCURVE",
"403 216 CURVE SMOOTH",
"403 121 OFFCURVE",
"361 64 OFFCURVE",
"264 64 CURVE SMOOTH",
"160 64 OFFCURVE",
"129 130 OFFCURVE",
"129 205 CURVE SMOOTH",
"129 240 OFFCURVE",
"136 282 OFFCURVE",
"151 313 CURVE",
"76 347 LINE",
"52 302 OFFCURVE",
"40 246 OFFCURVE",
"40 199 CURVE SMOOTH",
"40 89 OFFCURVE",
"105 -10 OFFCURVE",
"261 -10 CURVE SMOOTH"
);
}
);
width = 522;
}
);
unicode = 10535;
script = "";
category = Letter;
subCategory = Other;
},
{
glyphname = u10536;
lastChange = "2019-02-19 19:00:23 +0000";
layers = (
{
color = -1;
layerId = "013C57DE-4010-4415-A39F-4966D9E8DBC5";
paths = (
{
closed = 1;
nodes = (
"168 0 LINE",
"168 637 LINE",
"408 637 LINE",
"408 714 LINE",
"80 714 LINE",
"80 0 LINE"
);
},
{
closed = 1;
nodes = (
"408 0 LINE",
"408 77 LINE",
"80 77 LINE",
"80 0 LINE"
);
}
);
width = 438;
}
);
leftKerningGroup = u10536;
rightKerningGroup = u10536;
unicode = 10536;
script = "";
category = Letter;
subCategory = Other;
},
{
glyphname = u10537;
lastChange = "2019-02-19 19:00:23 +0000";
layers = (
{
color = -1;
layerId = "013C57DE-4010-4415-A39F-4966D9E8DBC5";
paths = (
{
closed = 1;
nodes = (
"472 120 LINE",
"472 197 LINE",
"116 197 LINE",
"116 120 LINE"
);
},
{
closed = 1;
nodes = (
"168 302 LINE",
"262 302 LINE SMOOTH",
"407 302 OFFCURVE",
"512 360 OFFCURVE",
"512 504 CURVE SMOOTH",
"512 633 OFFCURVE",
"428 714 OFFCURVE",
"272 714 CURVE SMOOTH",
"148 714 LINE",
"148 637 LINE",
"251 637 LINE SMOOTH",
"361 637 OFFCURVE",
"421 595 OFFCURVE",
"421 507 CURVE SMOOTH",
"421 414 OFFCURVE",
"355 379 OFFCURVE",
"251 379 CURVE SMOOTH",
"168 379 LINE",
"168 714 LINE",
"80 714 LINE",
"80 0 LINE",
"168 0 LINE"
);
}
);
width = 542;
}
);
leftKerningGroup = u10536;
leftMetricsKey = u10536;
rightMetricsKey = "=|u10551";
unicode = 10537;
script = "";
category = Letter;
subCategory = Other;
},
{
glyphname = u10538;
lastChange = "2019-02-19 19:00:23 +0000";
layers = (
{
color = -1;
layerId = "013C57DE-4010-4415-A39F-4966D9E8DBC5";
paths = (
{
closed = 1;
nodes = (
"421 637 LINE",
"421 714 LINE",
"102 714 LINE",
"102 637 LINE"
);
},
{
closed = 1;
nodes = (
"190 463 LINE",
"190 663 LINE",
"102 663 LINE",
"102 463 LINE"
);
},
{
closed = 1;
nodes = (
"396 -10 OFFCURVE",
"465 80 OFFCURVE",
"465 248 CURVE SMOOTH",
"465 714 LINE",
"377 714 LINE",
"377 237 LINE SMOOTH",
"377 126 OFFCURVE",
"341 64 OFFCURVE",
"246 64 CURVE SMOOTH",
"163 64 OFFCURVE",
"119 109 OFFCURVE",
"119 224 CURVE SMOOTH",
"119 269 LINE",
"30 269 LINE",
"30 222 LINE SMOOTH",
"30 64 OFFCURVE",
"108 -10 OFFCURVE",
"247 -10 CURVE SMOOTH"
);
}
);
width = 535;
}
);
leftMetricsKey = u1053E;
rightKerningGroup = u10548;
rightMetricsKey = u1053E;
unicode = 10538;
script = "";
category = Letter;
subCategory = Other;
},
{
glyphname = u10539;
lastChange = "2019-02-19 19:00:23 +0000";
layers = (
{
color = -1;
layerId = "013C57DE-4010-4415-A39F-4966D9E8DBC5";
paths = (
{
closed = 1;
nodes = (
"516 -45 OFFCURVE",
"567 11 OFFCURVE",
"567 102 CURVE SMOOTH",
"567 190 LINE",
"485 190 LINE",
"485 108 LINE SMOOTH",
"485 57 OFFCURVE",
"469 29 OFFCURVE",
"420 29 CURVE SMOOTH",
"368 29 OFFCURVE",
"352 57 OFFCURVE",
"352 113 CURVE SMOOTH",
"352 190 LINE",
"273 138 LINE",
"273 96 LINE SMOOTH",
"273 7 OFFCURVE",
"320 -45 OFFCURVE",
"416 -45 CURVE SMOOTH"
);
},
{
closed = 1;
nodes = (
"352 98 LINE",
"352 190 LINE",
"130 64 LINE",
"168 0 LINE"
);
},
{
closed = 1;
nodes = (
"168 0 LINE",
"168 714 LINE",
"80 714 LINE",
"80 0 LINE"
);
}
);
width = 577;
}
);
leftKerningGroup = u10536;
leftMetricsKey = u10536;
rightMetricsKey = u1053F;
unicode = 10539;
script = "";
category = Letter;
subCategory = Other;
},
{
glyphname = u1053A;
lastChange = "2019-02-19 19:00:23 +0000";
layers = (
{
color = -1;
layerId = "013C57DE-4010-4415-A39F-4966D9E8DBC5";
paths = (
{
closed = 1;
nodes = (
"338 0 LINE",
"338 714 LINE",
"10 714 LINE",
"10 637 LINE",
"250 637 LINE",
"250 0 LINE"
);
}
);
width = 418;
}
);
leftMetricsKey = u1053F;
rightKerningGroup = u1053A;
rightMetricsKey = "=|u10536";
unicode = 1053A;
script = "";
category = Letter;
subCategory = Other;
},
{
glyphname = u1053B;
lastChange = "2019-02-19 19:00:23 +0000";
layers = (
{
color = -1;
layerId = "013C57DE-4010-4415-A39F-4966D9E8DBC5";
paths = (
{
closed = 1;
nodes = (
"88 0 LINE",
"227 383 LINE",
"231 383 LINE",
"384 0 LINE",
"481 0 LINE",
"275 483 LINE",
"308 558 OFFCURVE",
"343 612 OFFCURVE",
"408 662 CURVE",
"359 724 LINE",
"264 667 OFFCURVE",
"203 534 OFFCURVE",
"162 428 CURVE SMOOTH",
"-5 0 LINE"
);
}
);
width = 476;
}
);
unicode = 1053B;
script = "";
category = Letter;
subCategory = Other;
},
{
glyphname = u1053C;
lastChange = "2019-02-19 19:00:23 +0000";
layers = (
{
color = -1;
layerId = "013C57DE-4010-4415-A39F-4966D9E8DBC5";
paths = (
{
closed = 1;
nodes = (
"494 0 LINE",
"494 714 LINE",
"406 714 LINE",
"406 643 LINE SMOOTH",
"406 485 OFFCURVE",
"367 406 OFFCURVE",
"258 406 CURVE SMOOTH",
"172 406 OFFCURVE",
"139 455 OFFCURVE",
"139 580 CURVE SMOOTH",
"139 714 LINE",
"51 714 LINE",
"51 548 LINE SMOOTH",
"51 391 OFFCURVE",
"118 331 OFFCURVE",
"236 331 CURVE SMOOTH",
"313 331 OFFCURVE",
"367 357 OFFCURVE",
"405 419 CURVE",
"410 419 LINE",
"407 373 OFFCURVE",
"406 339 OFFCURVE",
"406 308 CURVE SMOOTH",
"406 0 LINE"
);
}
);
width = 574;
}
);
rightMetricsKey = "=|u10536";
unicode = 1053C;
script = "";
category = Letter;
subCategory = Other;
},
{
glyphname = u1053D;
lastChange = "2019-02-19 19:00:23 +0000";
layers = (
{
color = -1;
layerId = "013C57DE-4010-4415-A39F-4966D9E8DBC5";
paths = (
{
closed = 1;
nodes = (
"434 -10 OFFCURVE",
"506 79 OFFCURVE",
"506 205 CURVE SMOOTH",
"506 317 OFFCURVE",
"443 410 OFFCURVE",
"260 410 CURVE SMOOTH",
"156 410 LINE",
"156 714 LINE",
"70 714 LINE",
"70 216 LINE SMOOTH",
"70 84 OFFCURVE",
"122 -10 OFFCURVE",
"285 -10 CURVE SMOOTH"
);
},
{
closed = 1;
nodes = (
"200 63 OFFCURVE",
"156 109 OFFCURVE",
"156 224 CURVE SMOOTH",
"156 333 LINE",
"249 333 LINE SMOOTH",
"359 333 OFFCURVE",
"417 295 OFFCURVE",
"417 205 CURVE SMOOTH",
"417 115 OFFCURVE",
"370 63 OFFCURVE",
"284 63 CURVE SMOOTH"
);
}
);
width = 536;
}
);
leftKerningGroup = u10549;
leftMetricsKey = "=|u1053E";
rightKerningGroup = u1053D;
unicode = 1053D;
script = "";
category = Letter;
subCategory = Other;
},
{
glyphname = u1053E;
lastChange = "2019-02-19 19:00:23 +0000";
layers = (
{
color = -1;
layerId = "013C57DE-4010-4415-A39F-4966D9E8DBC5";
paths = (
{
closed = 1;
nodes = (
"108 724 OFFCURVE",
"30 650 OFFCURVE",
"30 492 CURVE SMOOTH",
"30 445 LINE",
"119 445 LINE",
"119 490 LINE SMOOTH",
"119 605 OFFCURVE",
"163 650 OFFCURVE",
"246 650 CURVE SMOOTH",
"341 650 OFFCURVE",
"377 588 OFFCURVE",
"377 477 CURVE SMOOTH",
"377 0 LINE",
"465 0 LINE",
"465 466 LINE SMOOTH",
"465 634 OFFCURVE",
"396 724 OFFCURVE",
"247 724 CURVE SMOOTH"
);
}
);
width = 535;
}
);
rightMetricsKey = "=|u10549";
unicode = 1053E;
script = "";
category = Letter;
subCategory = Other;
},
{
glyphname = u1053F;
lastChange = "2019-02-19 19:00:23 +0000";
layers = (
{
color = -1;
layerId = "013C57DE-4010-4415-A39F-4966D9E8DBC5";
paths = (
{
closed = 1;
nodes = (
"488 0 LINE",
"488 77 LINE",
"293 77 LINE",
"293 714 LINE",
"205 714 LINE",
"205 77 LINE",
"10 77 LINE",
"10 0 LINE"
);
}
);
width = 498;
}
);
leftKerningGroup = u1053F;
rightKerningGroup = u1053F;
unicode = 1053F;
script = "";
category = Letter;
subCategory = Other;
},
{
glyphname = u10540;
lastChange = "2019-02-19 19:00:23 +0000";
layers = (
{
color = -1;
layerId = "013C57DE-4010-4415-A39F-4966D9E8DBC5";
paths = (
{
closed = 1;
nodes = (
"470 0 LINE",
"470 714 LINE",
"382 714 LINE",
"382 265 LINE",
"309 265 LINE SMOOTH",
"186 265 OFFCURVE",
"121 301 OFFCURVE",
"121 393 CURVE SMOOTH",
"121 490 OFFCURVE",
"180 527 OFFCURVE",
"296 527 CURVE SMOOTH",
"396 527 LINE",
"396 602 LINE",
"287 602 LINE SMOOTH",
"112 602 OFFCURVE",
"30 526 OFFCURVE",
"30 393 CURVE SMOOTH",
"30 280 OFFCURVE",
"99 190 OFFCURVE",
"298 190 CURVE SMOOTH",
"382 190 LINE",
"382 0 LINE"
);
}
);
width = 550;
}
);
leftMetricsKey = u10551;
rightKerningGroup = u1053A;
rightMetricsKey = "=|u10536";
unicode = 10540;
script = "";
category = Letter;
subCategory = Other;
},
{
glyphname = u10541;
lastChange = "2019-02-19 19:00:23 +0000";
layers = (
{
color = -1;
layerId = "013C57DE-4010-4415-A39F-4966D9E8DBC5";
paths = (
{
closed = 1;
nodes = (
"168 0 LINE",
"168 452 LINE",
"346 452 LINE",
"346 257 LINE",
"434 257 LINE",
"434 529 LINE",
"168 529 LINE",
"168 714 LINE",
"80 714 LINE",
"80 0 LINE"
);
}
);
width = 464;
}
);
leftKerningGroup = u10536;
leftMetricsKey = u10536;
unicode = 10541;
script = "";
category = Letter;
subCategory = Other;
},
{
glyphname = u10542;
lastChange = "2019-02-19 19:00:23 +0000";
layers = (
{
color = -1;
layerId = "013C57DE-4010-4415-A39F-4966D9E8DBC5";
paths = (
{
closed = 1;
nodes = (
"539 -55 OFFCURVE",
"590 1 OFFCURVE",
"590 92 CURVE SMOOTH",
"590 160 LINE",
"508 160 LINE",
"508 99 LINE SMOOTH",
"508 45 OFFCURVE",
"492 20 OFFCURVE",
"441 20 CURVE SMOOTH",
"391 20 OFFCURVE",
"375 45 OFFCURVE",
"375 98 CURVE SMOOTH",
"375 160 LINE",
"293 135 LINE",
"293 86 LINE SMOOTH",
"293 -5 OFFCURVE",
"343 -55 OFFCURVE",
"441 -55 CURVE SMOOTH"
);
},
{
closed = 1;
nodes = (
"375 82 LINE",
"375 160 LINE",
"79 70 LINE",
"79 -5 LINE"
);
},
{
closed = 1;
nodes = (
"342 308 LINE SMOOTH",
"417 398 OFFCURVE",
"471 466 OFFCURVE",
"471 551 CURVE SMOOTH",
"471 651 OFFCURVE",
"396 724 OFFCURVE",
"270 724 CURVE SMOOTH",
"138 724 OFFCURVE",
"54 645 OFFCURVE",
"54 532 CURVE SMOOTH",
"54 411 OFFCURVE",
"150 351 OFFCURVE",
"274 319 CURVE",
"318 376 LINE",
"218 399 OFFCURVE",
"141 449 OFFCURVE",
"141 535 CURVE SMOOTH",
"141 602 OFFCURVE",
"188 653 OFFCURVE",
"267 653 CURVE SMOOTH",
"347 653 OFFCURVE",
"382 599 OFFCURVE",
"382 544 CURVE SMOOTH",
"382 475 OFFCURVE",
"323 404 OFFCURVE",
"273 345 CURVE SMOOTH",
"21 48 LINE",
"79 -5 LINE"
);
}
);
width = 600;
}
);
leftKerningGroup = u10530;
unicode = 10542;
script = "";
category = Letter;
subCategory = Other;
},
{
glyphname = u10543;
lastChange = "2019-02-19 19:00:23 +0000";
layers = (
{
color = -1;
layerId = "013C57DE-4010-4415-A39F-4966D9E8DBC5";
paths = (
{
closed = 1;
nodes = (
"449 0 LINE",
"449 77 LINE",
"168 77 LINE",
"168 340 LINE SMOOTH",
"168 427 OFFCURVE",
"213 480 OFFCURVE",
"284 480 CURVE SMOOTH",
"353 480 OFFCURVE",
"392 428 OFFCURVE",
"392 361 CURVE SMOOTH",
"392 330 OFFCURVE",
"382 291 OFFCURVE",
"365 260 CURVE",
"444 235 LINE",
"468 275 OFFCURVE",
"481 321 OFFCURVE",
"481 364 CURVE SMOOTH",
"481 466 OFFCURVE",
"421 558 OFFCURVE",
"311 558 CURVE SMOOTH",
"257 558 OFFCURVE",
"204 538 OFFCURVE",
"169 481 CURVE",
"164 481 LINE",
"167 513 OFFCURVE",
"168 543 OFFCURVE",
"168 562 CURVE SMOOTH",
"168 714 LINE",
"80 714 LINE",
"80 0 LINE"
);
}
);
width = 501;
}
);
leftKerningGroup = u10536;
leftMetricsKey = u10536;
unicode = 10543;
script = "";
category = Letter;
subCategory = Other;
},
{
glyphname = u10544;
lastChange = "2019-02-19 19:00:23 +0000";
layers = (
{
color = -1;
layerId = "013C57DE-4010-4415-A39F-4966D9E8DBC5";
paths = (
{
closed = 1;
nodes = (
"508 0 LINE",
"508 77 LINE",
"310 77 LINE SMOOTH",
"257 77 OFFCURVE",
"209 77 OFFCURVE",
"159 76 CURVE",
"374 374 LINE",
"168 639 LINE",
"195 638 OFFCURVE",
"255 637 OFFCURVE",
"284 637 CURVE SMOOTH",
"479 637 LINE",
"479 714 LINE",
"66 714 LINE",
"66 639 LINE",
"274 373 LINE",
"60 74 LINE",
"60 0 LINE"
);
}
);
width = 518;
}
);
rightKerningGroup = u10536;
rightMetricsKey = u1053F;
unicode = 10544;
script = "";
category = Letter;
subCategory = Other;
},
{
glyphname = u10545;
lastChange = "2019-02-19 19:00:23 +0000";
layers = (
{
color = -1;
layerId = "013C57DE-4010-4415-A39F-4966D9E8DBC5";
paths = (
{
closed = 1;
nodes = (
"97 445 LINE",
"97 594 OFFCURVE",
"177 637 OFFCURVE",
"267 637 CURVE SMOOTH",
"526 637 LINE",
"526 714 LINE",
"277 714 LINE SMOOTH",
"111 714 OFFCURVE",
"10 627 OFFCURVE",
"10 445 CURVE"
);
},
{
closed = 1;
nodes = (
"334 0 LINE",
"334 678 LINE",
"246 678 LINE",
"246 0 LINE"
);
}
);
width = 536;
}
);
leftKerningGroup = u10560;
leftMetricsKey = u1053F;
rightKerningGroup = u10545;
rightMetricsKey = u1053F;
unicode = 10545;
script = "";
category = Letter;
subCategory = Other;
},
{
glyphname = u10546;
lastChange = "2019-02-19 19:00:23 +0000";
layers = (
{
color = -1;
layerId = "013C57DE-4010-4415-A39F-4966D9E8DBC5";
paths = (
{
closed = 1;
nodes = (
"324 207 LINE",
"246 714 LINE",
"159 714 LINE",
"232 240 LINE",
"14 58 LINE",
"67 -5 LINE"
);
}
);
width = 359;
}
);
unicode = 10546;
script = "";
category = Letter;
subCategory = Other;
},
{
glyphname = u10547;
lastChange = "2019-02-19 19:00:23 +0000";
layers = (
{
color = -1;
layerId = "013C57DE-4010-4415-A39F-4966D9E8DBC5";
paths = (
{
closed = 1;
nodes = (
"293 0 LINE",
"293 714 LINE",
"205 714 LINE",
"205 410 LINE",
"10 410 LINE",
"10 333 LINE",
"205 333 LINE",
"205 0 LINE"
);
}
);
width = 373;
}
);
leftMetricsKey = u1053F;
rightKerningGroup = u1053A;
rightMetricsKey = "=|u10536";
unicode = 10547;
script = "";
category = Letter;
subCategory = Other;
},
{
glyphname = u10548;
lastChange = "2019-02-19 19:00:23 +0000";
layers = (
{
color = -1;
layerId = "013C57DE-4010-4415-A39F-4966D9E8DBC5";
paths = (
{
closed = 1;
nodes = (
"247 637 LINE",
"247 714 LINE",
"10 714 LINE",
"10 637 LINE"
);
},
{
closed = 1;
nodes = (
"535 -10 OFFCURVE",
"621 72 OFFCURVE",
"621 244 CURVE SMOOTH",
"621 714 LINE",
"533 714 LINE",
"533 267 LINE SMOOTH",
"533 119 OFFCURVE",
"482 64 OFFCURVE",
"391 64 CURVE SMOOTH",
"299 64 OFFCURVE",
"248 117 OFFCURVE",
"248 267 CURVE SMOOTH",
"248 714 LINE",
"160 714 LINE",
"160 244 LINE SMOOTH",
"160 71 OFFCURVE",
"242 -10 OFFCURVE",
"388 -10 CURVE SMOOTH"
);
}
);
width = 691;
}
);
leftKerningGroup = u10548;
leftMetricsKey = u1053F;
rightKerningGroup = u10548;
rightMetricsKey = u1053E;
unicode = 10548;
script = "";
category = Letter;
subCategory = Other;
},
{
glyphname = u10549;
lastChange = "2019-02-19 19:00:23 +0000";
layers = (
{
color = -1;
layerId = "013C57DE-4010-4415-A39F-4966D9E8DBC5";
paths = (
{
closed = 1;
nodes = (
"681 332 LINE",
"681 409 LINE",
"444 409 LINE",
"444 332 LINE"
);
},
{
closed = 1;
nodes = (
"445 -10 OFFCURVE",
"531 72 OFFCURVE",
"531 244 CURVE SMOOTH",
"531 714 LINE",
"443 714 LINE",
"443 267 LINE SMOOTH",
"443 119 OFFCURVE",
"392 64 OFFCURVE",
"301 64 CURVE SMOOTH",
"209 64 OFFCURVE",
"158 117 OFFCURVE",
"158 267 CURVE SMOOTH",
"158 714 LINE",
"70 714 LINE",
"70 244 LINE SMOOTH",
"70 71 OFFCURVE",
"152 -10 OFFCURVE",
"298 -10 CURVE SMOOTH"
);
}
);
width = 691;
}
);
leftKerningGroup = u10549;
rightKerningGroup = u10534;
rightMetricsKey = u1053F;
unicode = 10549;
script = "";
category = Letter;
subCategory = Other;
},
{
glyphname = u1054A;
lastChange = "2019-02-19 19:00:23 +0000";
layers = (
{
color = -1;
layerId = "013C57DE-4010-4415-A39F-4966D9E8DBC5";
paths = (
{
closed = 1;
nodes = (
"423 -10 OFFCURVE",
"490 91 OFFCURVE",
"490 252 CURVE SMOOTH",
"490 714 LINE",
"402 714 LINE",
"402 242 LINE SMOOTH",
"402 124 OFFCURVE",
"363 60 OFFCURVE",
"254 60 CURVE SMOOTH",
"187 60 OFFCURVE",
"137 84 OFFCURVE",
"137 145 CURVE SMOOTH",
"137 218 OFFCURVE",
"192 228 OFFCURVE",
"277 228 CURVE SMOOTH",
"619 228 LINE",
"619 300 LINE",
"284 300 LINE SMOOTH",
"157 300 OFFCURVE",
"50 273 OFFCURVE",
"50 143 CURVE SMOOTH",
"50 37 OFFCURVE",
"133 -10 OFFCURVE",
"249 -10 CURVE SMOOTH"
);
},
{
closed = 1;
nodes = (
"423 387 LINE",
"423 458 LINE",
"304 458 LINE SMOOTH",
"218 458 OFFCURVE",
"165 480 OFFCURVE",
"165 554 CURVE SMOOTH",
"165 629 OFFCURVE",
"220 644 OFFCURVE",
"310 644 CURVE SMOOTH",
"416 644 LINE",
"416 714 LINE",
"293 714 LINE SMOOTH",
"155 714 OFFCURVE",
"75 663 OFFCURVE",
"75 551 CURVE SMOOTH",
"75 444 OFFCURVE",
"142 387 OFFCURVE",
"297 387 CURVE SMOOTH"
);
}
);
width = 629;
}
);
rightMetricsKey = u1053F;
unicode = 1054A;
script = "";
category = Letter;
subCategory = Other;
},
{
glyphname = u1054B;
lastChange = "2019-02-19 19:00:23 +0000";
layers = (
{
color = -1;
layerId = "013C57DE-4010-4415-A39F-4966D9E8DBC5";
paths = (
{
closed = 1;
nodes = (
"427 -10 OFFCURVE",
"493 81 OFFCURVE",
"493 190 CURVE SMOOTH",
"493 253 OFFCURVE",
"471 295 OFFCURVE",
"436 330 CURVE",
"370 287 LINE",
"392 259 OFFCURVE",
"406 230 OFFCURVE",
"406 188 CURVE SMOOTH",
"406 114 OFFCURVE",
"361 61 OFFCURVE",
"268 61 CURVE SMOOTH",
"191 61 OFFCURVE",
"129 98 OFFCURVE",
"129 181 CURVE SMOOTH",
"129 252 OFFCURVE",
"174 295 OFFCURVE",
"234 346 CURVE SMOOTH",
"427 509 LINE",
"398 577 LINE",
"185 577 LINE SMOOTH",
"148 577 OFFCURVE",
"122 585 OFFCURVE",
"122 621 CURVE SMOOTH",
"122 651 OFFCURVE",
"145 664 OFFCURVE",
"184 675 CURVE",
"158 737 LINE",
"85 719 OFFCURVE",
"40 676 OFFCURVE",
"40 618 CURVE SMOOTH",
"40 539 OFFCURVE",
"98 507 OFFCURVE",
"191 507 CURVE SMOOTH",
"366 507 LINE",
"357 535 LINE",
"188 404 LINE SMOOTH",
"113 346 OFFCURVE",
"43 281 OFFCURVE",
"43 175 CURVE SMOOTH",
"43 58 OFFCURVE",
"129 -10 OFFCURVE",
"267 -10 CURVE SMOOTH"
);
}
);
width = 523;
}
);
unicode = 1054B;
script = "";
category = Letter;
subCategory = Other;
},
{
glyphname = u1054C;
lastChange = "2019-02-19 19:00:23 +0000";
layers = (
{
color = -1;
layerId = "013C57DE-4010-4415-A39F-4966D9E8DBC5";
paths = (
{
closed = 1;
nodes = (
"601 0 LINE",
"601 77 LINE",
"88 77 LINE",
"88 0 LINE"
);
},
{
closed = 1;
nodes = (
"462 0 LINE",
"462 714 LINE",
"374 714 LINE",
"374 379 LINE",
"291 379 LINE SMOOTH",
"187 379 OFFCURVE",
"121 414 OFFCURVE",
"121 507 CURVE SMOOTH",
"121 595 OFFCURVE",
"181 637 OFFCURVE",
"291 637 CURVE SMOOTH",
"394 637 LINE",
"394 714 LINE",
"270 714 LINE SMOOTH",
"114 714 OFFCURVE",
"30 633 OFFCURVE",
"30 504 CURVE SMOOTH",
"30 360 OFFCURVE",
"135 302 OFFCURVE",
"280 302 CURVE SMOOTH",
"374 302 LINE",
"374 0 LINE"
);
}
);
width = 611;
}
);
leftMetricsKey = u10551;
rightKerningGroup = u1054C;
rightMetricsKey = u1053F;
unicode = 1054C;
script = "";
category = Letter;
subCategory = Other;
},
{
glyphname = u1054D;
lastChange = "2019-02-19 19:00:23 +0000";
layers = (
{
color = -1;
layerId = "013C57DE-4010-4415-A39F-4966D9E8DBC5";
paths = (
{
closed = 1;
nodes = (
"115 0 LINE",
"115 162 OFFCURVE",
"166 213 OFFCURVE",
"306 328 CURVE SMOOTH",
"416 418 OFFCURVE",
"468 463 OFFCURVE",
"468 548 CURVE SMOOTH",
"468 645 OFFCURVE",
"399 724 OFFCURVE",
"274 724 CURVE SMOOTH",
"151 724 OFFCURVE",
"71 649 OFFCURVE",
"71 538 CURVE SMOOTH",
"71 431 OFFCURVE",
"147 370 OFFCURVE",
"248 340 CURVE",
"309 389 LINE",
"217 408 OFFCURVE",
"158 459 OFFCURVE",
"158 540 CURVE SMOOTH",
"158 608 OFFCURVE",
"199 653 OFFCURVE",
"270 653 CURVE SMOOTH",
"340 653 OFFCURVE",
"379 610 OFFCURVE",
"379 545 CURVE SMOOTH",
"379 476 OFFCURVE",
"326 432 OFFCURVE",
"261 385 CURVE SMOOTH",
"80 253 OFFCURVE",
"30 169 OFFCURVE",
"30 0 CURVE"
);
},
{
closed = 1;
nodes = (
"468 0 LINE",
"468 77 LINE",
"51 77 LINE",
"51 0 LINE"
);
}
);
width = 498;
}
);
leftKerningGroup = u10530;
unicode = 1054D;
script = "";
category = Letter;
subCategory = Other;
},
{
glyphname = u1054E;
lastChange = "2019-02-19 19:00:23 +0000";
layers = (
{
color = -1;
layerId = "013C57DE-4010-4415-A39F-4966D9E8DBC5";
paths = (
{
closed = 1;
nodes = (
"540 1 LINE",
"540 715 LINE",
"452 715 LINE",
"452 580 LINE SMOOTH",
"452 476 OFFCURVE",
"408 417 OFFCURVE",
"324 417 CURVE SMOOTH",
"246 417 OFFCURVE",
"214 471 OFFCURVE",
"214 541 CURVE SMOOTH",
"214 602 OFFCURVE",
"233 667 OFFCURVE",
"271 714 CURVE",
"10 714 LINE",
"10 637 LINE",
"162 637 LINE",
"168 682 LINE",
"139 641 OFFCURVE",
"125 597 OFFCURVE",
"125 532 CURVE SMOOTH",
"125 422 OFFCURVE",
"183 341 OFFCURVE",
"300 341 CURVE SMOOTH",
"357 341 OFFCURVE",
"413 359 OFFCURVE",
"451 411 CURVE",
"457 411 LINE",
"453 368 OFFCURVE",
"452 355 OFFCURVE",
"452 335 CURVE SMOOTH",
"452 1 LINE"
);
}
);
width = 620;
}
);
leftMetricsKey = u1053F;
rightKerningGroup = u1053A;
rightMetricsKey = "=|u10536";
unicode = 1054E;
script = "";
category = Letter;
subCategory = Other;
},
{
glyphname = u1054F;
lastChange = "2019-02-19 19:00:23 +0000";
layers = (
{
color = -1;
layerId = "013C57DE-4010-4415-A39F-4966D9E8DBC5";
paths = (
{
closed = 1;
nodes = (
"403 -10 OFFCURVE",
"472 78 OFFCURVE",
"472 263 CURVE SMOOTH",
"472 714 LINE",
"384 714 LINE",
"384 256 LINE SMOOTH",
"384 123 OFFCURVE",
"343 64 OFFCURVE",
"251 64 CURVE SMOOTH",
"160 64 OFFCURVE",
"119 129 OFFCURVE",
"119 273 CURVE SMOOTH",
"119 354 LINE",
"30 354 LINE",
"30 266 LINE SMOOTH",
"30 84 OFFCURVE",
"97 -10 OFFCURVE",
"253 -10 CURVE SMOOTH"
);
},
{
closed = 1;
nodes = (
"621 333 LINE",
"621 410 LINE",
"384 410 LINE",
"384 333 LINE"
);
}
);
width = 631;
}
);
leftMetricsKey = u1053E;
rightKerningGroup = u10534;
rightMetricsKey = u1053F;
unicode = 1054F;
script = "";
category = Letter;
subCategory = Other;
},
{
glyphname = u10550;
lastChange = "2019-02-19 19:00:23 +0000";
layers = (
{
color = -1;
layerId = "013C57DE-4010-4415-A39F-4966D9E8DBC5";
paths = (
{
closed = 1;
nodes = (
"392 -10 OFFCURVE",
"463 78 OFFCURVE",
"463 242 CURVE SMOOTH",
"463 714 LINE",
"375 714 LINE",
"375 261 LINE SMOOTH",
"375 132 OFFCURVE",
"341 64 OFFCURVE",
"246 64 CURVE SMOOTH",
"171 64 OFFCURVE",
"118 107 OFFCURVE",
"118 198 CURVE SMOOTH",
"118 301 OFFCURVE",
"185 332 OFFCURVE",
"297 332 CURVE SMOOTH",
"612 332 LINE",
"612 409 LINE",
"287 409 LINE SMOOTH",
"130 409 OFFCURVE",
"30 348 OFFCURVE",
"30 198 CURVE SMOOTH",
"30 66 OFFCURVE",
"107 -10 OFFCURVE",
"244 -10 CURVE SMOOTH"
);
},
{
closed = 1;
nodes = (
"386 637 LINE",
"386 714 LINE",
"76 714 LINE",
"76 637 LINE"
);
}
);
width = 622;
}
);
leftKerningGroup = u10550;
leftMetricsKey = u1053E;
rightKerningGroup = u10534;
rightMetricsKey = u1053F;
unicode = 10550;
script = "";
category = Letter;
subCategory = Other;
},
{
glyphname = u10551;
lastChange = "2019-02-19 19:00:23 +0000";
layers = (
{
color = -1;
layerId = "013C57DE-4010-4415-A39F-4966D9E8DBC5";
paths = (
{
closed = 1;
nodes = (
"601 0 LINE",
"601 77 LINE",
"374 77 LINE",
"374 0 LINE"
);
},
{
closed = 1;
nodes = (
"462 0 LINE",
"462 714 LINE",
"374 714 LINE",
"374 379 LINE",
"291 379 LINE SMOOTH",
"187 379 OFFCURVE",
"121 414 OFFCURVE",
"121 507 CURVE SMOOTH",
"121 595 OFFCURVE",
"181 637 OFFCURVE",
"291 637 CURVE SMOOTH",
"394 637 LINE",
"394 714 LINE",
"270 714 LINE SMOOTH",
"114 714 OFFCURVE",
"30 633 OFFCURVE",
"30 504 CURVE SMOOTH",
"30 360 OFFCURVE",
"135 302 OFFCURVE",
"280 302 CURVE SMOOTH",
"374 302 LINE",
"374 0 LINE"
);
}
);
width = 611;
}
);
leftKerningGroup = u10551;
rightKerningGroup = u1054C;
rightMetricsKey = u1053F;
unicode = 10551;
script = "";
category = Letter;
subCategory = Other;
},
{
glyphname = u10552;
lastChange = "2019-02-19 19:00:23 +0000";
layers = (
{
color = -1;
layerId = "013C57DE-4010-4415-A39F-4966D9E8DBC5";
paths = (
{
closed = 1;
nodes = (
"511 -10 OFFCURVE",
"600 143 OFFCURVE",
"600 361 CURVE SMOOTH",
"600 587 OFFCURVE",
"508 724 OFFCURVE",
"328 724 CURVE SMOOTH",
"143 724 OFFCURVE",
"50 576 OFFCURVE",
"50 359 CURVE SMOOTH",
"50 140 OFFCURVE",
"139 -10 OFFCURVE",
"325 -10 CURVE SMOOTH"
);
},
{
closed = 1;
nodes = (
"200 64 OFFCURVE",
"143 182 OFFCURVE",
"143 358 CURVE SMOOTH",
"143 532 OFFCURVE",
"201 650 OFFCURVE",
"329 650 CURVE SMOOTH",
"448 650 OFFCURVE",
"508 542 OFFCURVE",
"508 358 CURVE SMOOTH",
"508 181 OFFCURVE",
"452 64 OFFCURVE",
"326 64 CURVE SMOOTH"
);
},
{
closed = 1;
nodes = (
"745 333 LINE",
"745 410 LINE",
"508 410 LINE",
"508 333 LINE"
);
}
);
width = 755;
}
);
leftKerningGroup = u10552;
rightMetricsKey = u1053F;
unicode = 10552;
script = "";
category = Letter;
subCategory = Other;
},
{
glyphname = u10553;
lastChange = "2019-02-19 19:00:23 +0000";
layers = (
{
color = -1;
layerId = "013C57DE-4010-4415-A39F-4966D9E8DBC5";
paths = (
{
closed = 1;
nodes = (
"490 0 LINE",
"490 77 LINE",
"137 77 LINE",
"480 646 LINE",
"480 714 LINE",
"47 714 LINE",
"47 637 LINE",
"379 637 LINE",
"35 68 LINE",
"35 0 LINE"
);
}
);
width = 525;
}
);
unicode = 10553;
script = "";
category = Letter;
subCategory = Other;
},
{
glyphname = u10554;
lastChange = "2019-02-19 19:00:23 +0000";
layers = (
{
color = -1;
layerId = "013C57DE-4010-4415-A39F-4966D9E8DBC5";
paths = (
{
closed = 1;
nodes = (
"614 637 LINE",
"614 714 LINE",
"198 714 LINE",
"198 637 LINE"
);
},
{
closed = 1;
nodes = (
"396 -10 OFFCURVE",
"465 80 OFFCURVE",
"465 248 CURVE SMOOTH",
"465 714 LINE",
"377 714 LINE",
"377 237 LINE SMOOTH",
"377 126 OFFCURVE",
"341 64 OFFCURVE",
"246 64 CURVE SMOOTH",
"163 64 OFFCURVE",
"119 109 OFFCURVE",
"119 224 CURVE SMOOTH",
"119 269 LINE",
"30 269 LINE",
"30 222 LINE SMOOTH",
"30 64 OFFCURVE",
"108 -10 OFFCURVE",
"247 -10 CURVE SMOOTH"
);
}
);
width = 624;
}
);
leftMetricsKey = u1053E;
rightKerningGroup = u10545;
rightMetricsKey = u1053F;
unicode = 10554;
script = "";
category = Letter;
subCategory = Other;
},
{
glyphname = u10555;
lastChange = "2019-02-19 19:00:23 +0000";
layers = (
{
color = -1;
layerId = "013C57DE-4010-4415-A39F-4966D9E8DBC5";
paths = (
{
closed = 1;
nodes = (
"291 313 LINE SMOOTH",
"362 410 OFFCURVE",
"486 578 OFFCURVE",
"590 650 CURVE",
"538 714 LINE",
"410 620 OFFCURVE",
"263 420 OFFCURVE",
"208 343 CURVE SMOOTH",
"-5 48 LINE",
"59 -5 LINE"
);
},
{
closed = 1;
nodes = (
"519 -55 OFFCURVE",
"570 1 OFFCURVE",
"570 92 CURVE SMOOTH",
"570 160 LINE",
"488 160 LINE",
"488 99 LINE SMOOTH",
"488 45 OFFCURVE",
"472 20 OFFCURVE",
"421 20 CURVE SMOOTH",
"371 20 OFFCURVE",
"355 45 OFFCURVE",
"355 98 CURVE SMOOTH",
"355 160 LINE",
"273 135 LINE",
"273 86 LINE SMOOTH",
"273 -5 OFFCURVE",
"323 -55 OFFCURVE",
"421 -55 CURVE SMOOTH"
);
},
{
closed = 1;
nodes = (
"355 82 LINE",
"355 160 LINE",
"59 70 LINE",
"59 -5 LINE"
);
}
);
width = 600;
}
);
rightMetricsKey = u1053F;
unicode = 10555;
script = "";
category = Letter;
subCategory = Other;
},
{
glyphname = u10556;
lastChange = "2019-02-19 19:00:23 +0000";
layers = (
{
color = -1;
layerId = "013C57DE-4010-4415-A39F-4966D9E8DBC5";
paths = (
{
closed = 1;
nodes = (
"421 -10 OFFCURVE",
"513 73 OFFCURVE",
"513 212 CURVE SMOOTH",
"513 334 OFFCURVE",
"448 400 OFFCURVE",
"365 466 CURVE SMOOTH",
"302 516 OFFCURVE",
"280 534 OFFCURVE",
"280 681 CURVE SMOOTH",
"280 714 LINE",
"193 714 LINE",
"193 686 LINE SMOOTH",
"193 497 OFFCURVE",
"246 452 OFFCURVE",
"322 398 CURVE SMOOTH",
"376 360 OFFCURVE",
"424 306 OFFCURVE",
"424 211 CURVE SMOOTH",
"424 124 OFFCURVE",
"378 64 OFFCURVE",
"272 64 CURVE SMOOTH",
"215 64 OFFCURVE",
"168 90 OFFCURVE",
"134 125 CURVE",
"85 59 LINE",
"128 21 OFFCURVE",
"186 -10 OFFCURVE",
"277 -10 CURVE SMOOTH"
);
},
{
closed = 1;
nodes = (
"416 637 LINE",
"416 714 LINE",
"10 714 LINE",
"10 637 LINE"
);
}
);
width = 543;
}
);
leftMetricsKey = u1053F;
unicode = 10556;
script = "";
category = Letter;
subCategory = Other;
},
{
glyphname = u10557;
lastChange = "2019-02-19 19:00:23 +0000";
layers = (
{
color = -1;
layerId = "013C57DE-4010-4415-A39F-4966D9E8DBC5";
paths = (
{
closed = 1;
nodes = (
"658 302 LINE",
"658 379 LINE",
"409 379 LINE",
"409 302 LINE"
);
},
{
closed = 1;
nodes = (
"658 179 LINE",
"658 379 LINE",
"579 379 LINE",
"579 179 LINE"
);
},
{
closed = 1;
nodes = (
"462 0 LINE",
"462 714 LINE",
"374 714 LINE",
"374 379 LINE",
"291 379 LINE SMOOTH",
"187 379 OFFCURVE",
"121 414 OFFCURVE",
"121 507 CURVE SMOOTH",
"121 595 OFFCURVE",
"181 637 OFFCURVE",
"291 637 CURVE SMOOTH",
"394 637 LINE",
"394 714 LINE",
"270 714 LINE SMOOTH",
"114 714 OFFCURVE",
"30 633 OFFCURVE",
"30 504 CURVE SMOOTH",
"30 360 OFFCURVE",
"135 302 OFFCURVE",
"280 302 CURVE SMOOTH",
"374 302 LINE",
"374 0 LINE"
);
}
);
width = 668;
}
);
leftKerningGroup = u10551;
leftMetricsKey = u10551;
rightMetricsKey = u1053F;
unicode = 10557;
script = "";
category = Letter;
subCategory = Other;
},
{
glyphname = u10558;
lastChange = "2019-02-19 19:00:23 +0000";
layers = (
{
color = -1;
layerId = "013C57DE-4010-4415-A39F-4966D9E8DBC5";
paths = (
{
closed = 1;
nodes = (
"481 637 LINE",
"481 714 LINE",
"115 714 LINE",
"115 637 LINE"
);
},
{
closed = 1;
nodes = (
"395 -10 OFFCURVE",
"482 75 OFFCURVE",
"482 212 CURVE SMOOTH",
"482 363 OFFCURVE",
"377 433 OFFCURVE",
"292 489 CURVE SMOOTH",
"197 552 OFFCURVE",
"175 576 OFFCURVE",
"162 714 CURVE",
"75 714 LINE",
"86 528 OFFCURVE",
"148 486 OFFCURVE",
"249 421 CURVE SMOOTH",
"332 368 OFFCURVE",
"393 325 OFFCURVE",
"393 216 CURVE SMOOTH",
"393 121 OFFCURVE",
"351 64 OFFCURVE",
"254 64 CURVE SMOOTH",
"150 64 OFFCURVE",
"119 130 OFFCURVE",
"119 205 CURVE SMOOTH",
"119 240 OFFCURVE",
"126 282 OFFCURVE",
"141 313 CURVE",
"66 347 LINE",
"42 302 OFFCURVE",
"30 246 OFFCURVE",
"30 199 CURVE SMOOTH",
"30 89 OFFCURVE",
"95 -10 OFFCURVE",
"251 -10 CURVE SMOOTH"
);
}
);
width = 522;
}
);
leftKerningGroup = u10550;
leftMetricsKey = u1053E;
unicode = 10558;
script = "";
category = Letter;
subCategory = Other;
},
{
glyphname = u10559;
lastChange = "2019-02-19 19:00:23 +0000";
layers = (
{
color = -1;
layerId = "013C57DE-4010-4415-A39F-4966D9E8DBC5";
paths = (
{
closed = 1;
nodes = (
"340 -10 OFFCURVE",
"400 37 OFFCURVE",
"421 123 CURVE",
"401 123 LINE",
"422 37 OFFCURVE",
"477 -10 OFFCURVE",
"582 -10 CURVE SMOOTH",
"717 -10 OFFCURVE",
"792 64 OFFCURVE",
"792 223 CURVE SMOOTH",
"792 269 LINE",
"704 269 LINE",
"704 236 LINE SMOOTH",
"704 109 OFFCURVE",
"661 64 OFFCURVE",
"583 64 CURVE SMOOTH",
"490 64 OFFCURVE",
"455 126 OFFCURVE",
"455 237 CURVE SMOOTH",
"455 714 LINE",
"367 714 LINE",
"367 237 LINE SMOOTH",
"367 126 OFFCURVE",
"332 64 OFFCURVE",
"239 64 CURVE SMOOTH",
"161 64 OFFCURVE",
"118 109 OFFCURVE",
"118 232 CURVE SMOOTH",
"118 269 LINE",
"30 269 LINE",
"30 217 LINE SMOOTH",
"30 64 OFFCURVE",
"105 -10 OFFCURVE",
"240 -10 CURVE SMOOTH"
);
}
);
width = 822;
}
);
leftKerningGroup = u10559;
leftMetricsKey = u1053E;
rightKerningGroup = u10559;
rightMetricsKey = "=|u1053E";
unicode = 10559;
script = "";
category = Letter;
subCategory = Other;
},
{
glyphname = u1055A;
lastChange = "2019-02-19 19:00:23 +0000";
layers = (
{
color = -1;
layerId = "013C57DE-4010-4415-A39F-4966D9E8DBC5";
paths = (
{
closed = 1;
nodes = (
"247 0 LINE",
"247 214 LINE SMOOTH",
"247 307 OFFCURVE",
"283 398 OFFCURVE",
"377 398 CURVE SMOOTH",
"445 398 OFFCURVE",
"478 351 OFFCURVE",
"478 244 CURVE SMOOTH",
"478 0 LINE",
"566 0 LINE",
"566 262 LINE SMOOTH",
"566 414 OFFCURVE",
"499 473 OFFCURVE",
"402 473 CURVE SMOOTH",
"333 473 OFFCURVE",
"283 447 OFFCURVE",
"248 386 CURVE",
"243 386 LINE",
"246 435 OFFCURVE",
"247 465 OFFCURVE",
"247 496 CURVE SMOOTH",
"247 714 LINE",
"159 714 LINE",
"159 0 LINE"
);
},
{
closed = 1;
nodes = (
"247 637 LINE",
"247 714 LINE",
"10 714 LINE",
"10 637 LINE"
);
}
);
width = 607;
}
);
leftKerningGroup = u10561;
leftMetricsKey = u1053F;
unicode = 1055A;
script = "";
category = Letter;
subCategory = Other;
},
{
glyphname = u1055B;
lastChange = "2019-02-19 19:00:23 +0000";
layers = (
{
color = -1;
layerId = "013C57DE-4010-4415-A39F-4966D9E8DBC5";
paths = (
{
closed = 1;
nodes = (
"168 0 LINE",
"168 714 LINE",
"80 714 LINE",
"80 0 LINE"
);
},
{
closed = 1;
nodes = (
"540 173 OFFCURVE",
"591 229 OFFCURVE",
"591 320 CURVE SMOOTH",
"591 388 LINE",
"509 388 LINE",
"509 327 LINE SMOOTH",
"509 273 OFFCURVE",
"493 248 OFFCURVE",
"442 248 CURVE SMOOTH",
"392 248 OFFCURVE",
"376 273 OFFCURVE",
"376 326 CURVE SMOOTH",
"376 388 LINE",
"294 363 LINE",
"294 314 LINE SMOOTH",
"294 223 OFFCURVE",
"344 173 OFFCURVE",
"442 173 CURVE SMOOTH"
);
},
{
closed = 1;
nodes = (
"376 310 LINE",
"376 388 LINE",
"80 298 LINE",
"80 223 LINE"
);
}
);
width = 601;
}
);
leftKerningGroup = u10536;
leftMetricsKey = u10536;
rightMetricsKey = u1053F;
unicode = 1055B;
script = "";
category = Letter;
subCategory = Other;
},
{
glyphname = u1055C;
lastChange = "2019-02-19 19:00:23 +0000";
layers = (
{
color = -1;
layerId = "013C57DE-4010-4415-A39F-4966D9E8DBC5";
paths = (
{
closed = 1;
nodes = (
"589 -10 OFFCURVE",
"667 68 OFFCURVE",
"667 201 CURVE SMOOTH",
"667 351 OFFCURVE",
"568 409 OFFCURVE",
"442 409 CURVE SMOOTH",
"212 409 OFFCURVE",
"96 214 OFFCURVE",
"10 30 CURVE",
"81 -5 LINE",
"164 173 OFFCURVE",
"258 332 OFFCURVE",
"432 332 CURVE SMOOTH",
"513 332 OFFCURVE",
"579 297 OFFCURVE",
"579 198 CURVE SMOOTH",
"579 108 OFFCURVE",
"526 64 OFFCURVE",
"455 64 CURVE SMOOTH",
"353 64 OFFCURVE",
"322 153 OFFCURVE",
"322 267 CURVE SMOOTH",
"322 714 LINE",
"234 714 LINE",
"234 242 LINE SMOOTH",
"234 78 OFFCURVE",
"310 -10 OFFCURVE",
"454 -10 CURVE SMOOTH"
);
},
{
closed = 1;
nodes = (
"322 637 LINE",
"322 714 LINE",
"22 714 LINE",
"22 637 LINE"
);
}
);
width = 687;
}
);
leftMetricsKey = u1053F;
rightKerningGroup = u1053D;
unicode = 1055C;
script = "";
category = Letter;
subCategory = Other;
},
{
glyphname = u1055D;
lastChange = "2019-02-19 19:00:23 +0000";
layers = (
{
color = -1;
layerId = "013C57DE-4010-4415-A39F-4966D9E8DBC5";
paths = (
{
closed = 1;
nodes = (
"425 -10 OFFCURVE",
"503 75 OFFCURVE",
"503 181 CURVE SMOOTH",
"503 299 OFFCURVE",
"405 364 OFFCURVE",
"237 364 CURVE SMOOTH",
"220 364 LINE",
"161 312 LINE",
"176 312 LINE SMOOTH",
"337 312 OFFCURVE",
"414 260 OFFCURVE",
"414 180 CURVE SMOOTH",
"414 111 OFFCURVE",
"357 64 OFFCURVE",
"266 64 CURVE SMOOTH",
"187 64 OFFCURVE",
"119 99 OFFCURVE",
"119 186 CURVE SMOOTH",
"119 273 OFFCURVE",
"188 313 OFFCURVE",
"283 366 CURVE SMOOTH",
"392 427 OFFCURVE",
"461 472 OFFCURVE",
"461 570 CURVE SMOOTH",
"461 673 OFFCURVE",
"383 724 OFFCURVE",
"276 724 CURVE SMOOTH",
"149 724 OFFCURVE",
"88 652 OFFCURVE",
"88 572 CURVE SMOOTH",
"88 472 OFFCURVE",
"185 433 OFFCURVE",
"283 420 CURVE",
"339 471 LINE",
"245 476 OFFCURVE",
"175 506 OFFCURVE",
"175 574 CURVE SMOOTH",
"175 622 OFFCURVE",
"210 653 OFFCURVE",
"275 653 CURVE SMOOTH",
"337 653 OFFCURVE",
"373 625 OFFCURVE",
"373 569 CURVE SMOOTH",
"373 497 OFFCURVE",
"304 456 OFFCURVE",
"226 413 CURVE SMOOTH",
"146 369 OFFCURVE",
"30 304 OFFCURVE",
"30 174 CURVE SMOOTH",
"30 58 OFFCURVE",
"123 -10 OFFCURVE",
"266 -10 CURVE SMOOTH"
);
}
);
width = 533;
}
);
unicode = 1055D;
script = "";
category = Letter;
subCategory = Other;
},
{
glyphname = u1055E;
lastChange = "2019-02-19 19:00:23 +0000";
layers = (
{
color = -1;
layerId = "013C57DE-4010-4415-A39F-4966D9E8DBC5";
paths = (
{
closed = 1;
nodes = (
"780 333 LINE",
"780 410 LINE",
"543 410 LINE",
"543 333 LINE"
);
},
{
closed = 1;
nodes = (
"247 637 LINE",
"247 714 LINE",
"10 714 LINE",
"10 637 LINE"
);
},
{
closed = 1;
nodes = (
"535 -10 OFFCURVE",
"621 72 OFFCURVE",
"621 244 CURVE SMOOTH",
"621 714 LINE",
"533 714 LINE",
"533 267 LINE SMOOTH",
"533 119 OFFCURVE",
"482 64 OFFCURVE",
"391 64 CURVE SMOOTH",
"299 64 OFFCURVE",
"248 117 OFFCURVE",
"248 267 CURVE SMOOTH",
"248 714 LINE",
"160 714 LINE",
"160 244 LINE SMOOTH",
"160 71 OFFCURVE",
"242 -10 OFFCURVE",
"388 -10 CURVE SMOOTH"
);
}
);
width = 790;
}
);
leftKerningGroup = u10548;
leftMetricsKey = u1053F;
rightKerningGroup = u10534;
rightMetricsKey = u1053F;
unicode = 1055E;
script = "";
category = Letter;
subCategory = Other;
},
{
glyphname = u1055F;
lastChange = "2019-02-19 19:00:23 +0000";
layers = (
{
color = -1;
layerId = "013C57DE-4010-4415-A39F-4966D9E8DBC5";
paths = (
{
closed = 1;
nodes = (
"357 0 LINE",
"357 678 LINE",
"269 678 LINE",
"269 0 LINE"
);
},
{
closed = 1;
nodes = (
"616 445 LINE",
"616 613 OFFCURVE",
"553 714 OFFCURVE",
"349 714 CURVE SMOOTH",
"269 714 LINE",
"269 637 LINE",
"344 637 LINE SMOOTH",
"491 637 OFFCURVE",
"528 560 OFFCURVE",
"528 445 CURVE"
);
},
{
closed = 1;
nodes = (
"10 528 LINE",
"10 360 OFFCURVE",
"73 259 OFFCURVE",
"277 259 CURVE SMOOTH",
"357 259 LINE",
"357 336 LINE",
"282 336 LINE SMOOTH",
"135 336 OFFCURVE",
"98 413 OFFCURVE",
"98 528 CURVE"
);
}
);
width = 626;
}
);
leftMetricsKey = u1053F;
rightKerningGroup = u1055F;
rightMetricsKey = u1053F;
unicode = 1055F;
script = "";
category = Letter;
subCategory = Other;
},
{
glyphname = u10560;
lastChange = "2019-02-19 19:00:23 +0000";
layers = (
{
color = -1;
layerId = "013C57DE-4010-4415-A39F-4966D9E8DBC5";
paths = (
{
closed = 1;
nodes = (
"98 445 LINE",
"98 571 OFFCURVE",
"156 647 OFFCURVE",
"302 647 CURVE SMOOTH",
"448 647 OFFCURVE",
"509 575 OFFCURVE",
"509 445 CURVE",
"597 445 LINE",
"597 629 OFFCURVE",
"502 724 OFFCURVE",
"301 724 CURVE SMOOTH",
"106 724 OFFCURVE",
"10 630 OFFCURVE",
"10 445 CURVE"
);
},
{
closed = 1;
nodes = (
"347 0 LINE",
"347 678 LINE",
"259 678 LINE",
"259 0 LINE"
);
}
);
width = 607;
}
);
leftKerningGroup = u10560;
leftMetricsKey = u1053F;
rightKerningGroup = u1055F;
rightMetricsKey = u1053F;
unicode = 10560;
script = "";
category = Letter;
subCategory = Other;
},
{
glyphname = u10561;
lastChange = "2019-02-19 19:00:23 +0000";
layers = (
{
color = -1;
layerId = "013C57DE-4010-4415-A39F-4966D9E8DBC5";
paths = (
{
closed = 1;
nodes = (
"293 0 LINE",
"293 714 LINE",
"10 714 LINE",
"10 637 LINE",
"205 637 LINE",
"205 0 LINE"
);
},
{
closed = 1;
nodes = (
"442 332 LINE",
"442 409 LINE",
"205 409 LINE",
"205 332 LINE"
);
}
);
width = 452;
}
);
leftKerningGroup = u10561;
leftMetricsKey = u1053F;
rightKerningGroup = u10534;
rightMetricsKey = u1053F;
unicode = 10561;
script = "";
category = Letter;
subCategory = Other;
},
{
glyphname = u10562;
lastChange = "2019-02-19 19:00:23 +0000";
layers = (
{
color = -1;
layerId = "013C57DE-4010-4415-A39F-4966D9E8DBC5";
paths = (
{
closed = 1;
nodes = (
"413 234 OFFCURVE",
"495 313 OFFCURVE",
"495 478 CURVE SMOOTH",
"495 714 LINE",
"407 714 LINE",
"407 501 LINE SMOOTH",
"407 364 OFFCURVE",
"370 310 OFFCURVE",
"270 310 CURVE SMOOTH",
"170 310 OFFCURVE",
"138 364 OFFCURVE",
"138 501 CURVE SMOOTH",
"138 714 LINE",
"50 714 LINE",
"50 478 LINE SMOOTH",
"50 312 OFFCURVE",
"129 234 OFFCURVE",
"270 234 CURVE SMOOTH"
);
},
{
closed = 1;
nodes = (
"314 0 LINE",
"314 275 LINE",
"226 275 LINE",
"226 0 LINE"
);
}
);
width = 545;
}
);
unicode = 10562;
script = "";
category = Letter;
subCategory = Other;
},
{
glyphname = u10563;
lastChange = "2019-02-19 19:00:23 +0000";
layers = (
{
color = -1;
layerId = "013C57DE-4010-4415-A39F-4966D9E8DBC5";
paths = (
{
closed = 1;
nodes = (
"293 -43 LINE",
"293 120 LINE",
"488 120 LINE",
"488 197 LINE",
"293 197 LINE",
"293 714 LINE",
"205 714 LINE",
"205 197 LINE",
"10 197 LINE",
"10 120 LINE",
"205 120 LINE",
"205 -43 LINE"
);
}
);
width = 498;
}
);
leftKerningGroup = u1053F;
leftMetricsKey = u1053F;
rightKerningGroup = u1053F;
rightMetricsKey = u1053F;
unicode = 10563;
script = "";
category = Letter;
subCategory = Other;
},
{
glyphname = u1056F;
lastChange = "2019-02-19 19:00:23 +0000";
layers = (
{
color = -1;
layerId = "013C57DE-4010-4415-A39F-4966D9E8DBC5";
paths = (
{
closed = 1;
nodes = (
"176 222 OFFCURVE",
"203 258 OFFCURVE",
"203 300 CURVE SMOOTH",
"203 339 OFFCURVE",
"179 361 OFFCURVE",
"163 374 CURVE SMOOTH",
"140 392 OFFCURVE",
"126 404 OFFCURVE",
"126 427 CURVE SMOOTH",
"126 454 OFFCURVE",
"146 467 OFFCURVE",
"179 478 CURVE",
"154 532 LINE",
"94 520 OFFCURVE",
"51 483 OFFCURVE",
"51 422 CURVE SMOOTH",
"51 382 OFFCURVE",
"71 361 OFFCURVE",
"94 339 CURVE SMOOTH",
"116 318 OFFCURVE",
"127 307 OFFCURVE",
"127 289 CURVE SMOOTH",
"127 267 OFFCURVE",
"108 251 OFFCURVE",
"81 231 CURVE",
"123 184 LINE"
);
}
);
width = 252;
}
);
unicode = 1056F;
script = "";
category = "";
subCategory = "";
},
{
glyphname = uni25CC;
production = uni25CC;
lastChange = "2019-02-19 19:00:23 +0000";
layers = (
{
color = -1;
layerId = "013C57DE-4010-4415-A39F-4966D9E8DBC5";
paths = (
{
closed = 1;
nodes = (
"469 423 OFFCURVE",
"481 435 OFFCURVE",
"481 449 CURVE SMOOTH",
"481 463 OFFCURVE",
"469 475 OFFCURVE",
"455 475 CURVE SMOOTH",
"441 475 OFFCURVE",
"429 463 OFFCURVE",
"429 449 CURVE SMOOTH",
"429 435 OFFCURVE",
"441 423 OFFCURVE",
"455 423 CURVE SMOOTH"
);
},
{
closed = 1;
nodes = (
"153 107 OFFCURVE",
"165 119 OFFCURVE",
"165 133 CURVE SMOOTH",
"165 147 OFFCURVE",
"153 159 OFFCURVE",
"139 159 CURVE SMOOTH",
"125 159 OFFCURVE",
"113 147 OFFCURVE",
"113 133 CURVE SMOOTH",
"113 119 OFFCURVE",
"125 107 OFFCURVE",
"139 107 CURVE SMOOTH"
);
},
{
closed = 1;
nodes = (
"227 60 OFFCURVE",
"239 72 OFFCURVE",
"239 86 CURVE SMOOTH",
"239 100 OFFCURVE",
"227 112 OFFCURVE",
"213 112 CURVE SMOOTH",
"199 112 OFFCURVE",
"187 100 OFFCURVE",
"187 86 CURVE SMOOTH",
"187 72 OFFCURVE",
"199 60 OFFCURVE",
"213 60 CURVE SMOOTH"
);
},
{
closed = 1;
nodes = (
"106 181 OFFCURVE",
"118 193 OFFCURVE",
"118 207 CURVE SMOOTH",
"118 221 OFFCURVE",
"106 233 OFFCURVE",
"92 233 CURVE SMOOTH",
"78 233 OFFCURVE",
"66 221 OFFCURVE",
"66 207 CURVE SMOOTH",
"66 193 OFFCURVE",
"78 181 OFFCURVE",
"92 181 CURVE SMOOTH"
);
},
{
closed = 1;
nodes = (
"311 42 OFFCURVE",
"323 54 OFFCURVE",
"323 68 CURVE SMOOTH",
"323 82 OFFCURVE",
"311 94 OFFCURVE",
"297 94 CURVE SMOOTH",
"283 94 OFFCURVE",
"271 82 OFFCURVE",
"271 68 CURVE SMOOTH",
"271 54 OFFCURVE",
"283 42 OFFCURVE",
"297 42 CURVE SMOOTH"
);
},
{
closed = 1;
nodes = (
"88 265 OFFCURVE",
"100 277 OFFCURVE",
"100 291 CURVE SMOOTH",
"100 305 OFFCURVE",
"88 317 OFFCURVE",
"74 317 CURVE SMOOTH",
"60 317 OFFCURVE",
"48 305 OFFCURVE",
"48 291 CURVE SMOOTH",
"48 277 OFFCURVE",
"60 265 OFFCURVE",
"74 265 CURVE SMOOTH"
);
},
{
closed = 1;
nodes = (
"395 60 OFFCURVE",
"407 72 OFFCURVE",
"407 86 CURVE SMOOTH",
"407 100 OFFCURVE",
"395 112 OFFCURVE",
"381 112 CURVE SMOOTH",
"367 112 OFFCURVE",
"355 100 OFFCURVE",
"355 86 CURVE SMOOTH",
"355 72 OFFCURVE",
"367 60 OFFCURVE",
"381 60 CURVE SMOOTH"
);
},
{
closed = 1;
nodes = (
"106 349 OFFCURVE",
"118 361 OFFCURVE",
"118 375 CURVE SMOOTH",
"118 389 OFFCURVE",
"106 401 OFFCURVE",
"92 401 CURVE SMOOTH",
"78 401 OFFCURVE",
"66 389 OFFCURVE",
"66 375 CURVE SMOOTH",
"66 361 OFFCURVE",
"78 349 OFFCURVE",
"92 349 CURVE SMOOTH"
);
},
{
closed = 1;
nodes = (
"153 423 OFFCURVE",
"165 435 OFFCURVE",
"165 449 CURVE SMOOTH",
"165 463 OFFCURVE",
"153 475 OFFCURVE",
"139 475 CURVE SMOOTH",
"125 475 OFFCURVE",
"113 463 OFFCURVE",
"113 449 CURVE SMOOTH",
"113 435 OFFCURVE",
"125 423 OFFCURVE",
"139 423 CURVE SMOOTH"
);
},
{
closed = 1;
nodes = (
"469 107 OFFCURVE",
"481 119 OFFCURVE",
"481 133 CURVE SMOOTH",
"481 147 OFFCURVE",
"469 159 OFFCURVE",
"455 159 CURVE SMOOTH",
"441 159 OFFCURVE",
"429 147 OFFCURVE",
"429 133 CURVE SMOOTH",
"429 119 OFFCURVE",
"441 107 OFFCURVE",
"455 107 CURVE SMOOTH"
);
},
{
closed = 1;
nodes = (
"227 470 OFFCURVE",
"239 482 OFFCURVE",
"239 496 CURVE SMOOTH",
"239 510 OFFCURVE",
"227 522 OFFCURVE",
"213 522 CURVE SMOOTH",
"199 522 OFFCURVE",
"187 510 OFFCURVE",
"187 496 CURVE SMOOTH",
"187 482 OFFCURVE",
"199 470 OFFCURVE",
"213 470 CURVE SMOOTH"
);
},
{
closed = 1;
nodes = (
"516 181 OFFCURVE",
"528 193 OFFCURVE",
"528 207 CURVE SMOOTH",
"528 221 OFFCURVE",
"516 233 OFFCURVE",
"502 233 CURVE SMOOTH",
"488 233 OFFCURVE",
"476 221 OFFCURVE",
"476 207 CURVE SMOOTH",
"476 193 OFFCURVE",
"488 181 OFFCURVE",
"502 181 CURVE SMOOTH"
);
},
{
closed = 1;
nodes = (
"311 488 OFFCURVE",
"323 500 OFFCURVE",
"323 514 CURVE SMOOTH",
"323 528 OFFCURVE",
"311 540 OFFCURVE",
"297 540 CURVE SMOOTH",
"283 540 OFFCURVE",
"271 528 OFFCURVE",
"271 514 CURVE SMOOTH",
"271 500 OFFCURVE",
"283 488 OFFCURVE",
"297 488 CURVE SMOOTH"
);
},
{
closed = 1;
nodes = (
"534 265 OFFCURVE",
"546 277 OFFCURVE",
"546 291 CURVE SMOOTH",
"546 305 OFFCURVE",
"534 317 OFFCURVE",
"520 317 CURVE SMOOTH",
"506 317 OFFCURVE",
"494 305 OFFCURVE",
"494 291 CURVE SMOOTH",
"494 277 OFFCURVE",
"506 265 OFFCURVE",
"520 265 CURVE SMOOTH"
);
},
{
closed = 1;
nodes = (
"395 470 OFFCURVE",
"407 482 OFFCURVE",
"407 496 CURVE SMOOTH",
"407 510 OFFCURVE",
"395 522 OFFCURVE",
"381 522 CURVE SMOOTH",
"367 522 OFFCURVE",
"355 510 OFFCURVE",
"355 496 CURVE SMOOTH",
"355 482 OFFCURVE",
"367 470 OFFCURVE",
"381 470 CURVE SMOOTH"
);
},
{
closed = 1;
nodes = (
"516 349 OFFCURVE",
"528 361 OFFCURVE",
"528 375 CURVE SMOOTH",
"528 389 OFFCURVE",
"516 401 OFFCURVE",
"502 401 CURVE SMOOTH",
"488 401 OFFCURVE",
"476 389 OFFCURVE",
"476 375 CURVE SMOOTH",
"476 361 OFFCURVE",
"488 349 OFFCURVE",
"502 349 CURVE SMOOTH"
);
}
);
width = 594;
}
);
unicode = 25CC;
script = "";
category = Letter;
subCategory = Lowercase;
},
{
glyphname = uni0304;
production = uni0304;
lastChange = "2019-02-19 19:00:23 +0000";
layers = (
{
color = -1;
layerId = "013C57DE-4010-4415-A39F-4966D9E8DBC5";
paths = (
{
closed = 1;
nodes = (
"149 823 LINE",
"149 893 LINE",
"-148 893 LINE",
"-148 823 LINE"
);
}
);
width = 0;
}
);
unicode = 0304;
script = "";
category = Mark;
subCategory = Nonspacing;
},
{
glyphname = uni0331;
production = uni0331;
lastChange = "2019-02-19 19:00:23 +0000";
layers = (
{
color = -1;
layerId = "013C57DE-4010-4415-A39F-4966D9E8DBC5";
paths = (
{
closed = 1;
nodes = (
"149 -177 LINE",
"149 -107 LINE",
"-148 -107 LINE",
"-148 -177 LINE"
);
}
);
width = 0;
}
);
unicode = 0331;
script = "";
category = Mark;
subCategory = Nonspacing;
},
{
glyphname = uniFE2D;
production = uniFE2D;
lastChange = "2019-02-19 19:00:23 +0000";
layers = (
{
color = -1;
layerId = "013C57DE-4010-4415-A39F-4966D9E8DBC5";
paths = (
{
closed = 1;
nodes = (
"365 -177 LINE",
"365 -107 LINE",
"-365 -107 LINE",
"-365 -177 LINE"
);
}
);
width = 0;
}
);
unicode = FE2D;
script = "";
category = Mark;
subCategory = Nonspacing;
},
{
glyphname = uniFE26;
production = uniFE26;
lastChange = "2019-02-19 19:00:23 +0000";
layers = (
{
color = -1;
layerId = "013C57DE-4010-4415-A39F-4966D9E8DBC5";
paths = (
{
closed = 1;
nodes = (
"365 823 LINE",
"365 893 LINE",
"-365 893 LINE",
"-365 823 LINE"
);
}
);
width = 0;
}
);
unicode = FE26;
script = "";
category = Mark;
subCategory = Nonspacing;
},
{
glyphname = uniFE22;
production = uniFE22;
lastChange = "2019-02-19 19:00:23 +0000";
layers = (
{
color = -1;
layerId = "013C57DE-4010-4415-A39F-4966D9E8DBC5";
paths = (
{
closed = 1;
nodes = (
"-307 802 LINE",
"-297 839 OFFCURVE",
"-263 863 OFFCURVE",
"-190 863 CURVE SMOOTH",
"-120 863 OFFCURVE",
"-56 847 OFFCURVE",
"6 831 CURVE",
"6 898 LINE",
"-56 914 OFFCURVE",
"-119 930 OFFCURVE",
"-188 930 CURVE SMOOTH",
"-285 930 OFFCURVE",
"-351 892 OFFCURVE",
"-367 802 CURVE"
);
}
);
width = 0;
}
);
unicode = FE22;
script = "";
category = Mark;
subCategory = Nonspacing;
},
{
glyphname = uniFE23;
production = uniFE23;
lastChange = "2019-02-19 19:00:23 +0000";
layers = (
{
color = -1;
layerId = "013C57DE-4010-4415-A39F-4966D9E8DBC5";
paths = (
{
closed = 1;
nodes = (
"283 803 OFFCURVE",
"348 841 OFFCURVE",
"364 931 CURVE",
"306 931 LINE",
"298 894 OFFCURVE",
"264 870 OFFCURVE",
"189 870 CURVE SMOOTH",
"112 870 OFFCURVE",
"57 884 OFFCURVE",
"-5 901 CURVE",
"-5 834 LINE",
"57 817 OFFCURVE",
"111 803 OFFCURVE",
"187 803 CURVE SMOOTH"
);
}
);
width = 0;
}
);
unicode = FE23;
script = "";
category = Mark;
subCategory = Nonspacing;
},
{
glyphname = uniFE27;
production = uniFE27;
lastChange = "2019-02-19 19:00:23 +0000";
layers = (
{
color = -1;
layerId = "013C57DE-4010-4415-A39F-4966D9E8DBC5";
paths = (
{
closed = 1;
nodes = (
"-294 -215 OFFCURVE",
"-170 -271 OFFCURVE",
"-1 -271 CURVE SMOOTH",
"5 -271 LINE",
"5 -201 LINE",
"-3 -201 LINE SMOOTH",
"-143 -201 OFFCURVE",
"-250 -156 OFFCURVE",
"-303 -83 CURVE",
"-368 -83 LINE"
);
}
);
width = 0;
}
);
unicode = FE27;
script = "";
category = Mark;
subCategory = Nonspacing;
},
{
glyphname = uniFE20;
production = uniFE20;
lastChange = "2019-02-19 19:00:23 +0000";
layers = (
{
color = -1;
layerId = "013C57DE-4010-4415-A39F-4966D9E8DBC5";
paths = (
{
closed = 1;
nodes = (
"-303 736 LINE",
"-250 809 OFFCURVE",
"-143 854 OFFCURVE",
"-3 854 CURVE SMOOTH",
"5 854 LINE",
"5 924 LINE",
"-1 924 LINE SMOOTH",
"-170 924 OFFCURVE",
"-294 868 OFFCURVE",
"-368 736 CURVE"
);
}
);
width = 0;
}
);
unicode = FE20;
script = "";
category = Mark;
subCategory = Nonspacing;
},
{
glyphname = uniFE28;
production = uniFE28;
lastChange = "2019-02-19 19:00:23 +0000";
layers = (
{
color = -1;
layerId = "013C57DE-4010-4415-A39F-4966D9E8DBC5";
paths = (
{
closed = 1;
nodes = (
"303 -83 LINE",
"250 -156 OFFCURVE",
"143 -201 OFFCURVE",
"3 -201 CURVE SMOOTH",
"-5 -201 LINE",
"-5 -271 LINE",
"1 -271 LINE SMOOTH",
"172 -271 OFFCURVE",
"303 -206 OFFCURVE",
"368 -83 CURVE"
);
}
);
width = 0;
}
);
unicode = FE28;
script = "";
category = Mark;
subCategory = Nonspacing;
},
{
glyphname = uniFE21;
production = uniFE21;
lastChange = "2019-02-19 19:00:23 +0000";
layers = (
{
color = -1;
layerId = "013C57DE-4010-4415-A39F-4966D9E8DBC5";
paths = (
{
closed = 1;
nodes = (
"303 859 OFFCURVE",
"172 924 OFFCURVE",
"1 924 CURVE SMOOTH",
"-5 924 LINE",
"-5 854 LINE",
"3 854 LINE SMOOTH",
"143 854 OFFCURVE",
"250 809 OFFCURVE",
"303 736 CURVE",
"368 736 LINE"
);
}
);
width = 0;
}
);
unicode = FE21;
script = "";
category = Mark;
subCategory = Nonspacing;
},
{
glyphname = uniFE2B;
production = uniFE2B;
lastChange = "2019-02-19 19:00:23 +0000";
layers = (
{
color = -1;
layerId = "013C57DE-4010-4415-A39F-4966D9E8DBC5";
paths = (
{
closed = 1;
nodes = (
"110 -177 LINE",
"110 -107 LINE",
"-307 -107 LINE",
"-307 -177 LINE"
);
}
);
width = 0;
}
);
unicode = FE2B;
script = "";
category = Mark;
subCategory = Nonspacing;
},
{
glyphname = uniFE24;
production = uniFE24;
lastChange = "2019-02-19 19:00:23 +0000";
layers = (
{
color = -1;
layerId = "013C57DE-4010-4415-A39F-4966D9E8DBC5";
paths = (
{
closed = 1;
nodes = (
"110 823 LINE",
"110 893 LINE",
"-307 893 LINE",
"-307 823 LINE"
);
}
);
width = 0;
}
);
unicode = FE24;
script = "";
category = Mark;
subCategory = Nonspacing;
},
{
glyphname = uniFE2C;
production = uniFE2C;
lastChange = "2019-02-19 19:00:23 +0000";
layers = (
{
color = -1;
layerId = "013C57DE-4010-4415-A39F-4966D9E8DBC5";
paths = (
{
closed = 1;
nodes = (
"307 -177 LINE",
"307 -107 LINE",
"-110 -107 LINE",
"-110 -177 LINE"
);
}
);
width = 0;
}
);
unicode = FE2C;
script = "";
category = Mark;
subCategory = Nonspacing;
},
{
glyphname = uniFE25;
production = uniFE25;
lastChange = "2019-02-19 19:00:23 +0000";
layers = (
{
color = -1;
layerId = "013C57DE-4010-4415-A39F-4966D9E8DBC5";
paths = (
{
closed = 1;
nodes = (
"307 823 LINE",
"307 893 LINE",
"-110 893 LINE",
"-110 823 LINE"
);
}
);
width = 0;
}
);
unicode = FE25;
script = "";
category = Mark;
subCategory = Nonspacing;
},
{
glyphname = uniFE29;
production = uniFE29;
lastChange = "2019-02-19 19:00:23 +0000";
layers = (
{
color = -1;
layerId = "013C57DE-4010-4415-A39F-4966D9E8DBC5";
paths = (
{
closed = 1;
nodes = (
"-307 -231 LINE",
"-297 -194 OFFCURVE",
"-263 -170 OFFCURVE",
"-190 -170 CURVE SMOOTH",
"-120 -170 OFFCURVE",
"-56 -186 OFFCURVE",
"6 -202 CURVE",
"6 -135 LINE",
"-56 -119 OFFCURVE",
"-119 -103 OFFCURVE",
"-188 -103 CURVE SMOOTH",
"-285 -103 OFFCURVE",
"-351 -141 OFFCURVE",
"-367 -231 CURVE"
);
}
);
width = 0;
}
);
unicode = FE29;
script = "";
category = Mark;
subCategory = Nonspacing;
},
{
glyphname = uniFE2A;
production = uniFE2A;
lastChange = "2019-02-19 19:00:23 +0000";
layers = (
{
color = -1;
layerId = "013C57DE-4010-4415-A39F-4966D9E8DBC5";
paths = (
{
closed = 1;
nodes = (
"283 -230 OFFCURVE",
"348 -192 OFFCURVE",
"364 -102 CURVE",
"306 -102 LINE",
"298 -139 OFFCURVE",
"264 -163 OFFCURVE",
"189 -163 CURVE SMOOTH",
"112 -163 OFFCURVE",
"57 -149 OFFCURVE",
"-5 -132 CURVE",
"-5 -199 LINE",
"57 -216 OFFCURVE",
"111 -230 OFFCURVE",
"187 -230 CURVE SMOOTH"
);
}
);
width = 0;
}
);
unicode = FE2A;
script = "";
category = Mark;
subCategory = Nonspacing;
},
{
glyphname = uniFE2E;
production = uniFE2E;
lastChange = "2019-02-19 19:00:23 +0000";
layers = (
{
color = -1;
layerId = "013C57DE-4010-4415-A39F-4966D9E8DBC5";
paths = (
{
closed = 1;
nodes = (
"-255 807 OFFCURVE",
"-238 825 OFFCURVE",
"-233 854 CURVE",
"5 854 LINE",
"5 924 LINE",
"-266 924 LINE SMOOTH",
"-313 924 OFFCURVE",
"-333 900 OFFCURVE",
"-333 861 CURVE SMOOTH",
"-333 829 OFFCURVE",
"-315 807 OFFCURVE",
"-283 807 CURVE SMOOTH"
);
}
);
width = 0;
}
);
unicode = FE2E;
script = cyrillic;
category = Mark;
subCategory = Nonspacing;
},
{
glyphname = uniFE2F;
production = uniFE2F;
lastChange = "2019-02-19 19:00:23 +0000";
layers = (
{
color = -1;
layerId = "013C57DE-4010-4415-A39F-4966D9E8DBC5";
paths = (
{
closed = 1;
nodes = (
"255 971 OFFCURVE",
"238 953 OFFCURVE",
"233 924 CURVE",
"-5 924 LINE",
"-5 854 LINE",
"266 854 LINE SMOOTH",
"313 854 OFFCURVE",
"333 878 OFFCURVE",
"333 917 CURVE SMOOTH",
"333 949 OFFCURVE",
"315 971 OFFCURVE",
"283 971 CURVE SMOOTH"
);
}
);
width = 0;
}
);
unicode = FE2F;
script = cyrillic;
category = Mark;
subCategory = Nonspacing;
},
{
glyphname = u10530_fe26;
lastChange = "2019-02-19 19:00:23 +0000";
layers = (
{
layerId = "013C57DE-4010-4415-A39F-4966D9E8DBC5";
paths = (
{
closed = 1;
nodes = (
"516 854 LINE",
"516 924 LINE",
"-5 924 LINE",
"-5 854 LINE"
);
},
{
closed = 1;
nodes = (
"128 40 OFFCURVE",
"208 63 OFFCURVE",
"284 63 CURVE SMOOTH",
"350 63 OFFCURVE",
"414 38 OFFCURVE",
"462 -5 CURVE",
"501 66 LINE",
"451 109 OFFCURVE",
"370 137 OFFCURVE",
"293 137 CURVE SMOOTH",
"222 137 OFFCURVE",
"168 120 OFFCURVE",
"108 72 CURVE",
"74 -5 LINE"
);
},
{
closed = 1;
nodes = (
"337 308 LINE SMOOTH",
"412 398 OFFCURVE",
"466 466 OFFCURVE",
"466 551 CURVE SMOOTH",
"466 651 OFFCURVE",
"391 724 OFFCURVE",
"265 724 CURVE SMOOTH",
"133 724 OFFCURVE",
"49 645 OFFCURVE",
"49 532 CURVE SMOOTH",
"49 411 OFFCURVE",
"145 351 OFFCURVE",
"269 319 CURVE",
"313 376 LINE",
"213 399 OFFCURVE",
"136 449 OFFCURVE",
"136 535 CURVE SMOOTH",
"136 602 OFFCURVE",
"183 653 OFFCURVE",
"262 653 CURVE SMOOTH",
"342 653 OFFCURVE",
"377 599 OFFCURVE",
"377 544 CURVE SMOOTH",
"377 475 OFFCURVE",
"318 404 OFFCURVE",
"268 345 CURVE SMOOTH",
"16 48 LINE",
"74 -5 LINE"
);
}
);
width = 511;
}
);
},
{
glyphname = u10531_fe26;
lastChange = "2019-02-19 19:00:23 +0000";
layers = (
{
layerId = "013C57DE-4010-4415-A39F-4966D9E8DBC5";
paths = (
{
closed = 1;
nodes = (
"541 854 LINE",
"541 924 LINE",
"-5 924 LINE",
"-5 854 LINE"
);
},
{
closed = 1;
nodes = (
"447 529 LINE",
"447 606 LINE",
"91 606 LINE",
"91 529 LINE"
);
},
{
closed = 1;
nodes = (
"434 -10 OFFCURVE",
"506 79 OFFCURVE",
"506 205 CURVE SMOOTH",
"506 317 OFFCURVE",
"443 410 OFFCURVE",
"260 410 CURVE SMOOTH",
"156 410 LINE",
"156 714 LINE",
"70 714 LINE",
"70 216 LINE SMOOTH",
"70 84 OFFCURVE",
"122 -10 OFFCURVE",
"285 -10 CURVE SMOOTH"
);
},
{
closed = 1;
nodes = (
"200 63 OFFCURVE",
"156 109 OFFCURVE",
"156 224 CURVE SMOOTH",
"156 333 LINE",
"249 333 LINE SMOOTH",
"359 333 OFFCURVE",
"417 295 OFFCURVE",
"417 205 CURVE SMOOTH",
"417 115 OFFCURVE",
"370 63 OFFCURVE",
"284 63 CURVE SMOOTH"
);
}
);
width = 536;
}
);
},
{
glyphname = u10532_fe26;
lastChange = "2019-02-19 19:00:23 +0000";
layers = (
{
layerId = "013C57DE-4010-4415-A39F-4966D9E8DBC5";
paths = (
{
closed = 1;
nodes = (
"582 854 LINE",
"582 924 LINE",
"-5 924 LINE",
"-5 854 LINE"
);
},
{
closed = 1;
nodes = (
"453 0 LINE",
"453 241 LINE",
"426 232 OFFCURVE",
"398 229 OFFCURVE",
"367 229 CURVE SMOOTH",
"208 229 OFFCURVE",
"142 307 OFFCURVE",
"142 438 CURVE SMOOTH",
"142 560 OFFCURVE",
"200 650 OFFCURVE",
"313 650 CURVE SMOOTH",
"410 650 OFFCURVE",
"459 588 OFFCURVE",
"459 471 CURVE",
"547 471 LINE",
"547 636 OFFCURVE",
"468 724 OFFCURVE",
"314 724 CURVE SMOOTH",
"144 724 OFFCURVE",
"50 610 OFFCURVE",
"50 437 CURVE SMOOTH",
"50 259 OFFCURVE",
"139 153 OFFCURVE",
"365 153 CURVE",
"365 0 LINE"
);
}
);
width = 577;
}
);
},
{
glyphname = u10533_fe26;
lastChange = "2019-02-19 19:00:23 +0000";
layers = (
{
layerId = "013C57DE-4010-4415-A39F-4966D9E8DBC5";
paths = (
{
closed = 1;
nodes = (
"597 854 LINE",
"597 924 LINE",
"-5 924 LINE",
"-5 854 LINE"
);
},
{
closed = 1;
nodes = (
"341 0 LINE",
"341 187 LINE",
"479 197 OFFCURVE",
"562 309 OFFCURVE",
"562 455 CURVE SMOOTH",
"562 605 OFFCURVE",
"474 724 OFFCURVE",
"298 724 CURVE SMOOTH",
"121 724 OFFCURVE",
"30 605 OFFCURVE",
"30 454 CURVE SMOOTH",
"30 308 OFFCURVE",
"114 197 OFFCURVE",
"253 187 CURVE",
"253 0 LINE"
);
},
{
closed = 1;
nodes = (
"184 261 OFFCURVE",
"120 333 OFFCURVE",
"120 455 CURVE SMOOTH",
"120 559 OFFCURVE",
"167 650 OFFCURVE",
"297 650 CURVE SMOOTH",
"423 650 OFFCURVE",
"472 564 OFFCURVE",
"472 455 CURVE SMOOTH",
"472 334 OFFCURVE",
"411 261 OFFCURVE",
"297 261 CURVE SMOOTH"
);
}
);
width = 592;
}
);
},
{
glyphname = u10534_fe26;
lastChange = "2019-02-19 19:00:23 +0000";
layers = (
{
layerId = "013C57DE-4010-4415-A39F-4966D9E8DBC5";
paths = (
{
closed = 1;
nodes = (
"629 854 LINE",
"629 924 LINE",
"-5 924 LINE",
"-5 854 LINE"
);
},
{
closed = 1;
nodes = (
"614 333 LINE",
"614 410 LINE",
"377 410 LINE",
"377 333 LINE"
);
},
{
closed = 1;
nodes = (
"396 -10 OFFCURVE",
"465 80 OFFCURVE",
"465 248 CURVE SMOOTH",
"465 714 LINE",
"377 714 LINE",
"377 237 LINE SMOOTH",
"377 126 OFFCURVE",
"341 64 OFFCURVE",
"246 64 CURVE SMOOTH",
"163 64 OFFCURVE",
"119 109 OFFCURVE",
"119 224 CURVE SMOOTH",
"119 269 LINE",
"30 269 LINE",
"30 222 LINE SMOOTH",
"30 64 OFFCURVE",
"108 -10 OFFCURVE",
"247 -10 CURVE SMOOTH"
);
}
);
width = 624;
}
);
},
{
glyphname = u10535_fe26;
lastChange = "2019-02-19 19:00:23 +0000";
layers = (
{
layerId = "013C57DE-4010-4415-A39F-4966D9E8DBC5";
paths = (
{
closed = 1;
nodes = (
"527 854 LINE",
"527 924 LINE",
"-5 924 LINE",
"-5 854 LINE"
);
},
{
closed = 1;
nodes = (
"405 -10 OFFCURVE",
"492 75 OFFCURVE",
"492 212 CURVE SMOOTH",
"492 363 OFFCURVE",
"387 433 OFFCURVE",
"302 489 CURVE SMOOTH",
"207 552 OFFCURVE",
"185 576 OFFCURVE",
"172 714 CURVE",
"85 714 LINE",
"96 528 OFFCURVE",
"158 486 OFFCURVE",
"259 421 CURVE SMOOTH",
"342 368 OFFCURVE",
"403 325 OFFCURVE",
"403 216 CURVE SMOOTH",
"403 121 OFFCURVE",
"361 64 OFFCURVE",
"264 64 CURVE SMOOTH",
"160 64 OFFCURVE",
"129 130 OFFCURVE",
"129 205 CURVE SMOOTH",
"129 240 OFFCURVE",
"136 282 OFFCURVE",
"151 313 CURVE",
"76 347 LINE",
"52 302 OFFCURVE",
"40 246 OFFCURVE",
"40 199 CURVE SMOOTH",
"40 89 OFFCURVE",
"105 -10 OFFCURVE",
"261 -10 CURVE SMOOTH"
);
}
);
width = 522;
}
);
},
{
glyphname = u10536_fe26;
lastChange = "2019-02-19 19:00:23 +0000";
layers = (
{
layerId = "013C57DE-4010-4415-A39F-4966D9E8DBC5";
paths = (
{
closed = 1;
nodes = (
"443 854 LINE",
"443 924 LINE",
"-5 924 LINE",
"-5 854 LINE"
);
},
{
closed = 1;
nodes = (
"168 0 LINE",
"168 637 LINE",
"408 637 LINE",
"408 714 LINE",
"80 714 LINE",
"80 0 LINE"
);
},
{
closed = 1;
nodes = (
"408 0 LINE",
"408 77 LINE",
"80 77 LINE",
"80 0 LINE"
);
}
);
width = 438;
}
);
},
{
glyphname = u10537_fe26;
lastChange = "2019-02-19 19:00:23 +0000";
layers = (
{
layerId = "013C57DE-4010-4415-A39F-4966D9E8DBC5";
paths = (
{
closed = 1;
nodes = (
"547 854 LINE",
"547 924 LINE",
"-5 924 LINE",
"-5 854 LINE"
);
},
{
closed = 1;
nodes = (
"472 120 LINE",
"472 197 LINE",
"116 197 LINE",
"116 120 LINE"
);
},
{
closed = 1;
nodes = (
"168 302 LINE",
"262 302 LINE SMOOTH",
"407 302 OFFCURVE",
"512 360 OFFCURVE",
"512 504 CURVE SMOOTH",
"512 633 OFFCURVE",
"428 714 OFFCURVE",
"272 714 CURVE SMOOTH",
"148 714 LINE",
"148 637 LINE",
"251 637 LINE SMOOTH",
"361 637 OFFCURVE",
"421 595 OFFCURVE",
"421 507 CURVE SMOOTH",
"421 414 OFFCURVE",
"355 379 OFFCURVE",
"251 379 CURVE SMOOTH",
"168 379 LINE",
"168 714 LINE",
"80 714 LINE",
"80 0 LINE",
"168 0 LINE"
);
}
);
width = 542;
}
);
},
{
glyphname = u10538_fe26;
lastChange = "2019-02-19 19:00:23 +0000";
layers = (
{
layerId = "013C57DE-4010-4415-A39F-4966D9E8DBC5";
paths = (
{
closed = 1;
nodes = (
"540 854 LINE",
"540 924 LINE",
"-5 924 LINE",
"-5 854 LINE"
);
},
{
closed = 1;
nodes = (
"421 637 LINE",
"421 714 LINE",
"102 714 LINE",
"102 637 LINE"
);
},
{
closed = 1;
nodes = (
"190 463 LINE",
"190 663 LINE",
"102 663 LINE",
"102 463 LINE"
);
},
{
closed = 1;
nodes = (
"396 -10 OFFCURVE",
"465 80 OFFCURVE",
"465 248 CURVE SMOOTH",
"465 714 LINE",
"377 714 LINE",
"377 237 LINE SMOOTH",
"377 126 OFFCURVE",
"341 64 OFFCURVE",
"246 64 CURVE SMOOTH",
"163 64 OFFCURVE",
"119 109 OFFCURVE",
"119 224 CURVE SMOOTH",
"119 269 LINE",
"30 269 LINE",
"30 222 LINE SMOOTH",
"30 64 OFFCURVE",
"108 -10 OFFCURVE",
"247 -10 CURVE SMOOTH"
);
}
);
width = 535;
}
);
},
{
glyphname = u10539_fe26;
lastChange = "2019-02-19 19:00:23 +0000";
layers = (
{
layerId = "013C57DE-4010-4415-A39F-4966D9E8DBC5";
paths = (
{
closed = 1;
nodes = (
"582 854 LINE",
"582 924 LINE",
"-5 924 LINE",
"-5 854 LINE"
);
},
{
closed = 1;
nodes = (
"516 -45 OFFCURVE",
"567 11 OFFCURVE",
"567 102 CURVE SMOOTH",
"567 190 LINE",
"485 190 LINE",
"485 108 LINE SMOOTH",
"485 57 OFFCURVE",
"469 29 OFFCURVE",
"420 29 CURVE SMOOTH",
"368 29 OFFCURVE",
"352 57 OFFCURVE",
"352 113 CURVE SMOOTH",
"352 190 LINE",
"273 138 LINE",
"273 96 LINE SMOOTH",
"273 7 OFFCURVE",
"320 -45 OFFCURVE",
"416 -45 CURVE SMOOTH"
);
},
{
closed = 1;
nodes = (
"352 98 LINE",
"352 190 LINE",
"130 64 LINE",
"168 0 LINE"
);
},
{
closed = 1;
nodes = (
"168 0 LINE",
"168 714 LINE",
"80 714 LINE",
"80 0 LINE"
);
}
);
width = 577;
}
);
},
{
glyphname = u1053A_fe26;
lastChange = "2019-02-19 19:00:23 +0000";
layers = (
{
layerId = "013C57DE-4010-4415-A39F-4966D9E8DBC5";
paths = (
{
closed = 1;
nodes = (
"423 854 LINE",
"423 924 LINE",
"-5 924 LINE",
"-5 854 LINE"
);
},
{
closed = 1;
nodes = (
"338 0 LINE",
"338 714 LINE",
"10 714 LINE",
"10 637 LINE",
"250 637 LINE",
"250 0 LINE"
);
}
);
width = 418;
}
);
},
{
glyphname = u1053B_fe26;
lastChange = "2019-02-19 19:00:23 +0000";
layers = (
{
layerId = "013C57DE-4010-4415-A39F-4966D9E8DBC5";
paths = (
{
closed = 1;
nodes = (
"481 854 LINE",
"481 924 LINE",
"-5 924 LINE",
"-5 854 LINE"
);
},
{
closed = 1;
nodes = (
"88 0 LINE",
"227 383 LINE",
"231 383 LINE",
"384 0 LINE",
"481 0 LINE",
"275 483 LINE",
"308 558 OFFCURVE",
"343 612 OFFCURVE",
"408 662 CURVE",
"359 724 LINE",
"264 667 OFFCURVE",
"203 534 OFFCURVE",
"162 428 CURVE SMOOTH",
"-5 0 LINE"
);
}
);
width = 476;
}
);
},
{
glyphname = u1053C_fe26;
lastChange = "2019-02-19 19:00:23 +0000";
layers = (
{
layerId = "013C57DE-4010-4415-A39F-4966D9E8DBC5";
paths = (
{
closed = 1;
nodes = (
"579 854 LINE",
"579 924 LINE",
"-5 924 LINE",
"-5 854 LINE"
);
},
{
closed = 1;
nodes = (
"494 0 LINE",
"494 714 LINE",
"406 714 LINE",
"406 643 LINE SMOOTH",
"406 485 OFFCURVE",
"367 406 OFFCURVE",
"258 406 CURVE SMOOTH",
"172 406 OFFCURVE",
"139 455 OFFCURVE",
"139 580 CURVE SMOOTH",
"139 714 LINE",
"51 714 LINE",
"51 548 LINE SMOOTH",
"51 391 OFFCURVE",
"118 331 OFFCURVE",
"236 331 CURVE SMOOTH",
"313 331 OFFCURVE",
"367 357 OFFCURVE",
"405 419 CURVE",
"410 419 LINE",
"407 373 OFFCURVE",
"406 339 OFFCURVE",
"406 308 CURVE SMOOTH",
"406 0 LINE"
);
}
);
width = 574;
}
);
},
{
glyphname = u1053D_fe26;
lastChange = "2019-02-19 19:00:23 +0000";
layers = (
{
layerId = "013C57DE-4010-4415-A39F-4966D9E8DBC5";
paths = (
{
closed = 1;
nodes = (
"541 854 LINE",
"541 924 LINE",
"-5 924 LINE",
"-5 854 LINE"
);
},
{
closed = 1;
nodes = (
"434 -10 OFFCURVE",
"506 79 OFFCURVE",
"506 205 CURVE SMOOTH",
"506 317 OFFCURVE",
"443 410 OFFCURVE",
"260 410 CURVE SMOOTH",
"156 410 LINE",
"156 714 LINE",
"70 714 LINE",
"70 216 LINE SMOOTH",
"70 84 OFFCURVE",
"122 -10 OFFCURVE",
"285 -10 CURVE SMOOTH"
);
},
{
closed = 1;
nodes = (
"200 63 OFFCURVE",
"156 109 OFFCURVE",
"156 224 CURVE SMOOTH",
"156 333 LINE",
"249 333 LINE SMOOTH",
"359 333 OFFCURVE",
"417 295 OFFCURVE",
"417 205 CURVE SMOOTH",
"417 115 OFFCURVE",
"370 63 OFFCURVE",
"284 63 CURVE SMOOTH"
);
}
);
width = 536;
}
);
},
{
glyphname = u1053E_fe26;
lastChange = "2019-02-19 19:00:23 +0000";
layers = (
{
layerId = "013C57DE-4010-4415-A39F-4966D9E8DBC5";
paths = (
{
closed = 1;
nodes = (
"540 854 LINE",
"540 924 LINE",
"-5 924 LINE",
"-5 854 LINE"
);
},
{
closed = 1;
nodes = (
"108 724 OFFCURVE",
"30 650 OFFCURVE",
"30 492 CURVE SMOOTH",
"30 445 LINE",
"119 445 LINE",
"119 490 LINE SMOOTH",
"119 605 OFFCURVE",
"163 650 OFFCURVE",
"246 650 CURVE SMOOTH",
"341 650 OFFCURVE",
"377 588 OFFCURVE",
"377 477 CURVE SMOOTH",
"377 0 LINE",
"465 0 LINE",
"465 466 LINE SMOOTH",
"465 634 OFFCURVE",
"396 724 OFFCURVE",
"247 724 CURVE SMOOTH"
);
}
);
width = 535;
}
);
},
{
glyphname = u1053F_fe26;
lastChange = "2019-02-19 19:00:23 +0000";
layers = (
{
layerId = "013C57DE-4010-4415-A39F-4966D9E8DBC5";
paths = (
{
closed = 1;
nodes = (
"503 854 LINE",
"503 924 LINE",
"-5 924 LINE",
"-5 854 LINE"
);
},
{
closed = 1;
nodes = (
"488 0 LINE",
"488 77 LINE",
"293 77 LINE",
"293 714 LINE",
"205 714 LINE",
"205 77 LINE",
"10 77 LINE",
"10 0 LINE"
);
}
);
width = 498;
}
);
},
{
glyphname = u10540_fe26;
lastChange = "2019-02-19 19:00:23 +0000";
layers = (
{
layerId = "013C57DE-4010-4415-A39F-4966D9E8DBC5";
paths = (
{
closed = 1;
nodes = (
"555 854 LINE",
"555 924 LINE",
"-5 924 LINE",
"-5 854 LINE"
);
},
{
closed = 1;
nodes = (
"470 0 LINE",
"470 714 LINE",
"382 714 LINE",
"382 265 LINE",
"309 265 LINE SMOOTH",
"186 265 OFFCURVE",
"121 301 OFFCURVE",
"121 393 CURVE SMOOTH",
"121 490 OFFCURVE",
"180 527 OFFCURVE",
"296 527 CURVE SMOOTH",
"396 527 LINE",
"396 602 LINE",
"287 602 LINE SMOOTH",
"112 602 OFFCURVE",
"30 526 OFFCURVE",
"30 393 CURVE SMOOTH",
"30 280 OFFCURVE",
"99 190 OFFCURVE",
"298 190 CURVE SMOOTH",
"382 190 LINE",
"382 0 LINE"
);
}
);
width = 550;
}
);
},
{
glyphname = u10541_fe26;
lastChange = "2019-02-19 19:00:23 +0000";
layers = (
{
layerId = "013C57DE-4010-4415-A39F-4966D9E8DBC5";
paths = (
{
closed = 1;
nodes = (
"469 854 LINE",
"469 924 LINE",
"-5 924 LINE",
"-5 854 LINE"
);
},
{
closed = 1;
nodes = (
"168 0 LINE",
"168 452 LINE",
"346 452 LINE",
"346 257 LINE",
"434 257 LINE",
"434 529 LINE",
"168 529 LINE",
"168 714 LINE",
"80 714 LINE",
"80 0 LINE"
);
}
);
width = 464;
}
);
},
{
glyphname = u10542_fe26;
lastChange = "2019-02-19 19:00:23 +0000";
layers = (
{
layerId = "013C57DE-4010-4415-A39F-4966D9E8DBC5";
paths = (
{
closed = 1;
nodes = (
"605 854 LINE",
"605 924 LINE",
"-5 924 LINE",
"-5 854 LINE"
);
},
{
closed = 1;
nodes = (
"539 -55 OFFCURVE",
"590 1 OFFCURVE",
"590 92 CURVE SMOOTH",
"590 160 LINE",
"508 160 LINE",
"508 99 LINE SMOOTH",
"508 45 OFFCURVE",
"492 20 OFFCURVE",
"441 20 CURVE SMOOTH",
"391 20 OFFCURVE",
"375 45 OFFCURVE",
"375 98 CURVE SMOOTH",
"375 160 LINE",
"293 135 LINE",
"293 86 LINE SMOOTH",
"293 -5 OFFCURVE",
"343 -55 OFFCURVE",
"441 -55 CURVE SMOOTH"
);
},
{
closed = 1;
nodes = (
"375 82 LINE",
"375 160 LINE",
"79 70 LINE",
"79 -5 LINE"
);
},
{
closed = 1;
nodes = (
"342 308 LINE SMOOTH",
"417 398 OFFCURVE",
"471 466 OFFCURVE",
"471 551 CURVE SMOOTH",
"471 651 OFFCURVE",
"396 724 OFFCURVE",
"270 724 CURVE SMOOTH",
"138 724 OFFCURVE",
"54 645 OFFCURVE",
"54 532 CURVE SMOOTH",
"54 411 OFFCURVE",
"150 351 OFFCURVE",
"274 319 CURVE",
"318 376 LINE",
"218 399 OFFCURVE",
"141 449 OFFCURVE",
"141 535 CURVE SMOOTH",
"141 602 OFFCURVE",
"188 653 OFFCURVE",
"267 653 CURVE SMOOTH",
"347 653 OFFCURVE",
"382 599 OFFCURVE",
"382 544 CURVE SMOOTH",
"382 475 OFFCURVE",
"323 404 OFFCURVE",
"273 345 CURVE SMOOTH",
"21 48 LINE",
"79 -5 LINE"
);
}
);
width = 600;
}
);
},
{
glyphname = u10543_fe26;
lastChange = "2019-02-19 19:00:23 +0000";
layers = (
{
layerId = "013C57DE-4010-4415-A39F-4966D9E8DBC5";
paths = (
{
closed = 1;
nodes = (
"506 854 LINE",
"506 924 LINE",
"-5 924 LINE",
"-5 854 LINE"
);
},
{
closed = 1;
nodes = (
"449 0 LINE",
"449 77 LINE",
"168 77 LINE",
"168 340 LINE SMOOTH",
"168 427 OFFCURVE",
"213 480 OFFCURVE",
"284 480 CURVE SMOOTH",
"353 480 OFFCURVE",
"392 428 OFFCURVE",
"392 361 CURVE SMOOTH",
"392 330 OFFCURVE",
"382 291 OFFCURVE",
"365 260 CURVE",
"444 235 LINE",
"468 275 OFFCURVE",
"481 321 OFFCURVE",
"481 364 CURVE SMOOTH",
"481 466 OFFCURVE",
"421 558 OFFCURVE",
"311 558 CURVE SMOOTH",
"257 558 OFFCURVE",
"204 538 OFFCURVE",
"169 481 CURVE",
"164 481 LINE",
"167 513 OFFCURVE",
"168 543 OFFCURVE",
"168 562 CURVE SMOOTH",
"168 714 LINE",
"80 714 LINE",
"80 0 LINE"
);
}
);
width = 501;
}
);
},
{
glyphname = u10544_fe26;
lastChange = "2019-02-19 19:00:23 +0000";
layers = (
{
layerId = "013C57DE-4010-4415-A39F-4966D9E8DBC5";
paths = (
{
closed = 1;
nodes = (
"523 854 LINE",
"523 924 LINE",
"-5 924 LINE",
"-5 854 LINE"
);
},
{
closed = 1;
nodes = (
"508 0 LINE",
"508 77 LINE",
"310 77 LINE SMOOTH",
"257 77 OFFCURVE",
"209 77 OFFCURVE",
"159 76 CURVE",
"374 374 LINE",
"168 639 LINE",
"195 638 OFFCURVE",
"255 637 OFFCURVE",
"284 637 CURVE SMOOTH",
"479 637 LINE",
"479 714 LINE",
"66 714 LINE",
"66 639 LINE",
"274 373 LINE",
"60 74 LINE",
"60 0 LINE"
);
}
);
width = 518;
}
);
},
{
glyphname = u10545_fe26;
lastChange = "2019-02-19 19:00:23 +0000";
layers = (
{
layerId = "013C57DE-4010-4415-A39F-4966D9E8DBC5";
paths = (
{
closed = 1;
nodes = (
"541 854 LINE",
"541 924 LINE",
"-5 924 LINE",
"-5 854 LINE"
);
},
{
closed = 1;
nodes = (
"97 445 LINE",
"97 594 OFFCURVE",
"177 637 OFFCURVE",
"267 637 CURVE SMOOTH",
"526 637 LINE",
"526 714 LINE",
"277 714 LINE SMOOTH",
"111 714 OFFCURVE",
"10 627 OFFCURVE",
"10 445 CURVE"
);
},
{
closed = 1;
nodes = (
"334 0 LINE",
"334 678 LINE",
"246 678 LINE",
"246 0 LINE"
);
}
);
width = 536;
}
);
},
{
glyphname = u10546_fe26;
lastChange = "2019-02-19 19:00:23 +0000";
layers = (
{
layerId = "013C57DE-4010-4415-A39F-4966D9E8DBC5";
paths = (
{
closed = 1;
nodes = (
"364 854 LINE",
"364 924 LINE",
"-5 924 LINE",
"-5 854 LINE"
);
},
{
closed = 1;
nodes = (
"324 207 LINE",
"246 714 LINE",
"159 714 LINE",
"232 240 LINE",
"14 58 LINE",
"67 -5 LINE"
);
}
);
width = 359;
}
);
},
{
glyphname = u10547_fe26;
lastChange = "2019-02-19 19:00:23 +0000";
layers = (
{
layerId = "013C57DE-4010-4415-A39F-4966D9E8DBC5";
paths = (
{
closed = 1;
nodes = (
"378 854 LINE",
"378 924 LINE",
"-5 924 LINE",
"-5 854 LINE"
);
},
{
closed = 1;
nodes = (
"293 0 LINE",
"293 714 LINE",
"205 714 LINE",
"205 410 LINE",
"10 410 LINE",
"10 333 LINE",
"205 333 LINE",
"205 0 LINE"
);
}
);
width = 373;
}
);
},
{
glyphname = u10548_fe26;
lastChange = "2019-02-19 19:00:23 +0000";
layers = (
{
layerId = "013C57DE-4010-4415-A39F-4966D9E8DBC5";
paths = (
{
closed = 1;
nodes = (
"696 854 LINE",
"696 924 LINE",
"-5 924 LINE",
"-5 854 LINE"
);
},
{
closed = 1;
nodes = (
"247 637 LINE",
"247 714 LINE",
"10 714 LINE",
"10 637 LINE"
);
},
{
closed = 1;
nodes = (
"535 -10 OFFCURVE",
"621 72 OFFCURVE",
"621 244 CURVE SMOOTH",
"621 714 LINE",
"533 714 LINE",
"533 267 LINE SMOOTH",
"533 119 OFFCURVE",
"482 64 OFFCURVE",
"391 64 CURVE SMOOTH",
"299 64 OFFCURVE",
"248 117 OFFCURVE",
"248 267 CURVE SMOOTH",
"248 714 LINE",
"160 714 LINE",
"160 244 LINE SMOOTH",
"160 71 OFFCURVE",
"242 -10 OFFCURVE",
"388 -10 CURVE SMOOTH"
);
}
);
width = 691;
}
);
},
{
glyphname = u10549_fe26;
lastChange = "2019-02-19 19:00:23 +0000";
layers = (
{
layerId = "013C57DE-4010-4415-A39F-4966D9E8DBC5";
paths = (
{
closed = 1;
nodes = (
"696 854 LINE",
"696 924 LINE",
"-5 924 LINE",
"-5 854 LINE"
);
},
{
closed = 1;
nodes = (
"681 332 LINE",
"681 409 LINE",
"444 409 LINE",
"444 332 LINE"
);
},
{
closed = 1;
nodes = (
"445 -10 OFFCURVE",
"531 72 OFFCURVE",
"531 244 CURVE SMOOTH",
"531 714 LINE",
"443 714 LINE",
"443 267 LINE SMOOTH",
"443 119 OFFCURVE",
"392 64 OFFCURVE",
"301 64 CURVE SMOOTH",
"209 64 OFFCURVE",
"158 117 OFFCURVE",
"158 267 CURVE SMOOTH",
"158 714 LINE",
"70 714 LINE",
"70 244 LINE SMOOTH",
"70 71 OFFCURVE",
"152 -10 OFFCURVE",
"298 -10 CURVE SMOOTH"
);
}
);
width = 691;
}
);
},
{
glyphname = u1054A_fe26;
lastChange = "2019-02-19 19:00:23 +0000";
layers = (
{
layerId = "013C57DE-4010-4415-A39F-4966D9E8DBC5";
paths = (
{
closed = 1;
nodes = (
"634 854 LINE",
"634 924 LINE",
"-5 924 LINE",
"-5 854 LINE"
);
},
{
closed = 1;
nodes = (
"423 -10 OFFCURVE",
"490 91 OFFCURVE",
"490 252 CURVE SMOOTH",
"490 714 LINE",
"402 714 LINE",
"402 242 LINE SMOOTH",
"402 124 OFFCURVE",
"363 60 OFFCURVE",
"254 60 CURVE SMOOTH",
"187 60 OFFCURVE",
"137 84 OFFCURVE",
"137 145 CURVE SMOOTH",
"137 218 OFFCURVE",
"192 228 OFFCURVE",
"277 228 CURVE SMOOTH",
"619 228 LINE",
"619 300 LINE",
"284 300 LINE SMOOTH",
"157 300 OFFCURVE",
"50 273 OFFCURVE",
"50 143 CURVE SMOOTH",
"50 37 OFFCURVE",
"133 -10 OFFCURVE",
"249 -10 CURVE SMOOTH"
);
},
{
closed = 1;
nodes = (
"423 387 LINE",
"423 458 LINE",
"304 458 LINE SMOOTH",
"218 458 OFFCURVE",
"165 480 OFFCURVE",
"165 554 CURVE SMOOTH",
"165 629 OFFCURVE",
"220 644 OFFCURVE",
"310 644 CURVE SMOOTH",
"416 644 LINE",
"416 714 LINE",
"293 714 LINE SMOOTH",
"155 714 OFFCURVE",
"75 663 OFFCURVE",
"75 551 CURVE SMOOTH",
"75 444 OFFCURVE",
"142 387 OFFCURVE",
"297 387 CURVE SMOOTH"
);
}
);
width = 629;
}
);
},
{
glyphname = u1054B_fe26;
lastChange = "2019-02-19 19:00:23 +0000";
layers = (
{
layerId = "013C57DE-4010-4415-A39F-4966D9E8DBC5";
paths = (
{
closed = 1;
nodes = (
"528 854 LINE",
"528 924 LINE",
"-5 924 LINE",
"-5 854 LINE"
);
},
{
closed = 1;
nodes = (
"427 -10 OFFCURVE",
"493 81 OFFCURVE",
"493 190 CURVE SMOOTH",
"493 253 OFFCURVE",
"471 295 OFFCURVE",
"436 330 CURVE",
"370 287 LINE",
"392 259 OFFCURVE",
"406 230 OFFCURVE",
"406 188 CURVE SMOOTH",
"406 114 OFFCURVE",
"361 61 OFFCURVE",
"268 61 CURVE SMOOTH",
"191 61 OFFCURVE",
"129 98 OFFCURVE",
"129 181 CURVE SMOOTH",
"129 252 OFFCURVE",
"174 295 OFFCURVE",
"234 346 CURVE SMOOTH",
"427 509 LINE",
"398 577 LINE",
"185 577 LINE SMOOTH",
"148 577 OFFCURVE",
"122 585 OFFCURVE",
"122 621 CURVE SMOOTH",
"122 651 OFFCURVE",
"145 664 OFFCURVE",
"184 675 CURVE",
"158 737 LINE",
"85 719 OFFCURVE",
"40 676 OFFCURVE",
"40 618 CURVE SMOOTH",
"40 539 OFFCURVE",
"98 507 OFFCURVE",
"191 507 CURVE SMOOTH",
"366 507 LINE",
"357 535 LINE",
"188 404 LINE SMOOTH",
"113 346 OFFCURVE",
"43 281 OFFCURVE",
"43 175 CURVE SMOOTH",
"43 58 OFFCURVE",
"129 -10 OFFCURVE",
"267 -10 CURVE SMOOTH"
);
}
);
width = 523;
}
);
},
{
glyphname = u1054C_fe26;
lastChange = "2019-02-19 19:00:23 +0000";
layers = (
{
layerId = "013C57DE-4010-4415-A39F-4966D9E8DBC5";
paths = (
{
closed = 1;
nodes = (
"616 854 LINE",
"616 924 LINE",
"-5 924 LINE",
"-5 854 LINE"
);
},
{
closed = 1;
nodes = (
"601 0 LINE",
"601 77 LINE",
"88 77 LINE",
"88 0 LINE"
);
},
{
closed = 1;
nodes = (
"462 0 LINE",
"462 714 LINE",
"374 714 LINE",
"374 379 LINE",
"291 379 LINE SMOOTH",
"187 379 OFFCURVE",
"121 414 OFFCURVE",
"121 507 CURVE SMOOTH",
"121 595 OFFCURVE",
"181 637 OFFCURVE",
"291 637 CURVE SMOOTH",
"394 637 LINE",
"394 714 LINE",
"270 714 LINE SMOOTH",
"114 714 OFFCURVE",
"30 633 OFFCURVE",
"30 504 CURVE SMOOTH",
"30 360 OFFCURVE",
"135 302 OFFCURVE",
"280 302 CURVE SMOOTH",
"374 302 LINE",
"374 0 LINE"
);
}
);
width = 611;
}
);
},
{
glyphname = u1054D_fe26;
lastChange = "2019-02-19 19:00:23 +0000";
layers = (
{
layerId = "013C57DE-4010-4415-A39F-4966D9E8DBC5";
paths = (
{
closed = 1;
nodes = (
"503 854 LINE",
"503 924 LINE",
"-5 924 LINE",
"-5 854 LINE"
);
},
{
closed = 1;
nodes = (
"115 0 LINE",
"115 162 OFFCURVE",
"166 213 OFFCURVE",
"306 328 CURVE SMOOTH",
"416 418 OFFCURVE",
"468 463 OFFCURVE",
"468 548 CURVE SMOOTH",
"468 645 OFFCURVE",
"399 724 OFFCURVE",
"274 724 CURVE SMOOTH",
"151 724 OFFCURVE",
"71 649 OFFCURVE",
"71 538 CURVE SMOOTH",
"71 431 OFFCURVE",
"147 370 OFFCURVE",
"248 340 CURVE",
"309 389 LINE",
"217 408 OFFCURVE",
"158 459 OFFCURVE",
"158 540 CURVE SMOOTH",
"158 608 OFFCURVE",
"199 653 OFFCURVE",
"270 653 CURVE SMOOTH",
"340 653 OFFCURVE",
"379 610 OFFCURVE",
"379 545 CURVE SMOOTH",
"379 476 OFFCURVE",
"326 432 OFFCURVE",
"261 385 CURVE SMOOTH",
"80 253 OFFCURVE",
"30 169 OFFCURVE",
"30 0 CURVE"
);
},
{
closed = 1;
nodes = (
"468 0 LINE",
"468 77 LINE",
"51 77 LINE",
"51 0 LINE"
);
}
);
width = 498;
}
);
},
{
glyphname = u1054E_fe26;
lastChange = "2019-02-19 19:00:23 +0000";
layers = (
{
layerId = "013C57DE-4010-4415-A39F-4966D9E8DBC5";
paths = (
{
closed = 1;
nodes = (
"625 854 LINE",
"625 924 LINE",
"-5 924 LINE",
"-5 854 LINE"
);
},
{
closed = 1;
nodes = (
"540 1 LINE",
"540 715 LINE",
"452 715 LINE",
"452 580 LINE SMOOTH",
"452 476 OFFCURVE",
"408 417 OFFCURVE",
"324 417 CURVE SMOOTH",
"246 417 OFFCURVE",
"214 471 OFFCURVE",
"214 541 CURVE SMOOTH",
"214 602 OFFCURVE",
"233 667 OFFCURVE",
"271 714 CURVE",
"10 714 LINE",
"10 637 LINE",
"162 637 LINE",
"168 682 LINE",
"139 641 OFFCURVE",
"125 597 OFFCURVE",
"125 532 CURVE SMOOTH",
"125 422 OFFCURVE",
"183 341 OFFCURVE",
"300 341 CURVE SMOOTH",
"357 341 OFFCURVE",
"413 359 OFFCURVE",
"451 411 CURVE",
"457 411 LINE",
"453 368 OFFCURVE",
"452 355 OFFCURVE",
"452 335 CURVE SMOOTH",
"452 1 LINE"
);
}
);
width = 620;
}
);
},
{
glyphname = u1054F_fe26;
lastChange = "2019-02-19 19:00:23 +0000";
layers = (
{
layerId = "013C57DE-4010-4415-A39F-4966D9E8DBC5";
paths = (
{
closed = 1;
nodes = (
"636 854 LINE",
"636 924 LINE",
"-5 924 LINE",
"-5 854 LINE"
);
},
{
closed = 1;
nodes = (
"403 -10 OFFCURVE",
"472 78 OFFCURVE",
"472 263 CURVE SMOOTH",
"472 714 LINE",
"384 714 LINE",
"384 256 LINE SMOOTH",
"384 123 OFFCURVE",
"343 64 OFFCURVE",
"251 64 CURVE SMOOTH",
"160 64 OFFCURVE",
"119 129 OFFCURVE",
"119 273 CURVE SMOOTH",
"119 354 LINE",
"30 354 LINE",
"30 266 LINE SMOOTH",
"30 84 OFFCURVE",
"97 -10 OFFCURVE",
"253 -10 CURVE SMOOTH"
);
},
{
closed = 1;
nodes = (
"621 333 LINE",
"621 410 LINE",
"384 410 LINE",
"384 333 LINE"
);
}
);
width = 631;
}
);
},
{
glyphname = u10550_fe26;
lastChange = "2019-02-19 19:00:23 +0000";
layers = (
{
layerId = "013C57DE-4010-4415-A39F-4966D9E8DBC5";
paths = (
{
closed = 1;
nodes = (
"627 854 LINE",
"627 924 LINE",
"-5 924 LINE",
"-5 854 LINE"
);
},
{
closed = 1;
nodes = (
"392 -10 OFFCURVE",
"463 78 OFFCURVE",
"463 242 CURVE SMOOTH",
"463 714 LINE",
"375 714 LINE",
"375 261 LINE SMOOTH",
"375 132 OFFCURVE",
"341 64 OFFCURVE",
"246 64 CURVE SMOOTH",
"171 64 OFFCURVE",
"118 107 OFFCURVE",
"118 198 CURVE SMOOTH",
"118 301 OFFCURVE",
"185 332 OFFCURVE",
"297 332 CURVE SMOOTH",
"612 332 LINE",
"612 409 LINE",
"287 409 LINE SMOOTH",
"130 409 OFFCURVE",
"30 348 OFFCURVE",
"30 198 CURVE SMOOTH",
"30 66 OFFCURVE",
"107 -10 OFFCURVE",
"244 -10 CURVE SMOOTH"
);
},
{
closed = 1;
nodes = (
"386 637 LINE",
"386 714 LINE",
"76 714 LINE",
"76 637 LINE"
);
}
);
width = 622;
}
);
},
{
glyphname = u10551_fe26;
lastChange = "2019-02-19 19:00:23 +0000";
layers = (
{
layerId = "013C57DE-4010-4415-A39F-4966D9E8DBC5";
paths = (
{
closed = 1;
nodes = (
"616 854 LINE",
"616 924 LINE",
"-5 924 LINE",
"-5 854 LINE"
);
},
{
closed = 1;
nodes = (
"601 0 LINE",
"601 77 LINE",
"374 77 LINE",
"374 0 LINE"
);
},
{
closed = 1;
nodes = (
"462 0 LINE",
"462 714 LINE",
"374 714 LINE",
"374 379 LINE",
"291 379 LINE SMOOTH",
"187 379 OFFCURVE",
"121 414 OFFCURVE",
"121 507 CURVE SMOOTH",
"121 595 OFFCURVE",
"181 637 OFFCURVE",
"291 637 CURVE SMOOTH",
"394 637 LINE",
"394 714 LINE",
"270 714 LINE SMOOTH",
"114 714 OFFCURVE",
"30 633 OFFCURVE",
"30 504 CURVE SMOOTH",
"30 360 OFFCURVE",
"135 302 OFFCURVE",
"280 302 CURVE SMOOTH",
"374 302 LINE",
"374 0 LINE"
);
}
);
width = 611;
}
);
},
{
glyphname = u10552_fe26;
lastChange = "2019-02-19 19:00:23 +0000";
layers = (
{
layerId = "013C57DE-4010-4415-A39F-4966D9E8DBC5";
paths = (
{
closed = 1;
nodes = (
"760 854 LINE",
"760 924 LINE",
"-5 924 LINE",
"-5 854 LINE"
);
},
{
closed = 1;
nodes = (
"511 -10 OFFCURVE",
"600 143 OFFCURVE",
"600 361 CURVE SMOOTH",
"600 587 OFFCURVE",
"508 724 OFFCURVE",
"328 724 CURVE SMOOTH",
"143 724 OFFCURVE",
"50 576 OFFCURVE",
"50 359 CURVE SMOOTH",
"50 140 OFFCURVE",
"139 -10 OFFCURVE",
"325 -10 CURVE SMOOTH"
);
},
{
closed = 1;
nodes = (
"200 64 OFFCURVE",
"143 182 OFFCURVE",
"143 358 CURVE SMOOTH",
"143 532 OFFCURVE",
"201 650 OFFCURVE",
"329 650 CURVE SMOOTH",
"448 650 OFFCURVE",
"508 542 OFFCURVE",
"508 358 CURVE SMOOTH",
"508 181 OFFCURVE",
"452 64 OFFCURVE",
"326 64 CURVE SMOOTH"
);
},
{
closed = 1;
nodes = (
"745 333 LINE",
"745 410 LINE",
"508 410 LINE",
"508 333 LINE"
);
}
);
width = 755;
}
);
},
{
glyphname = u10553_fe26;
lastChange = "2019-02-19 19:00:23 +0000";
layers = (
{
layerId = "013C57DE-4010-4415-A39F-4966D9E8DBC5";
paths = (
{
closed = 1;
nodes = (
"530 854 LINE",
"530 924 LINE",
"-5 924 LINE",
"-5 854 LINE"
);
},
{
closed = 1;
nodes = (
"490 0 LINE",
"490 77 LINE",
"137 77 LINE",
"480 646 LINE",
"480 714 LINE",
"47 714 LINE",
"47 637 LINE",
"379 637 LINE",
"35 68 LINE",
"35 0 LINE"
);
}
);
width = 525;
}
);
},
{
glyphname = u10554_fe26;
lastChange = "2019-02-19 19:00:23 +0000";
layers = (
{
layerId = "013C57DE-4010-4415-A39F-4966D9E8DBC5";
paths = (
{
closed = 1;
nodes = (
"629 854 LINE",
"629 924 LINE",
"-5 924 LINE",
"-5 854 LINE"
);
},
{
closed = 1;
nodes = (
"614 637 LINE",
"614 714 LINE",
"198 714 LINE",
"198 637 LINE"
);
},
{
closed = 1;
nodes = (
"396 -10 OFFCURVE",
"465 80 OFFCURVE",
"465 248 CURVE SMOOTH",
"465 714 LINE",
"377 714 LINE",
"377 237 LINE SMOOTH",
"377 126 OFFCURVE",
"341 64 OFFCURVE",
"246 64 CURVE SMOOTH",
"163 64 OFFCURVE",
"119 109 OFFCURVE",
"119 224 CURVE SMOOTH",
"119 269 LINE",
"30 269 LINE",
"30 222 LINE SMOOTH",
"30 64 OFFCURVE",
"108 -10 OFFCURVE",
"247 -10 CURVE SMOOTH"
);
}
);
width = 624;
}
);
},
{
glyphname = u10555_fe26;
lastChange = "2019-02-19 19:00:23 +0000";
layers = (
{
layerId = "013C57DE-4010-4415-A39F-4966D9E8DBC5";
paths = (
{
closed = 1;
nodes = (
"605 854 LINE",
"605 924 LINE",
"-5 924 LINE",
"-5 854 LINE"
);
},
{
closed = 1;
nodes = (
"291 313 LINE SMOOTH",
"362 410 OFFCURVE",
"486 578 OFFCURVE",
"590 650 CURVE",
"538 714 LINE",
"410 620 OFFCURVE",
"263 420 OFFCURVE",
"208 343 CURVE SMOOTH",
"-5 48 LINE",
"59 -5 LINE"
);
},
{
closed = 1;
nodes = (
"519 -55 OFFCURVE",
"570 1 OFFCURVE",
"570 92 CURVE SMOOTH",
"570 160 LINE",
"488 160 LINE",
"488 99 LINE SMOOTH",
"488 45 OFFCURVE",
"472 20 OFFCURVE",
"421 20 CURVE SMOOTH",
"371 20 OFFCURVE",
"355 45 OFFCURVE",
"355 98 CURVE SMOOTH",
"355 160 LINE",
"273 135 LINE",
"273 86 LINE SMOOTH",
"273 -5 OFFCURVE",
"323 -55 OFFCURVE",
"421 -55 CURVE SMOOTH"
);
},
{
closed = 1;
nodes = (
"355 82 LINE",
"355 160 LINE",
"59 70 LINE",
"59 -5 LINE"
);
}
);
width = 600;
}
);
},
{
glyphname = u10556_fe26;
lastChange = "2019-02-19 19:00:23 +0000";
layers = (
{
layerId = "013C57DE-4010-4415-A39F-4966D9E8DBC5";
paths = (
{
closed = 1;
nodes = (
"548 854 LINE",
"548 924 LINE",
"-5 924 LINE",
"-5 854 LINE"
);
},
{
closed = 1;
nodes = (
"421 -10 OFFCURVE",
"513 73 OFFCURVE",
"513 212 CURVE SMOOTH",
"513 334 OFFCURVE",
"448 400 OFFCURVE",
"365 466 CURVE SMOOTH",
"302 516 OFFCURVE",
"280 534 OFFCURVE",
"280 681 CURVE SMOOTH",
"280 714 LINE",
"193 714 LINE",
"193 686 LINE SMOOTH",
"193 497 OFFCURVE",
"246 452 OFFCURVE",
"322 398 CURVE SMOOTH",
"376 360 OFFCURVE",
"424 306 OFFCURVE",
"424 211 CURVE SMOOTH",
"424 124 OFFCURVE",
"378 64 OFFCURVE",
"272 64 CURVE SMOOTH",
"215 64 OFFCURVE",
"168 90 OFFCURVE",
"134 125 CURVE",
"85 59 LINE",
"128 21 OFFCURVE",
"186 -10 OFFCURVE",
"277 -10 CURVE SMOOTH"
);
},
{
closed = 1;
nodes = (
"416 637 LINE",
"416 714 LINE",
"10 714 LINE",
"10 637 LINE"
);
}
);
width = 543;
}
);
},
{
glyphname = u10557_fe26;
lastChange = "2019-02-19 19:00:23 +0000";
layers = (
{
layerId = "013C57DE-4010-4415-A39F-4966D9E8DBC5";
paths = (
{
closed = 1;
nodes = (
"673 854 LINE",
"673 924 LINE",
"-5 924 LINE",
"-5 854 LINE"
);
},
{
closed = 1;
nodes = (
"658 302 LINE",
"658 379 LINE",
"409 379 LINE",
"409 302 LINE"
);
},
{
closed = 1;
nodes = (
"658 179 LINE",
"658 379 LINE",
"579 379 LINE",
"579 179 LINE"
);
},
{
closed = 1;
nodes = (
"462 0 LINE",
"462 714 LINE",
"374 714 LINE",
"374 379 LINE",
"291 379 LINE SMOOTH",
"187 379 OFFCURVE",
"121 414 OFFCURVE",
"121 507 CURVE SMOOTH",
"121 595 OFFCURVE",
"181 637 OFFCURVE",
"291 637 CURVE SMOOTH",
"394 637 LINE",
"394 714 LINE",
"270 714 LINE SMOOTH",
"114 714 OFFCURVE",
"30 633 OFFCURVE",
"30 504 CURVE SMOOTH",
"30 360 OFFCURVE",
"135 302 OFFCURVE",
"280 302 CURVE SMOOTH",
"374 302 LINE",
"374 0 LINE"
);
}
);
width = 668;
}
);
},
{
glyphname = u10558_fe26;
lastChange = "2019-02-19 19:00:23 +0000";
layers = (
{
layerId = "013C57DE-4010-4415-A39F-4966D9E8DBC5";
paths = (
{
closed = 1;
nodes = (
"527 854 LINE",
"527 924 LINE",
"-5 924 LINE",
"-5 854 LINE"
);
},
{
closed = 1;
nodes = (
"481 637 LINE",
"481 714 LINE",
"115 714 LINE",
"115 637 LINE"
);
},
{
closed = 1;
nodes = (
"395 -10 OFFCURVE",
"482 75 OFFCURVE",
"482 212 CURVE SMOOTH",
"482 363 OFFCURVE",
"377 433 OFFCURVE",
"292 489 CURVE SMOOTH",
"197 552 OFFCURVE",
"175 576 OFFCURVE",
"162 714 CURVE",
"75 714 LINE",
"86 528 OFFCURVE",
"148 486 OFFCURVE",
"249 421 CURVE SMOOTH",
"332 368 OFFCURVE",
"393 325 OFFCURVE",
"393 216 CURVE SMOOTH",
"393 121 OFFCURVE",
"351 64 OFFCURVE",
"254 64 CURVE SMOOTH",
"150 64 OFFCURVE",
"119 130 OFFCURVE",
"119 205 CURVE SMOOTH",
"119 240 OFFCURVE",
"126 282 OFFCURVE",
"141 313 CURVE",
"66 347 LINE",
"42 302 OFFCURVE",
"30 246 OFFCURVE",
"30 199 CURVE SMOOTH",
"30 89 OFFCURVE",
"95 -10 OFFCURVE",
"251 -10 CURVE SMOOTH"
);
}
);
width = 522;
}
);
},
{
glyphname = u10559_fe26;
lastChange = "2019-02-19 19:00:23 +0000";
layers = (
{
layerId = "013C57DE-4010-4415-A39F-4966D9E8DBC5";
paths = (
{
closed = 1;
nodes = (
"827 854 LINE",
"827 924 LINE",
"-5 924 LINE",
"-5 854 LINE"
);
},
{
closed = 1;
nodes = (
"340 -10 OFFCURVE",
"400 37 OFFCURVE",
"421 123 CURVE",
"401 123 LINE",
"422 37 OFFCURVE",
"477 -10 OFFCURVE",
"582 -10 CURVE SMOOTH",
"717 -10 OFFCURVE",
"792 64 OFFCURVE",
"792 223 CURVE SMOOTH",
"792 269 LINE",
"704 269 LINE",
"704 236 LINE SMOOTH",
"704 109 OFFCURVE",
"661 64 OFFCURVE",
"583 64 CURVE SMOOTH",
"490 64 OFFCURVE",
"455 126 OFFCURVE",
"455 237 CURVE SMOOTH",
"455 714 LINE",
"367 714 LINE",
"367 237 LINE SMOOTH",
"367 126 OFFCURVE",
"332 64 OFFCURVE",
"239 64 CURVE SMOOTH",
"161 64 OFFCURVE",
"118 109 OFFCURVE",
"118 232 CURVE SMOOTH",
"118 269 LINE",
"30 269 LINE",
"30 217 LINE SMOOTH",
"30 64 OFFCURVE",
"105 -10 OFFCURVE",
"240 -10 CURVE SMOOTH"
);
}
);
width = 822;
}
);
},
{
glyphname = u1055A_fe26;
lastChange = "2019-02-19 19:00:23 +0000";
layers = (
{
layerId = "013C57DE-4010-4415-A39F-4966D9E8DBC5";
paths = (
{
closed = 1;
nodes = (
"612 854 LINE",
"612 924 LINE",
"-5 924 LINE",
"-5 854 LINE"
);
},
{
closed = 1;
nodes = (
"247 0 LINE",
"247 214 LINE SMOOTH",
"247 307 OFFCURVE",
"283 398 OFFCURVE",
"377 398 CURVE SMOOTH",
"445 398 OFFCURVE",
"478 351 OFFCURVE",
"478 244 CURVE SMOOTH",
"478 0 LINE",
"566 0 LINE",
"566 262 LINE SMOOTH",
"566 414 OFFCURVE",
"499 473 OFFCURVE",
"402 473 CURVE SMOOTH",
"333 473 OFFCURVE",
"283 447 OFFCURVE",
"248 386 CURVE",
"243 386 LINE",
"246 435 OFFCURVE",
"247 465 OFFCURVE",
"247 496 CURVE SMOOTH",
"247 714 LINE",
"159 714 LINE",
"159 0 LINE"
);
},
{
closed = 1;
nodes = (
"247 637 LINE",
"247 714 LINE",
"10 714 LINE",
"10 637 LINE"
);
}
);
width = 607;
}
);
},
{
glyphname = u1055B_fe26;
lastChange = "2019-02-19 19:00:23 +0000";
layers = (
{
layerId = "013C57DE-4010-4415-A39F-4966D9E8DBC5";
paths = (
{
closed = 1;
nodes = (
"606 854 LINE",
"606 924 LINE",
"-5 924 LINE",
"-5 854 LINE"
);
},
{
closed = 1;
nodes = (
"168 0 LINE",
"168 714 LINE",
"80 714 LINE",
"80 0 LINE"
);
},
{
closed = 1;
nodes = (
"540 173 OFFCURVE",
"591 229 OFFCURVE",
"591 320 CURVE SMOOTH",
"591 388 LINE",
"509 388 LINE",
"509 327 LINE SMOOTH",
"509 273 OFFCURVE",
"493 248 OFFCURVE",
"442 248 CURVE SMOOTH",
"392 248 OFFCURVE",
"376 273 OFFCURVE",
"376 326 CURVE SMOOTH",
"376 388 LINE",
"294 363 LINE",
"294 314 LINE SMOOTH",
"294 223 OFFCURVE",
"344 173 OFFCURVE",
"442 173 CURVE SMOOTH"
);
},
{
closed = 1;
nodes = (
"376 310 LINE",
"376 388 LINE",
"80 298 LINE",
"80 223 LINE"
);
}
);
width = 601;
}
);
},
{
glyphname = u1055C_fe26;
lastChange = "2019-02-19 19:00:23 +0000";
layers = (
{
layerId = "013C57DE-4010-4415-A39F-4966D9E8DBC5";
paths = (
{
closed = 1;
nodes = (
"692 854 LINE",
"692 924 LINE",
"-5 924 LINE",
"-5 854 LINE"
);
},
{
closed = 1;
nodes = (
"589 -10 OFFCURVE",
"667 68 OFFCURVE",
"667 201 CURVE SMOOTH",
"667 351 OFFCURVE",
"568 409 OFFCURVE",
"442 409 CURVE SMOOTH",
"212 409 OFFCURVE",
"96 214 OFFCURVE",
"10 30 CURVE",
"81 -5 LINE",
"164 173 OFFCURVE",
"258 332 OFFCURVE",
"432 332 CURVE SMOOTH",
"513 332 OFFCURVE",
"579 297 OFFCURVE",
"579 198 CURVE SMOOTH",
"579 108 OFFCURVE",
"526 64 OFFCURVE",
"455 64 CURVE SMOOTH",
"353 64 OFFCURVE",
"322 153 OFFCURVE",
"322 267 CURVE SMOOTH",
"322 714 LINE",
"234 714 LINE",
"234 242 LINE SMOOTH",
"234 78 OFFCURVE",
"310 -10 OFFCURVE",
"454 -10 CURVE SMOOTH"
);
},
{
closed = 1;
nodes = (
"322 637 LINE",
"322 714 LINE",
"22 714 LINE",
"22 637 LINE"
);
}
);
width = 687;
}
);
},
{
glyphname = u1055D_fe26;
lastChange = "2019-02-19 19:00:23 +0000";
layers = (
{
layerId = "013C57DE-4010-4415-A39F-4966D9E8DBC5";
paths = (
{
closed = 1;
nodes = (
"538 854 LINE",
"538 924 LINE",
"-5 924 LINE",
"-5 854 LINE"
);
},
{
closed = 1;
nodes = (
"425 -10 OFFCURVE",
"503 75 OFFCURVE",
"503 181 CURVE SMOOTH",
"503 299 OFFCURVE",
"405 364 OFFCURVE",
"237 364 CURVE SMOOTH",
"220 364 LINE",
"161 312 LINE",
"176 312 LINE SMOOTH",
"337 312 OFFCURVE",
"414 260 OFFCURVE",
"414 180 CURVE SMOOTH",
"414 111 OFFCURVE",
"357 64 OFFCURVE",
"266 64 CURVE SMOOTH",
"187 64 OFFCURVE",
"119 99 OFFCURVE",
"119 186 CURVE SMOOTH",
"119 273 OFFCURVE",
"188 313 OFFCURVE",
"283 366 CURVE SMOOTH",
"392 427 OFFCURVE",
"461 472 OFFCURVE",
"461 570 CURVE SMOOTH",
"461 673 OFFCURVE",
"383 724 OFFCURVE",
"276 724 CURVE SMOOTH",
"149 724 OFFCURVE",
"88 652 OFFCURVE",
"88 572 CURVE SMOOTH",
"88 472 OFFCURVE",
"185 433 OFFCURVE",
"283 420 CURVE",
"339 471 LINE",
"245 476 OFFCURVE",
"175 506 OFFCURVE",
"175 574 CURVE SMOOTH",
"175 622 OFFCURVE",
"210 653 OFFCURVE",
"275 653 CURVE SMOOTH",
"337 653 OFFCURVE",
"373 625 OFFCURVE",
"373 569 CURVE SMOOTH",
"373 497 OFFCURVE",
"304 456 OFFCURVE",
"226 413 CURVE SMOOTH",
"146 369 OFFCURVE",
"30 304 OFFCURVE",
"30 174 CURVE SMOOTH",
"30 58 OFFCURVE",
"123 -10 OFFCURVE",
"266 -10 CURVE SMOOTH"
);
}
);
width = 533;
}
);
},
{
glyphname = u1055E_fe26;
lastChange = "2019-02-19 19:00:23 +0000";
layers = (
{
layerId = "013C57DE-4010-4415-A39F-4966D9E8DBC5";
paths = (
{
closed = 1;
nodes = (
"795 854 LINE",
"795 924 LINE",
"-5 924 LINE",
"-5 854 LINE"
);
},
{
closed = 1;
nodes = (
"780 333 LINE",
"780 410 LINE",
"543 410 LINE",
"543 333 LINE"
);
},
{
closed = 1;
nodes = (
"247 637 LINE",
"247 714 LINE",
"10 714 LINE",
"10 637 LINE"
);
},
{
closed = 1;
nodes = (
"535 -10 OFFCURVE",
"621 72 OFFCURVE",
"621 244 CURVE SMOOTH",
"621 714 LINE",
"533 714 LINE",
"533 267 LINE SMOOTH",
"533 119 OFFCURVE",
"482 64 OFFCURVE",
"391 64 CURVE SMOOTH",
"299 64 OFFCURVE",
"248 117 OFFCURVE",
"248 267 CURVE SMOOTH",
"248 714 LINE",
"160 714 LINE",
"160 244 LINE SMOOTH",
"160 71 OFFCURVE",
"242 -10 OFFCURVE",
"388 -10 CURVE SMOOTH"
);
}
);
width = 790;
}
);
},
{
glyphname = u1055F_fe26;
lastChange = "2019-02-19 19:00:23 +0000";
layers = (
{
layerId = "013C57DE-4010-4415-A39F-4966D9E8DBC5";
paths = (
{
closed = 1;
nodes = (
"631 854 LINE",
"631 924 LINE",
"-5 924 LINE",
"-5 854 LINE"
);
},
{
closed = 1;
nodes = (
"357 0 LINE",
"357 678 LINE",
"269 678 LINE",
"269 0 LINE"
);
},
{
closed = 1;
nodes = (
"616 445 LINE",
"616 613 OFFCURVE",
"553 714 OFFCURVE",
"349 714 CURVE SMOOTH",
"269 714 LINE",
"269 637 LINE",
"344 637 LINE SMOOTH",
"491 637 OFFCURVE",
"528 560 OFFCURVE",
"528 445 CURVE"
);
},
{
closed = 1;
nodes = (
"10 528 LINE",
"10 360 OFFCURVE",
"73 259 OFFCURVE",
"277 259 CURVE SMOOTH",
"357 259 LINE",
"357 336 LINE",
"282 336 LINE SMOOTH",
"135 336 OFFCURVE",
"98 413 OFFCURVE",
"98 528 CURVE"
);
}
);
width = 626;
}
);
},
{
glyphname = u10560_fe26;
lastChange = "2019-02-19 19:00:23 +0000";
layers = (
{
layerId = "013C57DE-4010-4415-A39F-4966D9E8DBC5";
paths = (
{
closed = 1;
nodes = (
"612 854 LINE",
"612 924 LINE",
"-5 924 LINE",
"-5 854 LINE"
);
},
{
closed = 1;
nodes = (
"98 445 LINE",
"98 571 OFFCURVE",
"156 647 OFFCURVE",
"302 647 CURVE SMOOTH",
"448 647 OFFCURVE",
"509 575 OFFCURVE",
"509 445 CURVE",
"597 445 LINE",
"597 629 OFFCURVE",
"502 724 OFFCURVE",
"301 724 CURVE SMOOTH",
"106 724 OFFCURVE",
"10 630 OFFCURVE",
"10 445 CURVE"
);
},
{
closed = 1;
nodes = (
"347 0 LINE",
"347 678 LINE",
"259 678 LINE",
"259 0 LINE"
);
}
);
width = 607;
}
);
},
{
glyphname = u10561_fe26;
lastChange = "2019-02-19 19:00:23 +0000";
layers = (
{
layerId = "013C57DE-4010-4415-A39F-4966D9E8DBC5";
paths = (
{
closed = 1;
nodes = (
"457 854 LINE",
"457 924 LINE",
"-5 924 LINE",
"-5 854 LINE"
);
},
{
closed = 1;
nodes = (
"293 0 LINE",
"293 714 LINE",
"10 714 LINE",
"10 637 LINE",
"205 637 LINE",
"205 0 LINE"
);
},
{
closed = 1;
nodes = (
"442 332 LINE",
"442 409 LINE",
"205 409 LINE",
"205 332 LINE"
);
}
);
width = 452;
}
);
},
{
glyphname = u10562_fe26;
lastChange = "2019-02-19 19:00:23 +0000";
layers = (
{
layerId = "013C57DE-4010-4415-A39F-4966D9E8DBC5";
paths = (
{
closed = 1;
nodes = (
"550 854 LINE",
"550 924 LINE",
"-5 924 LINE",
"-5 854 LINE"
);
},
{
closed = 1;
nodes = (
"413 234 OFFCURVE",
"495 313 OFFCURVE",
"495 478 CURVE SMOOTH",
"495 714 LINE",
"407 714 LINE",
"407 501 LINE SMOOTH",
"407 364 OFFCURVE",
"370 310 OFFCURVE",
"270 310 CURVE SMOOTH",
"170 310 OFFCURVE",
"138 364 OFFCURVE",
"138 501 CURVE SMOOTH",
"138 714 LINE",
"50 714 LINE",
"50 478 LINE SMOOTH",
"50 312 OFFCURVE",
"129 234 OFFCURVE",
"270 234 CURVE SMOOTH"
);
},
{
closed = 1;
nodes = (
"314 0 LINE",
"314 275 LINE",
"226 275 LINE",
"226 0 LINE"
);
}
);
width = 545;
}
);
},
{
glyphname = u10563_fe26;
lastChange = "2019-02-19 19:00:23 +0000";
layers = (
{
layerId = "013C57DE-4010-4415-A39F-4966D9E8DBC5";
paths = (
{
closed = 1;
nodes = (
"503 854 LINE",
"503 924 LINE",
"-5 924 LINE",
"-5 854 LINE"
);
},
{
closed = 1;
nodes = (
"293 -43 LINE",
"293 120 LINE",
"488 120 LINE",
"488 197 LINE",
"293 197 LINE",
"293 714 LINE",
"205 714 LINE",
"205 197 LINE",
"10 197 LINE",
"10 120 LINE",
"205 120 LINE",
"205 -43 LINE"
);
}
);
width = 498;
}
);
},
{
glyphname = u10530_fe2d;
lastChange = "2019-02-19 19:00:23 +0000";
layers = (
{
layerId = "013C57DE-4010-4415-A39F-4966D9E8DBC5";
paths = (
{
closed = 1;
nodes = (
"516 -271 LINE",
"516 -201 LINE",
"-5 -201 LINE",
"-5 -271 LINE"
);
},
{
closed = 1;
nodes = (
"128 40 OFFCURVE",
"208 63 OFFCURVE",
"284 63 CURVE SMOOTH",
"350 63 OFFCURVE",
"414 38 OFFCURVE",
"462 -5 CURVE",
"501 66 LINE",
"451 109 OFFCURVE",
"370 137 OFFCURVE",
"293 137 CURVE SMOOTH",
"222 137 OFFCURVE",
"168 120 OFFCURVE",
"108 72 CURVE",
"74 -5 LINE"
);
},
{
closed = 1;
nodes = (
"337 308 LINE SMOOTH",
"412 398 OFFCURVE",
"466 466 OFFCURVE",
"466 551 CURVE SMOOTH",
"466 651 OFFCURVE",
"391 724 OFFCURVE",
"265 724 CURVE SMOOTH",
"133 724 OFFCURVE",
"49 645 OFFCURVE",
"49 532 CURVE SMOOTH",
"49 411 OFFCURVE",
"145 351 OFFCURVE",
"269 319 CURVE",
"313 376 LINE",
"213 399 OFFCURVE",
"136 449 OFFCURVE",
"136 535 CURVE SMOOTH",
"136 602 OFFCURVE",
"183 653 OFFCURVE",
"262 653 CURVE SMOOTH",
"342 653 OFFCURVE",
"377 599 OFFCURVE",
"377 544 CURVE SMOOTH",
"377 475 OFFCURVE",
"318 404 OFFCURVE",
"268 345 CURVE SMOOTH",
"16 48 LINE",
"74 -5 LINE"
);
}
);
width = 511;
}
);
},
{
glyphname = u10531_fe2d;
lastChange = "2019-02-19 19:00:23 +0000";
layers = (
{
layerId = "013C57DE-4010-4415-A39F-4966D9E8DBC5";
paths = (
{
closed = 1;
nodes = (
"541 -271 LINE",
"541 -201 LINE",
"-5 -201 LINE",
"-5 -271 LINE"
);
},
{
closed = 1;
nodes = (
"447 529 LINE",
"447 606 LINE",
"91 606 LINE",
"91 529 LINE"
);
},
{
closed = 1;
nodes = (
"434 -10 OFFCURVE",
"506 79 OFFCURVE",
"506 205 CURVE SMOOTH",
"506 317 OFFCURVE",
"443 410 OFFCURVE",
"260 410 CURVE SMOOTH",
"156 410 LINE",
"156 714 LINE",
"70 714 LINE",
"70 216 LINE SMOOTH",
"70 84 OFFCURVE",
"122 -10 OFFCURVE",
"285 -10 CURVE SMOOTH"
);
},
{
closed = 1;
nodes = (
"200 63 OFFCURVE",
"156 109 OFFCURVE",
"156 224 CURVE SMOOTH",
"156 333 LINE",
"249 333 LINE SMOOTH",
"359 333 OFFCURVE",
"417 295 OFFCURVE",
"417 205 CURVE SMOOTH",
"417 115 OFFCURVE",
"370 63 OFFCURVE",
"284 63 CURVE SMOOTH"
);
}
);
width = 536;
}
);
},
{
glyphname = u10532_fe2d;
lastChange = "2019-02-19 19:00:23 +0000";
layers = (
{
layerId = "013C57DE-4010-4415-A39F-4966D9E8DBC5";
paths = (
{
closed = 1;
nodes = (
"582 -271 LINE",
"582 -201 LINE",
"-5 -201 LINE",
"-5 -271 LINE"
);
},
{
closed = 1;
nodes = (
"453 0 LINE",
"453 241 LINE",
"426 232 OFFCURVE",
"398 229 OFFCURVE",
"367 229 CURVE SMOOTH",
"208 229 OFFCURVE",
"142 307 OFFCURVE",
"142 438 CURVE SMOOTH",
"142 560 OFFCURVE",
"200 650 OFFCURVE",
"313 650 CURVE SMOOTH",
"410 650 OFFCURVE",
"459 588 OFFCURVE",
"459 471 CURVE",
"547 471 LINE",
"547 636 OFFCURVE",
"468 724 OFFCURVE",
"314 724 CURVE SMOOTH",
"144 724 OFFCURVE",
"50 610 OFFCURVE",
"50 437 CURVE SMOOTH",
"50 259 OFFCURVE",
"139 153 OFFCURVE",
"365 153 CURVE",
"365 0 LINE"
);
}
);
width = 577;
}
);
},
{
glyphname = u10533_fe2d;
lastChange = "2019-02-19 19:00:23 +0000";
layers = (
{
layerId = "013C57DE-4010-4415-A39F-4966D9E8DBC5";
paths = (
{
closed = 1;
nodes = (
"597 -271 LINE",
"597 -201 LINE",
"-5 -201 LINE",
"-5 -271 LINE"
);
},
{
closed = 1;
nodes = (
"341 0 LINE",
"341 187 LINE",
"479 197 OFFCURVE",
"562 309 OFFCURVE",
"562 455 CURVE SMOOTH",
"562 605 OFFCURVE",
"474 724 OFFCURVE",
"298 724 CURVE SMOOTH",
"121 724 OFFCURVE",
"30 605 OFFCURVE",
"30 454 CURVE SMOOTH",
"30 308 OFFCURVE",
"114 197 OFFCURVE",
"253 187 CURVE",
"253 0 LINE"
);
},
{
closed = 1;
nodes = (
"184 261 OFFCURVE",
"120 333 OFFCURVE",
"120 455 CURVE SMOOTH",
"120 559 OFFCURVE",
"167 650 OFFCURVE",
"297 650 CURVE SMOOTH",
"423 650 OFFCURVE",
"472 564 OFFCURVE",
"472 455 CURVE SMOOTH",
"472 334 OFFCURVE",
"411 261 OFFCURVE",
"297 261 CURVE SMOOTH"
);
}
);
width = 592;
}
);
},
{
glyphname = u10534_fe2d;
lastChange = "2019-02-19 19:00:23 +0000";
layers = (
{
layerId = "013C57DE-4010-4415-A39F-4966D9E8DBC5";
paths = (
{
closed = 1;
nodes = (
"629 -271 LINE",
"629 -201 LINE",
"-5 -201 LINE",
"-5 -271 LINE"
);
},
{
closed = 1;
nodes = (
"614 333 LINE",
"614 410 LINE",
"377 410 LINE",
"377 333 LINE"
);
},
{
closed = 1;
nodes = (
"396 -10 OFFCURVE",
"465 80 OFFCURVE",
"465 248 CURVE SMOOTH",
"465 714 LINE",
"377 714 LINE",
"377 237 LINE SMOOTH",
"377 126 OFFCURVE",
"341 64 OFFCURVE",
"246 64 CURVE SMOOTH",
"163 64 OFFCURVE",
"119 109 OFFCURVE",
"119 224 CURVE SMOOTH",
"119 269 LINE",
"30 269 LINE",
"30 222 LINE SMOOTH",
"30 64 OFFCURVE",
"108 -10 OFFCURVE",
"247 -10 CURVE SMOOTH"
);
}
);
width = 624;
}
);
},
{
glyphname = u10535_fe2d;
lastChange = "2019-02-19 19:00:23 +0000";
layers = (
{
layerId = "013C57DE-4010-4415-A39F-4966D9E8DBC5";
paths = (
{
closed = 1;
nodes = (
"527 -271 LINE",
"527 -201 LINE",
"-5 -201 LINE",
"-5 -271 LINE"
);
},
{
closed = 1;
nodes = (
"405 -10 OFFCURVE",
"492 75 OFFCURVE",
"492 212 CURVE SMOOTH",
"492 363 OFFCURVE",
"387 433 OFFCURVE",
"302 489 CURVE SMOOTH",
"207 552 OFFCURVE",
"185 576 OFFCURVE",
"172 714 CURVE",
"85 714 LINE",
"96 528 OFFCURVE",
"158 486 OFFCURVE",
"259 421 CURVE SMOOTH",
"342 368 OFFCURVE",
"403 325 OFFCURVE",
"403 216 CURVE SMOOTH",
"403 121 OFFCURVE",
"361 64 OFFCURVE",
"264 64 CURVE SMOOTH",
"160 64 OFFCURVE",
"129 130 OFFCURVE",
"129 205 CURVE SMOOTH",
"129 240 OFFCURVE",
"136 282 OFFCURVE",
"151 313 CURVE",
"76 347 LINE",
"52 302 OFFCURVE",
"40 246 OFFCURVE",
"40 199 CURVE SMOOTH",
"40 89 OFFCURVE",
"105 -10 OFFCURVE",
"261 -10 CURVE SMOOTH"
);
}
);
width = 522;
}
);
},
{
glyphname = u10536_fe2d;
lastChange = "2019-02-19 19:00:23 +0000";
layers = (
{
layerId = "013C57DE-4010-4415-A39F-4966D9E8DBC5";
paths = (
{
closed = 1;
nodes = (
"443 -271 LINE",
"443 -201 LINE",
"-5 -201 LINE",
"-5 -271 LINE"
);
},
{
closed = 1;
nodes = (
"168 0 LINE",
"168 637 LINE",
"408 637 LINE",
"408 714 LINE",
"80 714 LINE",
"80 0 LINE"
);
},
{
closed = 1;
nodes = (
"408 0 LINE",
"408 77 LINE",
"80 77 LINE",
"80 0 LINE"
);
}
);
width = 438;
}
);
},
{
glyphname = u10537_fe2d;
lastChange = "2019-02-19 19:00:23 +0000";
layers = (
{
layerId = "013C57DE-4010-4415-A39F-4966D9E8DBC5";
paths = (
{
closed = 1;
nodes = (
"547 -271 LINE",
"547 -201 LINE",
"-5 -201 LINE",
"-5 -271 LINE"
);
},
{
closed = 1;
nodes = (
"472 120 LINE",
"472 197 LINE",
"116 197 LINE",
"116 120 LINE"
);
},
{
closed = 1;
nodes = (
"168 302 LINE",
"262 302 LINE SMOOTH",
"407 302 OFFCURVE",
"512 360 OFFCURVE",
"512 504 CURVE SMOOTH",
"512 633 OFFCURVE",
"428 714 OFFCURVE",
"272 714 CURVE SMOOTH",
"148 714 LINE",
"148 637 LINE",
"251 637 LINE SMOOTH",
"361 637 OFFCURVE",
"421 595 OFFCURVE",
"421 507 CURVE SMOOTH",
"421 414 OFFCURVE",
"355 379 OFFCURVE",
"251 379 CURVE SMOOTH",
"168 379 LINE",
"168 714 LINE",
"80 714 LINE",
"80 0 LINE",
"168 0 LINE"
);
}
);
width = 542;
}
);
},
{
glyphname = u10538_fe2d;
lastChange = "2019-02-19 19:00:23 +0000";
layers = (
{
layerId = "013C57DE-4010-4415-A39F-4966D9E8DBC5";
paths = (
{
closed = 1;
nodes = (
"540 -271 LINE",
"540 -201 LINE",
"-5 -201 LINE",
"-5 -271 LINE"
);
},
{
closed = 1;
nodes = (
"421 637 LINE",
"421 714 LINE",
"102 714 LINE",
"102 637 LINE"
);
},
{
closed = 1;
nodes = (
"190 463 LINE",
"190 663 LINE",
"102 663 LINE",
"102 463 LINE"
);
},
{
closed = 1;
nodes = (
"396 -10 OFFCURVE",
"465 80 OFFCURVE",
"465 248 CURVE SMOOTH",
"465 714 LINE",
"377 714 LINE",
"377 237 LINE SMOOTH",
"377 126 OFFCURVE",
"341 64 OFFCURVE",
"246 64 CURVE SMOOTH",
"163 64 OFFCURVE",
"119 109 OFFCURVE",
"119 224 CURVE SMOOTH",
"119 269 LINE",
"30 269 LINE",
"30 222 LINE SMOOTH",
"30 64 OFFCURVE",
"108 -10 OFFCURVE",
"247 -10 CURVE SMOOTH"
);
}
);
width = 535;
}
);
},
{
glyphname = u10539_fe2d;
lastChange = "2019-02-19 19:00:23 +0000";
layers = (
{
layerId = "013C57DE-4010-4415-A39F-4966D9E8DBC5";
paths = (
{
closed = 1;
nodes = (
"582 -271 LINE",
"582 -201 LINE",
"-5 -201 LINE",
"-5 -271 LINE"
);
},
{
closed = 1;
nodes = (
"516 -45 OFFCURVE",
"567 11 OFFCURVE",
"567 102 CURVE SMOOTH",
"567 190 LINE",
"485 190 LINE",
"485 108 LINE SMOOTH",
"485 57 OFFCURVE",
"469 29 OFFCURVE",
"420 29 CURVE SMOOTH",
"368 29 OFFCURVE",
"352 57 OFFCURVE",
"352 113 CURVE SMOOTH",
"352 190 LINE",
"273 138 LINE",
"273 96 LINE SMOOTH",
"273 7 OFFCURVE",
"320 -45 OFFCURVE",
"416 -45 CURVE SMOOTH"
);
},
{
closed = 1;
nodes = (
"352 98 LINE",
"352 190 LINE",
"130 64 LINE",
"168 0 LINE"
);
},
{
closed = 1;
nodes = (
"168 0 LINE",
"168 714 LINE",
"80 714 LINE",
"80 0 LINE"
);
}
);
width = 577;
}
);
},
{
glyphname = u1053A_fe2d;
lastChange = "2019-02-19 19:00:23 +0000";
layers = (
{
layerId = "013C57DE-4010-4415-A39F-4966D9E8DBC5";
paths = (
{
closed = 1;
nodes = (
"423 -271 LINE",
"423 -201 LINE",
"-5 -201 LINE",
"-5 -271 LINE"
);
},
{
closed = 1;
nodes = (
"338 0 LINE",
"338 714 LINE",
"10 714 LINE",
"10 637 LINE",
"250 637 LINE",
"250 0 LINE"
);
}
);
width = 418;
}
);
},
{
glyphname = u1053B_fe2d;
lastChange = "2019-02-19 19:00:23 +0000";
layers = (
{
layerId = "013C57DE-4010-4415-A39F-4966D9E8DBC5";
paths = (
{
closed = 1;
nodes = (
"481 -271 LINE",
"481 -201 LINE",
"-5 -201 LINE",
"-5 -271 LINE"
);
},
{
closed = 1;
nodes = (
"88 0 LINE",
"227 383 LINE",
"231 383 LINE",
"384 0 LINE",
"481 0 LINE",
"275 483 LINE",
"308 558 OFFCURVE",
"343 612 OFFCURVE",
"408 662 CURVE",
"359 724 LINE",
"264 667 OFFCURVE",
"203 534 OFFCURVE",
"162 428 CURVE SMOOTH",
"-5 0 LINE"
);
}
);
width = 476;
}
);
},
{
glyphname = u1053C_fe2d;
lastChange = "2019-02-19 19:00:23 +0000";
layers = (
{
layerId = "013C57DE-4010-4415-A39F-4966D9E8DBC5";
paths = (
{
closed = 1;
nodes = (
"579 -271 LINE",
"579 -201 LINE",
"-5 -201 LINE",
"-5 -271 LINE"
);
},
{
closed = 1;
nodes = (
"494 0 LINE",
"494 714 LINE",
"406 714 LINE",
"406 643 LINE SMOOTH",
"406 485 OFFCURVE",
"367 406 OFFCURVE",
"258 406 CURVE SMOOTH",
"172 406 OFFCURVE",
"139 455 OFFCURVE",
"139 580 CURVE SMOOTH",
"139 714 LINE",
"51 714 LINE",
"51 548 LINE SMOOTH",
"51 391 OFFCURVE",
"118 331 OFFCURVE",
"236 331 CURVE SMOOTH",
"313 331 OFFCURVE",
"367 357 OFFCURVE",
"405 419 CURVE",
"410 419 LINE",
"407 373 OFFCURVE",
"406 339 OFFCURVE",
"406 308 CURVE SMOOTH",
"406 0 LINE"
);
}
);
width = 574;
}
);
},
{
glyphname = u1053D_fe2d;
lastChange = "2019-02-19 19:00:23 +0000";
layers = (
{
layerId = "013C57DE-4010-4415-A39F-4966D9E8DBC5";
paths = (
{
closed = 1;
nodes = (
"541 -271 LINE",
"541 -201 LINE",
"-5 -201 LINE",
"-5 -271 LINE"
);
},
{
closed = 1;
nodes = (
"434 -10 OFFCURVE",
"506 79 OFFCURVE",
"506 205 CURVE SMOOTH",
"506 317 OFFCURVE",
"443 410 OFFCURVE",
"260 410 CURVE SMOOTH",
"156 410 LINE",
"156 714 LINE",
"70 714 LINE",
"70 216 LINE SMOOTH",
"70 84 OFFCURVE",
"122 -10 OFFCURVE",
"285 -10 CURVE SMOOTH"
);
},
{
closed = 1;
nodes = (
"200 63 OFFCURVE",
"156 109 OFFCURVE",
"156 224 CURVE SMOOTH",
"156 333 LINE",
"249 333 LINE SMOOTH",
"359 333 OFFCURVE",
"417 295 OFFCURVE",
"417 205 CURVE SMOOTH",
"417 115 OFFCURVE",
"370 63 OFFCURVE",
"284 63 CURVE SMOOTH"
);
}
);
width = 536;
}
);
},
{
glyphname = u1053E_fe2d;
lastChange = "2019-02-19 19:00:23 +0000";
layers = (
{
layerId = "013C57DE-4010-4415-A39F-4966D9E8DBC5";
paths = (
{
closed = 1;
nodes = (
"540 -271 LINE",
"540 -201 LINE",
"-5 -201 LINE",
"-5 -271 LINE"
);
},
{
closed = 1;
nodes = (
"108 724 OFFCURVE",
"30 650 OFFCURVE",
"30 492 CURVE SMOOTH",
"30 445 LINE",
"119 445 LINE",
"119 490 LINE SMOOTH",
"119 605 OFFCURVE",
"163 650 OFFCURVE",
"246 650 CURVE SMOOTH",
"341 650 OFFCURVE",
"377 588 OFFCURVE",
"377 477 CURVE SMOOTH",
"377 0 LINE",
"465 0 LINE",
"465 466 LINE SMOOTH",
"465 634 OFFCURVE",
"396 724 OFFCURVE",
"247 724 CURVE SMOOTH"
);
}
);
width = 535;
}
);
},
{
glyphname = u1053F_fe2d;
lastChange = "2019-02-19 19:00:23 +0000";
layers = (
{
layerId = "013C57DE-4010-4415-A39F-4966D9E8DBC5";
paths = (
{
closed = 1;
nodes = (
"503 -271 LINE",
"503 -201 LINE",
"-5 -201 LINE",
"-5 -271 LINE"
);
},
{
closed = 1;
nodes = (
"488 0 LINE",
"488 77 LINE",
"293 77 LINE",
"293 714 LINE",
"205 714 LINE",
"205 77 LINE",
"10 77 LINE",
"10 0 LINE"
);
}
);
width = 498;
}
);
},
{
glyphname = u10540_fe2d;
lastChange = "2019-02-19 19:00:23 +0000";
layers = (
{
layerId = "013C57DE-4010-4415-A39F-4966D9E8DBC5";
paths = (
{
closed = 1;
nodes = (
"555 -271 LINE",
"555 -201 LINE",
"-5 -201 LINE",
"-5 -271 LINE"
);
},
{
closed = 1;
nodes = (
"470 0 LINE",
"470 714 LINE",
"382 714 LINE",
"382 265 LINE",
"309 265 LINE SMOOTH",
"186 265 OFFCURVE",
"121 301 OFFCURVE",
"121 393 CURVE SMOOTH",
"121 490 OFFCURVE",
"180 527 OFFCURVE",
"296 527 CURVE SMOOTH",
"396 527 LINE",
"396 602 LINE",
"287 602 LINE SMOOTH",
"112 602 OFFCURVE",
"30 526 OFFCURVE",
"30 393 CURVE SMOOTH",
"30 280 OFFCURVE",
"99 190 OFFCURVE",
"298 190 CURVE SMOOTH",
"382 190 LINE",
"382 0 LINE"
);
}
);
width = 550;
}
);
},
{
glyphname = u10541_fe2d;
lastChange = "2019-02-19 19:00:23 +0000";
layers = (
{
layerId = "013C57DE-4010-4415-A39F-4966D9E8DBC5";
paths = (
{
closed = 1;
nodes = (
"469 -271 LINE",
"469 -201 LINE",
"-5 -201 LINE",
"-5 -271 LINE"
);
},
{
closed = 1;
nodes = (
"168 0 LINE",
"168 452 LINE",
"346 452 LINE",
"346 257 LINE",
"434 257 LINE",
"434 529 LINE",
"168 529 LINE",
"168 714 LINE",
"80 714 LINE",
"80 0 LINE"
);
}
);
width = 464;
}
);
},
{
glyphname = u10542_fe2d;
lastChange = "2019-02-19 19:00:23 +0000";
layers = (
{
layerId = "013C57DE-4010-4415-A39F-4966D9E8DBC5";
paths = (
{
closed = 1;
nodes = (
"605 -271 LINE",
"605 -201 LINE",
"-5 -201 LINE",
"-5 -271 LINE"
);
},
{
closed = 1;
nodes = (
"539 -55 OFFCURVE",
"590 1 OFFCURVE",
"590 92 CURVE SMOOTH",
"590 160 LINE",
"508 160 LINE",
"508 99 LINE SMOOTH",
"508 45 OFFCURVE",
"492 20 OFFCURVE",
"441 20 CURVE SMOOTH",
"391 20 OFFCURVE",
"375 45 OFFCURVE",
"375 98 CURVE SMOOTH",
"375 160 LINE",
"293 135 LINE",
"293 86 LINE SMOOTH",
"293 -5 OFFCURVE",
"343 -55 OFFCURVE",
"441 -55 CURVE SMOOTH"
);
},
{
closed = 1;
nodes = (
"375 82 LINE",
"375 160 LINE",
"79 70 LINE",
"79 -5 LINE"
);
},
{
closed = 1;
nodes = (
"342 308 LINE SMOOTH",
"417 398 OFFCURVE",
"471 466 OFFCURVE",
"471 551 CURVE SMOOTH",
"471 651 OFFCURVE",
"396 724 OFFCURVE",
"270 724 CURVE SMOOTH",
"138 724 OFFCURVE",
"54 645 OFFCURVE",
"54 532 CURVE SMOOTH",
"54 411 OFFCURVE",
"150 351 OFFCURVE",
"274 319 CURVE",
"318 376 LINE",
"218 399 OFFCURVE",
"141 449 OFFCURVE",
"141 535 CURVE SMOOTH",
"141 602 OFFCURVE",
"188 653 OFFCURVE",
"267 653 CURVE SMOOTH",
"347 653 OFFCURVE",
"382 599 OFFCURVE",
"382 544 CURVE SMOOTH",
"382 475 OFFCURVE",
"323 404 OFFCURVE",
"273 345 CURVE SMOOTH",
"21 48 LINE",
"79 -5 LINE"
);
}
);
width = 600;
}
);
},
{
glyphname = u10543_fe2d;
lastChange = "2019-02-19 19:00:23 +0000";
layers = (
{
layerId = "013C57DE-4010-4415-A39F-4966D9E8DBC5";
paths = (
{
closed = 1;
nodes = (
"506 -271 LINE",
"506 -201 LINE",
"-5 -201 LINE",
"-5 -271 LINE"
);
},
{
closed = 1;
nodes = (
"449 0 LINE",
"449 77 LINE",
"168 77 LINE",
"168 340 LINE SMOOTH",
"168 427 OFFCURVE",
"213 480 OFFCURVE",
"284 480 CURVE SMOOTH",
"353 480 OFFCURVE",
"392 428 OFFCURVE",
"392 361 CURVE SMOOTH",
"392 330 OFFCURVE",
"382 291 OFFCURVE",
"365 260 CURVE",
"444 235 LINE",
"468 275 OFFCURVE",
"481 321 OFFCURVE",
"481 364 CURVE SMOOTH",
"481 466 OFFCURVE",
"421 558 OFFCURVE",
"311 558 CURVE SMOOTH",
"257 558 OFFCURVE",
"204 538 OFFCURVE",
"169 481 CURVE",
"164 481 LINE",
"167 513 OFFCURVE",
"168 543 OFFCURVE",
"168 562 CURVE SMOOTH",
"168 714 LINE",
"80 714 LINE",
"80 0 LINE"
);
}
);
width = 501;
}
);
},
{
glyphname = u10544_fe2d;
lastChange = "2019-02-19 19:00:23 +0000";
layers = (
{
layerId = "013C57DE-4010-4415-A39F-4966D9E8DBC5";
paths = (
{
closed = 1;
nodes = (
"523 -271 LINE",
"523 -201 LINE",
"-5 -201 LINE",
"-5 -271 LINE"
);
},
{
closed = 1;
nodes = (
"508 0 LINE",
"508 77 LINE",
"310 77 LINE SMOOTH",
"257 77 OFFCURVE",
"209 77 OFFCURVE",
"159 76 CURVE",
"374 374 LINE",
"168 639 LINE",
"195 638 OFFCURVE",
"255 637 OFFCURVE",
"284 637 CURVE SMOOTH",
"479 637 LINE",
"479 714 LINE",
"66 714 LINE",
"66 639 LINE",
"274 373 LINE",
"60 74 LINE",
"60 0 LINE"
);
}
);
width = 518;
}
);
},
{
glyphname = u10545_fe2d;
lastChange = "2019-02-19 19:00:23 +0000";
layers = (
{
layerId = "013C57DE-4010-4415-A39F-4966D9E8DBC5";
paths = (
{
closed = 1;
nodes = (
"541 -271 LINE",
"541 -201 LINE",
"-5 -201 LINE",
"-5 -271 LINE"
);
},
{
closed = 1;
nodes = (
"97 445 LINE",
"97 594 OFFCURVE",
"177 637 OFFCURVE",
"267 637 CURVE SMOOTH",
"526 637 LINE",
"526 714 LINE",
"277 714 LINE SMOOTH",
"111 714 OFFCURVE",
"10 627 OFFCURVE",
"10 445 CURVE"
);
},
{
closed = 1;
nodes = (
"334 0 LINE",
"334 678 LINE",
"246 678 LINE",
"246 0 LINE"
);
}
);
width = 536;
}
);
},
{
glyphname = u10546_fe2d;
lastChange = "2019-02-19 19:00:23 +0000";
layers = (
{
layerId = "013C57DE-4010-4415-A39F-4966D9E8DBC5";
paths = (
{
closed = 1;
nodes = (
"364 -271 LINE",
"364 -201 LINE",
"-5 -201 LINE",
"-5 -271 LINE"
);
},
{
closed = 1;
nodes = (
"324 207 LINE",
"246 714 LINE",
"159 714 LINE",
"232 240 LINE",
"14 58 LINE",
"67 -5 LINE"
);
}
);
width = 359;
}
);
},
{
glyphname = u10547_fe2d;
lastChange = "2019-02-19 19:00:23 +0000";
layers = (
{
layerId = "013C57DE-4010-4415-A39F-4966D9E8DBC5";
paths = (
{
closed = 1;
nodes = (
"378 -271 LINE",
"378 -201 LINE",
"-5 -201 LINE",
"-5 -271 LINE"
);
},
{
closed = 1;
nodes = (
"293 0 LINE",
"293 714 LINE",
"205 714 LINE",
"205 410 LINE",
"10 410 LINE",
"10 333 LINE",
"205 333 LINE",
"205 0 LINE"
);
}
);
width = 373;
}
);
},
{
glyphname = u10548_fe2d;
lastChange = "2019-02-19 19:00:23 +0000";
layers = (
{
layerId = "013C57DE-4010-4415-A39F-4966D9E8DBC5";
paths = (
{
closed = 1;
nodes = (
"696 -271 LINE",
"696 -201 LINE",
"-5 -201 LINE",
"-5 -271 LINE"
);
},
{
closed = 1;
nodes = (
"247 637 LINE",
"247 714 LINE",
"10 714 LINE",
"10 637 LINE"
);
},
{
closed = 1;
nodes = (
"535 -10 OFFCURVE",
"621 72 OFFCURVE",
"621 244 CURVE SMOOTH",
"621 714 LINE",
"533 714 LINE",
"533 267 LINE SMOOTH",
"533 119 OFFCURVE",
"482 64 OFFCURVE",
"391 64 CURVE SMOOTH",
"299 64 OFFCURVE",
"248 117 OFFCURVE",
"248 267 CURVE SMOOTH",
"248 714 LINE",
"160 714 LINE",
"160 244 LINE SMOOTH",
"160 71 OFFCURVE",
"242 -10 OFFCURVE",
"388 -10 CURVE SMOOTH"
);
}
);
width = 691;
}
);
},
{
glyphname = u10549_fe2d;
lastChange = "2019-02-19 19:00:23 +0000";
layers = (
{
layerId = "013C57DE-4010-4415-A39F-4966D9E8DBC5";
paths = (
{
closed = 1;
nodes = (
"696 -271 LINE",
"696 -201 LINE",
"-5 -201 LINE",
"-5 -271 LINE"
);
},
{
closed = 1;
nodes = (
"681 332 LINE",
"681 409 LINE",
"444 409 LINE",
"444 332 LINE"
);
},
{
closed = 1;
nodes = (
"445 -10 OFFCURVE",
"531 72 OFFCURVE",
"531 244 CURVE SMOOTH",
"531 714 LINE",
"443 714 LINE",
"443 267 LINE SMOOTH",
"443 119 OFFCURVE",
"392 64 OFFCURVE",
"301 64 CURVE SMOOTH",
"209 64 OFFCURVE",
"158 117 OFFCURVE",
"158 267 CURVE SMOOTH",
"158 714 LINE",
"70 714 LINE",
"70 244 LINE SMOOTH",
"70 71 OFFCURVE",
"152 -10 OFFCURVE",
"298 -10 CURVE SMOOTH"
);
}
);
width = 691;
}
);
},
{
glyphname = u1054A_fe2d;
lastChange = "2019-02-19 19:00:23 +0000";
layers = (
{
layerId = "013C57DE-4010-4415-A39F-4966D9E8DBC5";
paths = (
{
closed = 1;
nodes = (
"634 -271 LINE",
"634 -201 LINE",
"-5 -201 LINE",
"-5 -271 LINE"
);
},
{
closed = 1;
nodes = (
"423 -10 OFFCURVE",
"490 91 OFFCURVE",
"490 252 CURVE SMOOTH",
"490 714 LINE",
"402 714 LINE",
"402 242 LINE SMOOTH",
"402 124 OFFCURVE",
"363 60 OFFCURVE",
"254 60 CURVE SMOOTH",
"187 60 OFFCURVE",
"137 84 OFFCURVE",
"137 145 CURVE SMOOTH",
"137 218 OFFCURVE",
"192 228 OFFCURVE",
"277 228 CURVE SMOOTH",
"619 228 LINE",
"619 300 LINE",
"284 300 LINE SMOOTH",
"157 300 OFFCURVE",
"50 273 OFFCURVE",
"50 143 CURVE SMOOTH",
"50 37 OFFCURVE",
"133 -10 OFFCURVE",
"249 -10 CURVE SMOOTH"
);
},
{
closed = 1;
nodes = (
"423 387 LINE",
"423 458 LINE",
"304 458 LINE SMOOTH",
"218 458 OFFCURVE",
"165 480 OFFCURVE",
"165 554 CURVE SMOOTH",
"165 629 OFFCURVE",
"220 644 OFFCURVE",
"310 644 CURVE SMOOTH",
"416 644 LINE",
"416 714 LINE",
"293 714 LINE SMOOTH",
"155 714 OFFCURVE",
"75 663 OFFCURVE",
"75 551 CURVE SMOOTH",
"75 444 OFFCURVE",
"142 387 OFFCURVE",
"297 387 CURVE SMOOTH"
);
}
);
width = 629;
}
);
},
{
glyphname = u1054B_fe2d;
lastChange = "2019-02-19 19:00:23 +0000";
layers = (
{
layerId = "013C57DE-4010-4415-A39F-4966D9E8DBC5";
paths = (
{
closed = 1;
nodes = (
"528 -271 LINE",
"528 -201 LINE",
"-5 -201 LINE",
"-5 -271 LINE"
);
},
{
closed = 1;
nodes = (
"427 -10 OFFCURVE",
"493 81 OFFCURVE",
"493 190 CURVE SMOOTH",
"493 253 OFFCURVE",
"471 295 OFFCURVE",
"436 330 CURVE",
"370 287 LINE",
"392 259 OFFCURVE",
"406 230 OFFCURVE",
"406 188 CURVE SMOOTH",
"406 114 OFFCURVE",
"361 61 OFFCURVE",
"268 61 CURVE SMOOTH",
"191 61 OFFCURVE",
"129 98 OFFCURVE",
"129 181 CURVE SMOOTH",
"129 252 OFFCURVE",
"174 295 OFFCURVE",
"234 346 CURVE SMOOTH",
"427 509 LINE",
"398 577 LINE",
"185 577 LINE SMOOTH",
"148 577 OFFCURVE",
"122 585 OFFCURVE",
"122 621 CURVE SMOOTH",
"122 651 OFFCURVE",
"145 664 OFFCURVE",
"184 675 CURVE",
"158 737 LINE",
"85 719 OFFCURVE",
"40 676 OFFCURVE",
"40 618 CURVE SMOOTH",
"40 539 OFFCURVE",
"98 507 OFFCURVE",
"191 507 CURVE SMOOTH",
"366 507 LINE",
"357 535 LINE",
"188 404 LINE SMOOTH",
"113 346 OFFCURVE",
"43 281 OFFCURVE",
"43 175 CURVE SMOOTH",
"43 58 OFFCURVE",
"129 -10 OFFCURVE",
"267 -10 CURVE SMOOTH"
);
}
);
width = 523;
}
);
},
{
glyphname = u1054C_fe2d;
lastChange = "2019-02-19 19:00:23 +0000";
layers = (
{
layerId = "013C57DE-4010-4415-A39F-4966D9E8DBC5";
paths = (
{
closed = 1;
nodes = (
"616 -271 LINE",
"616 -201 LINE",
"-5 -201 LINE",
"-5 -271 LINE"
);
},
{
closed = 1;
nodes = (
"601 0 LINE",
"601 77 LINE",
"88 77 LINE",
"88 0 LINE"
);
},
{
closed = 1;
nodes = (
"462 0 LINE",
"462 714 LINE",
"374 714 LINE",
"374 379 LINE",
"291 379 LINE SMOOTH",
"187 379 OFFCURVE",
"121 414 OFFCURVE",
"121 507 CURVE SMOOTH",
"121 595 OFFCURVE",
"181 637 OFFCURVE",
"291 637 CURVE SMOOTH",
"394 637 LINE",
"394 714 LINE",
"270 714 LINE SMOOTH",
"114 714 OFFCURVE",
"30 633 OFFCURVE",
"30 504 CURVE SMOOTH",
"30 360 OFFCURVE",
"135 302 OFFCURVE",
"280 302 CURVE SMOOTH",
"374 302 LINE",
"374 0 LINE"
);
}
);
width = 611;
}
);
},
{
glyphname = u1054D_fe2d;
lastChange = "2019-02-19 19:00:23 +0000";
layers = (
{
layerId = "013C57DE-4010-4415-A39F-4966D9E8DBC5";
paths = (
{
closed = 1;
nodes = (
"503 -271 LINE",
"503 -201 LINE",
"-5 -201 LINE",
"-5 -271 LINE"
);
},
{
closed = 1;
nodes = (
"115 0 LINE",
"115 162 OFFCURVE",
"166 213 OFFCURVE",
"306 328 CURVE SMOOTH",
"416 418 OFFCURVE",
"468 463 OFFCURVE",
"468 548 CURVE SMOOTH",
"468 645 OFFCURVE",
"399 724 OFFCURVE",
"274 724 CURVE SMOOTH",
"151 724 OFFCURVE",
"71 649 OFFCURVE",
"71 538 CURVE SMOOTH",
"71 431 OFFCURVE",
"147 370 OFFCURVE",
"248 340 CURVE",
"309 389 LINE",
"217 408 OFFCURVE",
"158 459 OFFCURVE",
"158 540 CURVE SMOOTH",
"158 608 OFFCURVE",
"199 653 OFFCURVE",
"270 653 CURVE SMOOTH",
"340 653 OFFCURVE",
"379 610 OFFCURVE",
"379 545 CURVE SMOOTH",
"379 476 OFFCURVE",
"326 432 OFFCURVE",
"261 385 CURVE SMOOTH",
"80 253 OFFCURVE",
"30 169 OFFCURVE",
"30 0 CURVE"
);
},
{
closed = 1;
nodes = (
"468 0 LINE",
"468 77 LINE",
"51 77 LINE",
"51 0 LINE"
);
}
);
width = 498;
}
);
},
{
glyphname = u1054E_fe2d;
lastChange = "2019-02-19 19:00:23 +0000";
layers = (
{
layerId = "013C57DE-4010-4415-A39F-4966D9E8DBC5";
paths = (
{
closed = 1;
nodes = (
"625 -271 LINE",
"625 -201 LINE",
"-5 -201 LINE",
"-5 -271 LINE"
);
},
{
closed = 1;
nodes = (
"540 1 LINE",
"540 715 LINE",
"452 715 LINE",
"452 580 LINE SMOOTH",
"452 476 OFFCURVE",
"408 417 OFFCURVE",
"324 417 CURVE SMOOTH",
"246 417 OFFCURVE",
"214 471 OFFCURVE",
"214 541 CURVE SMOOTH",
"214 602 OFFCURVE",
"233 667 OFFCURVE",
"271 714 CURVE",
"10 714 LINE",
"10 637 LINE",
"162 637 LINE",
"168 682 LINE",
"139 641 OFFCURVE",
"125 597 OFFCURVE",
"125 532 CURVE SMOOTH",
"125 422 OFFCURVE",
"183 341 OFFCURVE",
"300 341 CURVE SMOOTH",
"357 341 OFFCURVE",
"413 359 OFFCURVE",
"451 411 CURVE",
"457 411 LINE",
"453 368 OFFCURVE",
"452 355 OFFCURVE",
"452 335 CURVE SMOOTH",
"452 1 LINE"
);
}
);
width = 620;
}
);
},
{
glyphname = u1054F_fe2d;
lastChange = "2019-02-19 19:00:23 +0000";
layers = (
{
layerId = "013C57DE-4010-4415-A39F-4966D9E8DBC5";
paths = (
{
closed = 1;
nodes = (
"636 -271 LINE",
"636 -201 LINE",
"-5 -201 LINE",
"-5 -271 LINE"
);
},
{
closed = 1;
nodes = (
"403 -10 OFFCURVE",
"472 78 OFFCURVE",
"472 263 CURVE SMOOTH",
"472 714 LINE",
"384 714 LINE",
"384 256 LINE SMOOTH",
"384 123 OFFCURVE",
"343 64 OFFCURVE",
"251 64 CURVE SMOOTH",
"160 64 OFFCURVE",
"119 129 OFFCURVE",
"119 273 CURVE SMOOTH",
"119 354 LINE",
"30 354 LINE",
"30 266 LINE SMOOTH",
"30 84 OFFCURVE",
"97 -10 OFFCURVE",
"253 -10 CURVE SMOOTH"
);
},
{
closed = 1;
nodes = (
"621 333 LINE",
"621 410 LINE",
"384 410 LINE",
"384 333 LINE"
);
}
);
width = 631;
}
);
},
{
glyphname = u10550_fe2d;
lastChange = "2019-02-19 19:00:23 +0000";
layers = (
{
layerId = "013C57DE-4010-4415-A39F-4966D9E8DBC5";
paths = (
{
closed = 1;
nodes = (
"627 -271 LINE",
"627 -201 LINE",
"-5 -201 LINE",
"-5 -271 LINE"
);
},
{
closed = 1;
nodes = (
"392 -10 OFFCURVE",
"463 78 OFFCURVE",
"463 242 CURVE SMOOTH",
"463 714 LINE",
"375 714 LINE",
"375 261 LINE SMOOTH",
"375 132 OFFCURVE",
"341 64 OFFCURVE",
"246 64 CURVE SMOOTH",
"171 64 OFFCURVE",
"118 107 OFFCURVE",
"118 198 CURVE SMOOTH",
"118 301 OFFCURVE",
"185 332 OFFCURVE",
"297 332 CURVE SMOOTH",
"612 332 LINE",
"612 409 LINE",
"287 409 LINE SMOOTH",
"130 409 OFFCURVE",
"30 348 OFFCURVE",
"30 198 CURVE SMOOTH",
"30 66 OFFCURVE",
"107 -10 OFFCURVE",
"244 -10 CURVE SMOOTH"
);
},
{
closed = 1;
nodes = (
"386 637 LINE",
"386 714 LINE",
"76 714 LINE",
"76 637 LINE"
);
}
);
width = 622;
}
);
},
{
glyphname = u10551_fe2d;
lastChange = "2019-02-19 19:00:23 +0000";
layers = (
{
layerId = "013C57DE-4010-4415-A39F-4966D9E8DBC5";
paths = (
{
closed = 1;
nodes = (
"616 -271 LINE",
"616 -201 LINE",
"-5 -201 LINE",
"-5 -271 LINE"
);
},
{
closed = 1;
nodes = (
"601 0 LINE",
"601 77 LINE",
"374 77 LINE",
"374 0 LINE"
);
},
{
closed = 1;
nodes = (
"462 0 LINE",
"462 714 LINE",
"374 714 LINE",
"374 379 LINE",
"291 379 LINE SMOOTH",
"187 379 OFFCURVE",
"121 414 OFFCURVE",
"121 507 CURVE SMOOTH",
"121 595 OFFCURVE",
"181 637 OFFCURVE",
"291 637 CURVE SMOOTH",
"394 637 LINE",
"394 714 LINE",
"270 714 LINE SMOOTH",
"114 714 OFFCURVE",
"30 633 OFFCURVE",
"30 504 CURVE SMOOTH",
"30 360 OFFCURVE",
"135 302 OFFCURVE",
"280 302 CURVE SMOOTH",
"374 302 LINE",
"374 0 LINE"
);
}
);
width = 611;
}
);
},
{
glyphname = u10552_fe2d;
lastChange = "2019-02-19 19:00:23 +0000";
layers = (
{
layerId = "013C57DE-4010-4415-A39F-4966D9E8DBC5";
paths = (
{
closed = 1;
nodes = (
"760 -271 LINE",
"760 -201 LINE",
"-5 -201 LINE",
"-5 -271 LINE"
);
},
{
closed = 1;
nodes = (
"511 -10 OFFCURVE",
"600 143 OFFCURVE",
"600 361 CURVE SMOOTH",
"600 587 OFFCURVE",
"508 724 OFFCURVE",
"328 724 CURVE SMOOTH",
"143 724 OFFCURVE",
"50 576 OFFCURVE",
"50 359 CURVE SMOOTH",
"50 140 OFFCURVE",
"139 -10 OFFCURVE",
"325 -10 CURVE SMOOTH"
);
},
{
closed = 1;
nodes = (
"200 64 OFFCURVE",
"143 182 OFFCURVE",
"143 358 CURVE SMOOTH",
"143 532 OFFCURVE",
"201 650 OFFCURVE",
"329 650 CURVE SMOOTH",
"448 650 OFFCURVE",
"508 542 OFFCURVE",
"508 358 CURVE SMOOTH",
"508 181 OFFCURVE",
"452 64 OFFCURVE",
"326 64 CURVE SMOOTH"
);
},
{
closed = 1;
nodes = (
"745 333 LINE",
"745 410 LINE",
"508 410 LINE",
"508 333 LINE"
);
}
);
width = 755;
}
);
},
{
glyphname = u10553_fe2d;
lastChange = "2019-02-19 19:00:23 +0000";
layers = (
{
layerId = "013C57DE-4010-4415-A39F-4966D9E8DBC5";
paths = (
{
closed = 1;
nodes = (
"530 -271 LINE",
"530 -201 LINE",
"-5 -201 LINE",
"-5 -271 LINE"
);
},
{
closed = 1;
nodes = (
"490 0 LINE",
"490 77 LINE",
"137 77 LINE",
"480 646 LINE",
"480 714 LINE",
"47 714 LINE",
"47 637 LINE",
"379 637 LINE",
"35 68 LINE",
"35 0 LINE"
);
}
);
width = 525;
}
);
},
{
glyphname = u10554_fe2d;
lastChange = "2019-02-19 19:00:23 +0000";
layers = (
{
layerId = "013C57DE-4010-4415-A39F-4966D9E8DBC5";
paths = (
{
closed = 1;
nodes = (
"629 -271 LINE",
"629 -201 LINE",
"-5 -201 LINE",
"-5 -271 LINE"
);
},
{
closed = 1;
nodes = (
"614 637 LINE",
"614 714 LINE",
"198 714 LINE",
"198 637 LINE"
);
},
{
closed = 1;
nodes = (
"396 -10 OFFCURVE",
"465 80 OFFCURVE",
"465 248 CURVE SMOOTH",
"465 714 LINE",
"377 714 LINE",
"377 237 LINE SMOOTH",
"377 126 OFFCURVE",
"341 64 OFFCURVE",
"246 64 CURVE SMOOTH",
"163 64 OFFCURVE",
"119 109 OFFCURVE",
"119 224 CURVE SMOOTH",
"119 269 LINE",
"30 269 LINE",
"30 222 LINE SMOOTH",
"30 64 OFFCURVE",
"108 -10 OFFCURVE",
"247 -10 CURVE SMOOTH"
);
}
);
width = 624;
}
);
},
{
glyphname = u10555_fe2d;
lastChange = "2019-02-19 19:00:23 +0000";
layers = (
{
layerId = "013C57DE-4010-4415-A39F-4966D9E8DBC5";
paths = (
{
closed = 1;
nodes = (
"605 -271 LINE",
"605 -201 LINE",
"-5 -201 LINE",
"-5 -271 LINE"
);
},
{
closed = 1;
nodes = (
"291 313 LINE SMOOTH",
"362 410 OFFCURVE",
"486 578 OFFCURVE",
"590 650 CURVE",
"538 714 LINE",
"410 620 OFFCURVE",
"263 420 OFFCURVE",
"208 343 CURVE SMOOTH",
"-5 48 LINE",
"59 -5 LINE"
);
},
{
closed = 1;
nodes = (
"519 -55 OFFCURVE",
"570 1 OFFCURVE",
"570 92 CURVE SMOOTH",
"570 160 LINE",
"488 160 LINE",
"488 99 LINE SMOOTH",
"488 45 OFFCURVE",
"472 20 OFFCURVE",
"421 20 CURVE SMOOTH",
"371 20 OFFCURVE",
"355 45 OFFCURVE",
"355 98 CURVE SMOOTH",
"355 160 LINE",
"273 135 LINE",
"273 86 LINE SMOOTH",
"273 -5 OFFCURVE",
"323 -55 OFFCURVE",
"421 -55 CURVE SMOOTH"
);
},
{
closed = 1;
nodes = (
"355 82 LINE",
"355 160 LINE",
"59 70 LINE",
"59 -5 LINE"
);
}
);
width = 600;
}
);
},
{
glyphname = u10556_fe2d;
lastChange = "2019-02-19 19:00:23 +0000";
layers = (
{
layerId = "013C57DE-4010-4415-A39F-4966D9E8DBC5";
paths = (
{
closed = 1;
nodes = (
"548 -271 LINE",
"548 -201 LINE",
"-5 -201 LINE",
"-5 -271 LINE"
);
},
{
closed = 1;
nodes = (
"421 -10 OFFCURVE",
"513 73 OFFCURVE",
"513 212 CURVE SMOOTH",
"513 334 OFFCURVE",
"448 400 OFFCURVE",
"365 466 CURVE SMOOTH",
"302 516 OFFCURVE",
"280 534 OFFCURVE",
"280 681 CURVE SMOOTH",
"280 714 LINE",
"193 714 LINE",
"193 686 LINE SMOOTH",
"193 497 OFFCURVE",
"246 452 OFFCURVE",
"322 398 CURVE SMOOTH",
"376 360 OFFCURVE",
"424 306 OFFCURVE",
"424 211 CURVE SMOOTH",
"424 124 OFFCURVE",
"378 64 OFFCURVE",
"272 64 CURVE SMOOTH",
"215 64 OFFCURVE",
"168 90 OFFCURVE",
"134 125 CURVE",
"85 59 LINE",
"128 21 OFFCURVE",
"186 -10 OFFCURVE",
"277 -10 CURVE SMOOTH"
);
},
{
closed = 1;
nodes = (
"416 637 LINE",
"416 714 LINE",
"10 714 LINE",
"10 637 LINE"
);
}
);
width = 543;
}
);
},
{
glyphname = u10557_fe2d;
lastChange = "2019-02-19 19:00:23 +0000";
layers = (
{
layerId = "013C57DE-4010-4415-A39F-4966D9E8DBC5";
paths = (
{
closed = 1;
nodes = (
"673 -271 LINE",
"673 -201 LINE",
"-5 -201 LINE",
"-5 -271 LINE"
);
},
{
closed = 1;
nodes = (
"658 302 LINE",
"658 379 LINE",
"409 379 LINE",
"409 302 LINE"
);
},
{
closed = 1;
nodes = (
"658 179 LINE",
"658 379 LINE",
"579 379 LINE",
"579 179 LINE"
);
},
{
closed = 1;
nodes = (
"462 0 LINE",
"462 714 LINE",
"374 714 LINE",
"374 379 LINE",
"291 379 LINE SMOOTH",
"187 379 OFFCURVE",
"121 414 OFFCURVE",
"121 507 CURVE SMOOTH",
"121 595 OFFCURVE",
"181 637 OFFCURVE",
"291 637 CURVE SMOOTH",
"394 637 LINE",
"394 714 LINE",
"270 714 LINE SMOOTH",
"114 714 OFFCURVE",
"30 633 OFFCURVE",
"30 504 CURVE SMOOTH",
"30 360 OFFCURVE",
"135 302 OFFCURVE",
"280 302 CURVE SMOOTH",
"374 302 LINE",
"374 0 LINE"
);
}
);
width = 668;
}
);
},
{
glyphname = u10558_fe2d;
lastChange = "2019-02-19 19:00:23 +0000";
layers = (
{
layerId = "013C57DE-4010-4415-A39F-4966D9E8DBC5";
paths = (
{
closed = 1;
nodes = (
"527 -271 LINE",
"527 -201 LINE",
"-5 -201 LINE",
"-5 -271 LINE"
);
},
{
closed = 1;
nodes = (
"481 637 LINE",
"481 714 LINE",
"115 714 LINE",
"115 637 LINE"
);
},
{
closed = 1;
nodes = (
"395 -10 OFFCURVE",
"482 75 OFFCURVE",
"482 212 CURVE SMOOTH",
"482 363 OFFCURVE",
"377 433 OFFCURVE",
"292 489 CURVE SMOOTH",
"197 552 OFFCURVE",
"175 576 OFFCURVE",
"162 714 CURVE",
"75 714 LINE",
"86 528 OFFCURVE",
"148 486 OFFCURVE",
"249 421 CURVE SMOOTH",
"332 368 OFFCURVE",
"393 325 OFFCURVE",
"393 216 CURVE SMOOTH",
"393 121 OFFCURVE",
"351 64 OFFCURVE",
"254 64 CURVE SMOOTH",
"150 64 OFFCURVE",
"119 130 OFFCURVE",
"119 205 CURVE SMOOTH",
"119 240 OFFCURVE",
"126 282 OFFCURVE",
"141 313 CURVE",
"66 347 LINE",
"42 302 OFFCURVE",
"30 246 OFFCURVE",
"30 199 CURVE SMOOTH",
"30 89 OFFCURVE",
"95 -10 OFFCURVE",
"251 -10 CURVE SMOOTH"
);
}
);
width = 522;
}
);
},
{
glyphname = u10559_fe2d;
lastChange = "2019-02-19 19:00:23 +0000";
layers = (
{
layerId = "013C57DE-4010-4415-A39F-4966D9E8DBC5";
paths = (
{
closed = 1;
nodes = (
"827 -271 LINE",
"827 -201 LINE",
"-5 -201 LINE",
"-5 -271 LINE"
);
},
{
closed = 1;
nodes = (
"340 -10 OFFCURVE",
"400 37 OFFCURVE",
"421 123 CURVE",
"401 123 LINE",
"422 37 OFFCURVE",
"477 -10 OFFCURVE",
"582 -10 CURVE SMOOTH",
"717 -10 OFFCURVE",
"792 64 OFFCURVE",
"792 223 CURVE SMOOTH",
"792 269 LINE",
"704 269 LINE",
"704 236 LINE SMOOTH",
"704 109 OFFCURVE",
"661 64 OFFCURVE",
"583 64 CURVE SMOOTH",
"490 64 OFFCURVE",
"455 126 OFFCURVE",
"455 237 CURVE SMOOTH",
"455 714 LINE",
"367 714 LINE",
"367 237 LINE SMOOTH",
"367 126 OFFCURVE",
"332 64 OFFCURVE",
"239 64 CURVE SMOOTH",
"161 64 OFFCURVE",
"118 109 OFFCURVE",
"118 232 CURVE SMOOTH",
"118 269 LINE",
"30 269 LINE",
"30 217 LINE SMOOTH",
"30 64 OFFCURVE",
"105 -10 OFFCURVE",
"240 -10 CURVE SMOOTH"
);
}
);
width = 822;
}
);
},
{
glyphname = u1055A_fe2d;
lastChange = "2019-02-19 19:00:23 +0000";
layers = (
{
layerId = "013C57DE-4010-4415-A39F-4966D9E8DBC5";
paths = (
{
closed = 1;
nodes = (
"612 -271 LINE",
"612 -201 LINE",
"-5 -201 LINE",
"-5 -271 LINE"
);
},
{
closed = 1;
nodes = (
"247 0 LINE",
"247 214 LINE SMOOTH",
"247 307 OFFCURVE",
"283 398 OFFCURVE",
"377 398 CURVE SMOOTH",
"445 398 OFFCURVE",
"478 351 OFFCURVE",
"478 244 CURVE SMOOTH",
"478 0 LINE",
"566 0 LINE",
"566 262 LINE SMOOTH",
"566 414 OFFCURVE",
"499 473 OFFCURVE",
"402 473 CURVE SMOOTH",
"333 473 OFFCURVE",
"283 447 OFFCURVE",
"248 386 CURVE",
"243 386 LINE",
"246 435 OFFCURVE",
"247 465 OFFCURVE",
"247 496 CURVE SMOOTH",
"247 714 LINE",
"159 714 LINE",
"159 0 LINE"
);
},
{
closed = 1;
nodes = (
"247 637 LINE",
"247 714 LINE",
"10 714 LINE",
"10 637 LINE"
);
}
);
width = 607;
}
);
},
{
glyphname = u1055B_fe2d;
lastChange = "2019-02-19 19:00:23 +0000";
layers = (
{
layerId = "013C57DE-4010-4415-A39F-4966D9E8DBC5";
paths = (
{
closed = 1;
nodes = (
"606 -271 LINE",
"606 -201 LINE",
"-5 -201 LINE",
"-5 -271 LINE"
);
},
{
closed = 1;
nodes = (
"168 0 LINE",
"168 714 LINE",
"80 714 LINE",
"80 0 LINE"
);
},
{
closed = 1;
nodes = (
"540 173 OFFCURVE",
"591 229 OFFCURVE",
"591 320 CURVE SMOOTH",
"591 388 LINE",
"509 388 LINE",
"509 327 LINE SMOOTH",
"509 273 OFFCURVE",
"493 248 OFFCURVE",
"442 248 CURVE SMOOTH",
"392 248 OFFCURVE",
"376 273 OFFCURVE",
"376 326 CURVE SMOOTH",
"376 388 LINE",
"294 363 LINE",
"294 314 LINE SMOOTH",
"294 223 OFFCURVE",
"344 173 OFFCURVE",
"442 173 CURVE SMOOTH"
);
},
{
closed = 1;
nodes = (
"376 310 LINE",
"376 388 LINE",
"80 298 LINE",
"80 223 LINE"
);
}
);
width = 601;
}
);
},
{
glyphname = u1055C_fe2d;
lastChange = "2019-02-19 19:00:23 +0000";
layers = (
{
layerId = "013C57DE-4010-4415-A39F-4966D9E8DBC5";
paths = (
{
closed = 1;
nodes = (
"692 -271 LINE",
"692 -201 LINE",
"-5 -201 LINE",
"-5 -271 LINE"
);
},
{
closed = 1;
nodes = (
"589 -10 OFFCURVE",
"667 68 OFFCURVE",
"667 201 CURVE SMOOTH",
"667 351 OFFCURVE",
"568 409 OFFCURVE",
"442 409 CURVE SMOOTH",
"212 409 OFFCURVE",
"96 214 OFFCURVE",
"10 30 CURVE",
"81 -5 LINE",
"164 173 OFFCURVE",
"258 332 OFFCURVE",
"432 332 CURVE SMOOTH",
"513 332 OFFCURVE",
"579 297 OFFCURVE",
"579 198 CURVE SMOOTH",
"579 108 OFFCURVE",
"526 64 OFFCURVE",
"455 64 CURVE SMOOTH",
"353 64 OFFCURVE",
"322 153 OFFCURVE",
"322 267 CURVE SMOOTH",
"322 714 LINE",
"234 714 LINE",
"234 242 LINE SMOOTH",
"234 78 OFFCURVE",
"310 -10 OFFCURVE",
"454 -10 CURVE SMOOTH"
);
},
{
closed = 1;
nodes = (
"322 637 LINE",
"322 714 LINE",
"22 714 LINE",
"22 637 LINE"
);
}
);
width = 687;
}
);
},
{
glyphname = u1055D_fe2d;
lastChange = "2019-02-19 19:00:23 +0000";
layers = (
{
layerId = "013C57DE-4010-4415-A39F-4966D9E8DBC5";
paths = (
{
closed = 1;
nodes = (
"538 -271 LINE",
"538 -201 LINE",
"-5 -201 LINE",
"-5 -271 LINE"
);
},
{
closed = 1;
nodes = (
"425 -10 OFFCURVE",
"503 75 OFFCURVE",
"503 181 CURVE SMOOTH",
"503 299 OFFCURVE",
"405 364 OFFCURVE",
"237 364 CURVE SMOOTH",
"220 364 LINE",
"161 312 LINE",
"176 312 LINE SMOOTH",
"337 312 OFFCURVE",
"414 260 OFFCURVE",
"414 180 CURVE SMOOTH",
"414 111 OFFCURVE",
"357 64 OFFCURVE",
"266 64 CURVE SMOOTH",
"187 64 OFFCURVE",
"119 99 OFFCURVE",
"119 186 CURVE SMOOTH",
"119 273 OFFCURVE",
"188 313 OFFCURVE",
"283 366 CURVE SMOOTH",
"392 427 OFFCURVE",
"461 472 OFFCURVE",
"461 570 CURVE SMOOTH",
"461 673 OFFCURVE",
"383 724 OFFCURVE",
"276 724 CURVE SMOOTH",
"149 724 OFFCURVE",
"88 652 OFFCURVE",
"88 572 CURVE SMOOTH",
"88 472 OFFCURVE",
"185 433 OFFCURVE",
"283 420 CURVE",
"339 471 LINE",
"245 476 OFFCURVE",
"175 506 OFFCURVE",
"175 574 CURVE SMOOTH",
"175 622 OFFCURVE",
"210 653 OFFCURVE",
"275 653 CURVE SMOOTH",
"337 653 OFFCURVE",
"373 625 OFFCURVE",
"373 569 CURVE SMOOTH",
"373 497 OFFCURVE",
"304 456 OFFCURVE",
"226 413 CURVE SMOOTH",
"146 369 OFFCURVE",
"30 304 OFFCURVE",
"30 174 CURVE SMOOTH",
"30 58 OFFCURVE",
"123 -10 OFFCURVE",
"266 -10 CURVE SMOOTH"
);
}
);
width = 533;
}
);
},
{
glyphname = u1055E_fe2d;
lastChange = "2019-02-19 19:00:23 +0000";
layers = (
{
layerId = "013C57DE-4010-4415-A39F-4966D9E8DBC5";
paths = (
{
closed = 1;
nodes = (
"795 -271 LINE",
"795 -201 LINE",
"-5 -201 LINE",
"-5 -271 LINE"
);
},
{
closed = 1;
nodes = (
"780 333 LINE",
"780 410 LINE",
"543 410 LINE",
"543 333 LINE"
);
},
{
closed = 1;
nodes = (
"247 637 LINE",
"247 714 LINE",
"10 714 LINE",
"10 637 LINE"
);
},
{
closed = 1;
nodes = (
"535 -10 OFFCURVE",
"621 72 OFFCURVE",
"621 244 CURVE SMOOTH",
"621 714 LINE",
"533 714 LINE",
"533 267 LINE SMOOTH",
"533 119 OFFCURVE",
"482 64 OFFCURVE",
"391 64 CURVE SMOOTH",
"299 64 OFFCURVE",
"248 117 OFFCURVE",
"248 267 CURVE SMOOTH",
"248 714 LINE",
"160 714 LINE",
"160 244 LINE SMOOTH",
"160 71 OFFCURVE",
"242 -10 OFFCURVE",
"388 -10 CURVE SMOOTH"
);
}
);
width = 790;
}
);
},
{
glyphname = u1055F_fe2d;
lastChange = "2019-02-19 19:00:23 +0000";
layers = (
{
layerId = "013C57DE-4010-4415-A39F-4966D9E8DBC5";
paths = (
{
closed = 1;
nodes = (
"631 -271 LINE",
"631 -201 LINE",
"-5 -201 LINE",
"-5 -271 LINE"
);
},
{
closed = 1;
nodes = (
"357 0 LINE",
"357 678 LINE",
"269 678 LINE",
"269 0 LINE"
);
},
{
closed = 1;
nodes = (
"616 445 LINE",
"616 613 OFFCURVE",
"553 714 OFFCURVE",
"349 714 CURVE SMOOTH",
"269 714 LINE",
"269 637 LINE",
"344 637 LINE SMOOTH",
"491 637 OFFCURVE",
"528 560 OFFCURVE",
"528 445 CURVE"
);
},
{
closed = 1;
nodes = (
"10 528 LINE",
"10 360 OFFCURVE",
"73 259 OFFCURVE",
"277 259 CURVE SMOOTH",
"357 259 LINE",
"357 336 LINE",
"282 336 LINE SMOOTH",
"135 336 OFFCURVE",
"98 413 OFFCURVE",
"98 528 CURVE"
);
}
);
width = 626;
}
);
},
{
glyphname = u10560_fe2d;
lastChange = "2019-02-19 19:00:23 +0000";
layers = (
{
layerId = "013C57DE-4010-4415-A39F-4966D9E8DBC5";
paths = (
{
closed = 1;
nodes = (
"612 -271 LINE",
"612 -201 LINE",
"-5 -201 LINE",
"-5 -271 LINE"
);
},
{
closed = 1;
nodes = (
"98 445 LINE",
"98 571 OFFCURVE",
"156 647 OFFCURVE",
"302 647 CURVE SMOOTH",
"448 647 OFFCURVE",
"509 575 OFFCURVE",
"509 445 CURVE",
"597 445 LINE",
"597 629 OFFCURVE",
"502 724 OFFCURVE",
"301 724 CURVE SMOOTH",
"106 724 OFFCURVE",
"10 630 OFFCURVE",
"10 445 CURVE"
);
},
{
closed = 1;
nodes = (
"347 0 LINE",
"347 678 LINE",
"259 678 LINE",
"259 0 LINE"
);
}
);
width = 607;
}
);
},
{
glyphname = u10561_fe2d;
lastChange = "2019-02-19 19:00:23 +0000";
layers = (
{
layerId = "013C57DE-4010-4415-A39F-4966D9E8DBC5";
paths = (
{
closed = 1;
nodes = (
"457 -271 LINE",
"457 -201 LINE",
"-5 -201 LINE",
"-5 -271 LINE"
);
},
{
closed = 1;
nodes = (
"293 0 LINE",
"293 714 LINE",
"10 714 LINE",
"10 637 LINE",
"205 637 LINE",
"205 0 LINE"
);
},
{
closed = 1;
nodes = (
"442 332 LINE",
"442 409 LINE",
"205 409 LINE",
"205 332 LINE"
);
}
);
width = 452;
}
);
},
{
glyphname = u10562_fe2d;
lastChange = "2019-02-19 19:00:23 +0000";
layers = (
{
layerId = "013C57DE-4010-4415-A39F-4966D9E8DBC5";
paths = (
{
closed = 1;
nodes = (
"550 -271 LINE",
"550 -201 LINE",
"-5 -201 LINE",
"-5 -271 LINE"
);
},
{
closed = 1;
nodes = (
"413 234 OFFCURVE",
"495 313 OFFCURVE",
"495 478 CURVE SMOOTH",
"495 714 LINE",
"407 714 LINE",
"407 501 LINE SMOOTH",
"407 364 OFFCURVE",
"370 310 OFFCURVE",
"270 310 CURVE SMOOTH",
"170 310 OFFCURVE",
"138 364 OFFCURVE",
"138 501 CURVE SMOOTH",
"138 714 LINE",
"50 714 LINE",
"50 478 LINE SMOOTH",
"50 312 OFFCURVE",
"129 234 OFFCURVE",
"270 234 CURVE SMOOTH"
);
},
{
closed = 1;
nodes = (
"314 0 LINE",
"314 275 LINE",
"226 275 LINE",
"226 0 LINE"
);
}
);
width = 545;
}
);
},
{
glyphname = u10563_fe2d;
lastChange = "2019-02-19 19:00:23 +0000";
layers = (
{
layerId = "013C57DE-4010-4415-A39F-4966D9E8DBC5";
paths = (
{
closed = 1;
nodes = (
"503 -271 LINE",
"503 -201 LINE",
"-5 -201 LINE",
"-5 -271 LINE"
);
},
{
closed = 1;
nodes = (
"293 -43 LINE",
"293 120 LINE",
"488 120 LINE",
"488 197 LINE",
"293 197 LINE",
"293 714 LINE",
"205 714 LINE",
"205 197 LINE",
"10 197 LINE",
"10 120 LINE",
"205 120 LINE",
"205 -43 LINE"
);
}
